<svg xmlns="http://www.w3.org/2000/svg" xmlns:xlink="http://www.w3.org/1999/xlink" viewBox="0 0 300 320"><defs><linearGradient id="b"><stop offset="0" stop-color="#e30000"/><stop offset=".4" stop-color="#eb0000"/><stop offset="1" stop-color="#f30000"/></linearGradient><linearGradient id="a"><stop offset="0" stop-color="#f30000"/><stop offset=".6" stop-color="#eb0000"/><stop offset="1" stop-color="#e30000"/></linearGradient><linearGradient xlink:href="#b" id="d" x1="284" y1="445.6" x2="350.9" y2="516.6" gradientUnits="userSpaceOnUse" gradientTransform="matrix(.9929 0 0 1.00334 52 -2)"/><radialGradient xlink:href="#a" id="c" cx="49" cy="617.4" fx="49" fy="617.4" r="90.4" gradientTransform="matrix(.9955 0 0 .79303 46 152)" gradientUnits="userSpaceOnUse" spreadMethod="pad"/></defs><g transform="translate(-222 -326)"><path d="M512 636c-1 1-50-43-52-45l-53-46c-2-3 13-13 13-14 1 0 13-14 15-12 3 2 37 56 39 59l38 58z" fill="#cad2d2"/><ellipse transform="matrix(.8654 -.5011 .49667 .86794 0 0)" ry="71.2" rx="89.5" cy="641.8" cx="94.6" fill="url(#c)" stroke="#c30000" stroke-linecap="round" stroke-linejoin="round"/><path d="M278 432c21 1 46 33 74 76 18 30 45 12 54 3 8-8 25-32-4-52-43-29-73-55-73-76l-25 25z" fill="url(#d)" stroke="#c30000" stroke-linecap="round" stroke-linejoin="round"/><ellipse cx="63.4" cy="494.9" rx="71.6" ry="57" transform="matrix(.8654 -.5011 .49667 .86794 0 0)" fill="#f30000" stroke="#c30000" stroke-linecap="round" stroke-linejoin="round"/></g></svg>