<svg xmlns="http://www.w3.org/2000/svg" viewBox="0 0 512 512"><rect width="512" height="512" fill="#fff"/><circle cx="255.9" cy="256.2" r="224.3" fill="#364d53"/><path fill="#fff" d="M256.5 117.6a138.4 138.4 0 1 0 138.4 138.5 138.4 138.4 0 0 0-138.4-138.5Zm.3 270.6A132.3 132.3 0 1 1 389 255.9a132.3 132.3 0 0 1-132.3 132.3ZM91.4 261l-32-2.3.6-9.7 22.3-4.2-21.4-7.4.7-9.7 32 2.4-.3 6-25.3-1.9 24.8 8.3-.4 6.2-25.8 4.5 25.3 1.9ZM79 223a20.5 20.5 0 0 1-7.6-3.7 15 15 0 0 1-3.4-4.1 12.6 12.6 0 0 1-1.7-4.8 17.6 17.6 0 0 1 .7-7q2-6.8 7.4-9.7t13-.7Q95 195 98 200.4t1 12.1q-2 7-7.3 9.8t-12.8.7Zm1.5-6.5q5.3 1.5 8.7-.1a8.7 8.7 0 0 0 3.6-12.4q-2-3.2-7.4-4.7c-3.6-1-6.4-1-8.6 0a9 9 0 0 0-3.6 12.5c1.3 2 3.8 3.6 7.3 4.7ZM75.4 180.2l5.9-11.5a36.4 36.4 0 0 1 2.9-5 8.3 8.3 0 0 1 2.7-2.3 8.2 8.2 0 0 1 3.5-1 7.2 7.2 0 0 1 3.8.8 7.5 7.5 0 0 1 3.1 3 7.6 7.6 0 0 1 1 4.3 8.4 8.4 0 0 1 4.7-2.7 7.7 7.7 0 0 1 5 .8 9.6 9.6 0 0 1 3.3 2.8 8.7 8.7 0 0 1 1.7 4 9.2 9.2 0 0 1-.6 4.6q-.6 1.5-3.4 7l-5 9.8Zm7.8-3.4 6.6 3.4 2-3.8 2-4.2a4.3 4.3 0 0 0 .2-2.9 3.4 3.4 0 0 0-1.8-2 3.5 3.5 0 0 0-2.5-.4 3.7 3.7 0 0 0-2.2 1.7l-2.6 4.9Zm11.4 5.8 7.6 4 2.8-5.4a29.1 29.1 0 0 0 1.8-4 4 4 0 0 0 0-2.7 4 4 0 0 0-2-2 4.2 4.2 0 0 0-2.5-.6 4 4 0 0 0-2.3 1.1 22 22 0 0 0-3 5ZM118.7 168.2l-26.6-18.1 3.7-5.4 26.6 18.1ZM124.9 159l-24.3-20.8 4.3-5 20.1 17.3 10.5-12.3 4.2 3.5ZM141.5 140l-20.8-24.6L139 100l3.5 4.2-13.3 11.2 4.6 5.4 12.4-10.4 3.5 4.2-12.4 10.4 5.7 6.7 13.7-11.6 3.5 4.1ZM176 114.1 155.7 88l6-2.8 13.6 18.2-3.8-22.6 7-3.2L193 95.7l-4.8-22.5 6-2.7 6.2 32.5-6.3 2.9-15.8-19.3 4.2 24.6ZM208.7 100.4l-7-31.4 23.3-5.2 1.2 5.3-17 3.8 1.6 7 15.7-3.5 1.2 5.3-15.8 3.5 2 8.5 17.5-3.9 1.2 5.3ZM234.5 62.5l12.9-.6a37 37 0 0 1 5.7 0 8.2 8.2 0 0 1 6 3.8 7.3 7.3 0 0 1 1.1 3.8 7.6 7.6 0 0 1-4.2 7.1 8.4 8.4 0 0 1 4.7 2.8 7.7 7.7 0 0 1 1.7 4.7 9.5 9.5 0 0 1-.8 4.4 8.6 8.6 0 0 1-2.6 3.4 9.3 9.3 0 0 1-4.3 1.7c-1 .2-3.7.4-7.8.6l-11 .4Zm6.8 5 .3 7.5 4.2-.2 4.7-.3a4.3 4.3 0 0 0 2.6-1.3 3.4 3.4 0 0 0 .9-2.6 3.5 3.5 0 0 0-1-2.3 3.8 3.8 0 0 0-2.5-1H245Zm.5 12.8.4 8.6 6-.2a29 29 0 0 0 4.4-.4 4 4 0 0 0 2.3-1.4 4 4 0 0 0 .8-2.8 4.2 4.2 0 0 0-.8-2.4 4 4 0 0 0-2-1.4 22 22 0 0 0-5.9-.2ZM277.6 84.3l6.4.6a7.7 7.7 0 0 0 1.3 5 7 7 0 0 0 4.3 2.4 7.2 7.2 0 0 0 5-.3 4 4 0 0 0 2.1-2.8 3 3 0 0 0-.3-2 5.4 5.4 0 0 0-2-1.8l-4.8-2.4q-4.8-2.3-6.5-4.6a8.5 8.5 0 0 1 .6-11.2 8.8 8.8 0 0 1 4.6-2.4 16.3 16.3 0 0 1 6.4.2q6 1.2 8.5 4.4a9.4 9.4 0 0 1 1.7 7.6l-6.4-1a5.5 5.5 0 0 0-1-3.9 6.6 6.6 0 0 0-3.9-1.8 7.6 7.6 0 0 0-4.6.2 2.4 2.4 0 0 0-1.3 1.8 2.4 2.4 0 0 0 .5 2c.7 1 2.5 2 5.4 3.4a31.8 31.8 0 0 1 6.4 3.6 9.2 9.2 0 0 1 2.8 4 9.7 9.7 0 0 1 .3 5.2 9.5 9.5 0 0 1-2.6 4.8 9.2 9.2 0 0 1-5 2.7 18.3 18.3 0 0 1-7-.3q-6-1.2-8.7-4.6t-2.2-8.8ZM304.4 100.7l11.6-30 9.8 3.8a37.6 37.6 0 0 1 7 3.3 8.4 8.4 0 0 1 3.2 4.5 10 10 0 0 1-.5 6.6 10.6 10.6 0 0 1-2.8 4.2 9 9 0 0 1-3.7 2 9.6 9.6 0 0 1-3.7.2 37.9 37.9 0 0 1-6.5-2l-4-1.5-4.4 11.3ZM320 78.1l-3.3 8.6 3.3 1.3a16.8 16.8 0 0 0 5 1.4 4.3 4.3 0 0 0 2.5-.8 4.4 4.4 0 0 0 1.6-2 4.2 4.2 0 0 0 0-3 4.5 4.5 0 0 0-1.9-2.4 31.6 31.6 0 0 0-4.2-1.9ZM330.2 111.2l16.6-27.7 20.4 12.3-2.8 4.7-14.9-9-3.6 6.1 13.8 8.4-2.8 4.7-13.9-8.4-4.5 7.6L354 119l-2.8 4.7ZM377.2 130.3l3.4 5.7a14.2 14.2 0 0 1-8.8 2.7 15.2 15.2 0 0 1-13.2-14q-.2-6 4.8-11.7 5.3-6 11.3-6.7a14.2 14.2 0 0 1 11.2 3.9 13.4 13.4 0 0 1 5 8.9 12.7 12.7 0 0 1-1.5 6.6l-5.9-3a6.7 6.7 0 0 0-1.5-8.6 7.3 7.3 0 0 0-6-1.9c-2.3.4-4.7 2-7.2 4.9q-4 4.6-4.1 8a7.1 7.1 0 0 0 2.6 5.7 6.5 6.5 0 0 0 4.5 1.6 9.6 9.6 0 0 0 5.4-2ZM376.2 146.3l24-21.4 4.3 4.8-24 21.5ZM400.1 178.2l-4-5.9 4.5-6.4-7.3-10.6-7.6 2-3.9-5.7 33.7-8 3.9 5.7Zm3.7-17.1 7.4-10.5-12.3 3.2ZM400.4 179.7l29-13.5 2.8 6-24 11 6.7 14.8-4.9 2.2ZM410.5 203l30.6-10.3 2 6.2-30.6 10.2ZM424.1 209.5l1.9 6a7.7 7.7 0 0 0-4.1 3.3 7 7 0 0 0-.5 4.9 7.3 7.3 0 0 0 2.2 4.4 4 4 0 0 0 3.4.9 3 3 0 0 0 1.8-1 5.3 5.3 0 0 0 .9-2.6l.3-5.4q.2-5.3 1.6-7.8a8.4 8.4 0 0 1 5.8-4.2 8.3 8.3 0 0 1 4.8.4 8.8 8.8 0 0 1 4 3.3 16.2 16.2 0 0 1 2.4 6q1.2 6-.8 9.5a9.4 9.4 0 0 1-6.3 4.6l-1.6-6.3a5.5 5.5 0 0 0 3.1-2.5 6.5 6.5 0 0 0 .3-4.3 7.5 7.5 0 0 0-2-4 2.3 2.3 0 0 0-2.3-.7 2.5 2.5 0 0 0-1.7 1.3q-.8 1.4-1 6.3a31.2 31.2 0 0 1-.8 7.4 9.1 9.1 0 0 1-2.5 4.1 9.5 9.5 0 0 1-4.8 2.3 9.4 9.4 0 0 1-5.3-.5 9.2 9.2 0 0 1-4.4-3.5 18.3 18.3 0 0 1-2.6-6.6q-1.2-6 .9-9.8t7.3-5.5ZM419.6 247.8l26.8-1-.4-9.6 5.4-.2 1 25.6-5.4.2-.4-9.5-26.8 1Z"/><path fill="#dbd7e7" d="m121.4 380.2 2.8-2.6 6.8 7.2-6.7 6.3a12.7 12.7 0 0 1-4.6-1.4 15.3 15.3 0 0 1-4.6-3.3 12.6 12.6 0 0 1-3.2-5.6 9.6 9.6 0 0 1 .4-6 14 14 0 0 1 3.5-5 13.2 13.2 0 0 1 5.7-3.3 10.1 10.1 0 0 1 6 .2 11.8 11.8 0 0 1 4.7 3.3 11 11 0 0 1 3.2 6 8.1 8.1 0 0 1-1.5 5.7l-3.7-2.8a4.8 4.8 0 0 0 .7-3.1 5.5 5.5 0 0 0-1.6-3.1 6.3 6.3 0 0 0-4.7-2.2q-2.6 0-5.4 2.6c-2 1.8-3 3.7-3.2 5.5a6 6 0 0 0 1.7 4.8 8 8 0 0 0 2.5 1.8 10 10 0 0 0 2.7.9l2-2ZM133 388.1a14.7 14.7 0 0 1 4.6-4 10.7 10.7 0 0 1 3.6-1 9 9 0 0 1 3.6.2 12.7 12.7 0 0 1 4.4 2.4 10.7 10.7 0 0 1 4.3 7.6q.4 4.3-3 8.7t-7.9 4.8a12 12 0 0 1-12.6-10.1q-.4-4.3 3-8.6Zm3.9 2.9c-1.7 2-2.4 3.9-2.3 5.7a5.9 5.9 0 0 0 2.3 4.4 5.8 5.8 0 0 0 4.7 1.3c1.8-.3 3.5-1.4 5.2-3.5s2.4-4 2.3-5.7a6.4 6.4 0 0 0-7.2-5.7q-2.5.4-5 3.5ZM153 403.9a14.6 14.6 0 0 1 3.9-4.5 10.8 10.8 0 0 1 3.4-1.6 8.7 8.7 0 0 1 3.6-.3 12.7 12.7 0 0 1 4.7 1.8 10.8 10.8 0 0 1 5.3 6.8q1 4.3-1.9 9.1t-7 5.9a10.7 10.7 0 0 1-8.5-1.5 10.8 10.8 0 0 1-5.4-6.8q-1-4.3 1.8-9Zm4.1 2.3a8.5 8.5 0 0 0-1.5 6 6.2 6.2 0 0 0 7.8 4.7q2.6-.8 4.6-4.2t1.5-6a5.8 5.8 0 0 0-2.9-4 5.9 5.9 0 0 0-5-.7c-1.6.5-3.1 2-4.5 4.2ZM184.4 424l1.5-3.6 9.1 3.8-3.5 8.4a12.4 12.4 0 0 1-4.8.7 15.4 15.4 0 0 1-5.6-1.2 12.6 12.6 0 0 1-5.2-3.9 9.6 9.6 0 0 1-2-5.5 13.9 13.9 0 0 1 1.1-6.1 13.3 13.3 0 0 1 3.9-5.3 10.2 10.2 0 0 1 5.7-2.2 11.8 11.8 0 0 1 5.5 1 11 11 0 0 1 5.4 4.3 8.1 8.1 0 0 1 1 5.8l-4.6-1a4.8 4.8 0 0 0-.6-3.2 5.5 5.5 0 0 0-2.7-2.2 6.2 6.2 0 0 0-5.2 0q-2.4 1-3.9 4.5c-1 2.5-1.3 4.6-.7 6.3a6 6 0 0 0 3.6 3.7 8 8 0 0 0 2.9.6 10.2 10.2 0 0 0 2.8-.2l1.2-2.7ZM196.2 437.4l6.2-21.8 4.5 1.2-5.2 18.2 11.1 3.1-1 3.7ZM216.7 442.9l3.6-22.6 16.8 2.7-.6 3.8-12.2-2-.8 5 11.3 1.9-.6 3.8-11.4-1.9-1 6.2 12.7 2-.6 3.8ZM263.8 438.2l4.4 1.3a10 10 0 0 1-3.3 5.7 10.8 10.8 0 0 1-13.6-1.1c-2-2-3-4.9-3-8.5q-.2-5.7 2.7-9a10.1 10.1 0 0 1 7.8-3.2 9.5 9.5 0 0 1 6.8 2.4 9.1 9.1 0 0 1 2.4 4.1l-4.5 1.2a4.8 4.8 0 0 0-5-3.8 5.2 5.2 0 0 0-4 2c-1 1.2-1.5 3.2-1.5 5.9 0 2.9.6 5 1.7 6.1a5.1 5.1 0 0 0 4 1.8 4.6 4.6 0 0 0 3.2-1.2 6.8 6.8 0 0 0 1.9-3.7ZM274 446l-3-22.6 16.8-2.3.5 3.8-12.3 1.7.7 5L288 430l.5 3.8-11.4 1.6.8 6.2 12.7-1.8.5 3.9ZM297 442.6l-5.9-22.2 9.4-2.4a16.7 16.7 0 0 1 5.3-.8 5.3 5.3 0 0 1 3.2 1.4 6.5 6.5 0 0 1 1.9 3.2 6 6 0 0 1-.4 4.5 7.2 7.2 0 0 1-3.8 3.3 11 11 0 0 1 2.9 1.2 26.3 26.3 0 0 1 3.4 2.9l4 3.6-5.4 1.4-4.6-4a31.9 31.9 0 0 0-3.2-2.6 3.5 3.5 0 0 0-1.6-.5 7.4 7.4 0 0 0-2.3.3l-1 .2 2.5 9.3Zm1-14 3.4-.9a17.4 17.4 0 0 0 4-1.3 2.5 2.5 0 0 0 1-1.3 3 3 0 0 0 0-1.8 2.7 2.7 0 0 0-1.1-1.6 2.8 2.8 0 0 0-2-.4 33.6 33.6 0 0 0-3.2.7l-3.5 1ZM325.6 433.8l-7-17.7-6.3 2.5-1.5-3.5 17-6.8 1.4 3.6-6.3 2.5 7 17.7ZM339.8 427.7 329.7 407l4.1-2 10.2 20.5ZM349 423l-11.7-19.6 13.4-8 2 3.3-9.5 5.7 2.8 4.6 8.2-5 2 3.4-8.2 5 5 8.3ZM366.5 412.1l-13.3-18.6 3.8-2.7 13.3 18.6ZM374.9 406.1 360 388.7l12.9-11 2.5 3-9.4 8 3.3 3.8 8.7-7.5 2.5 3-8.7 7.4 4 4.8 9.7-8.3 2.5 3ZM375.4 375.4l5.8-6.3a16.7 16.7 0 0 1 3.2-2.9 7.8 7.8 0 0 1 4-1.1 10 10 0 0 1 4.1.9 17 17 0 0 1 4.5 3.1 15.2 15.2 0 0 1 3.1 3.8 10 10 0 0 1 1.4 4.6 8.2 8.2 0 0 1-.9 3.6 14.2 14.2 0 0 1-2.4 3.3l-5.9 6.5Zm6-.8 11.2 10.2 2.4-2.5a12.8 12.8 0 0 0 1.7-2.2 4.2 4.2 0 0 0 .6-2 4.8 4.8 0 0 0-.9-2.4 15 15 0 0 0-2.7-3.2 14 14 0 0 0-3.3-2.4 5.2 5.2 0 0 0-2.6-.5 4.4 4.4 0 0 0-2.2.8 21.4 21.4 0 0 0-2.7 2.7Z"/><circle cx="79.4" cy="288.9" r="6.4" fill="#d1d7de"/><circle cx="86.6" cy="319.4" r="6.4" fill="#d1d7de"/><circle cx="100.7" cy="346.9" r="6.4" fill="#d1d7de"/><circle cx="431.5" cy="288.9" r="6.4" fill="#d1d7de"/><circle cx="424.3" cy="319.4" r="6.4" fill="#d1d7de"/><circle cx="410.2" cy="346.9" r="6.4" fill="#d1d7de"/><circle cx="256.4" cy="255.5" r="127.1" fill="#66c6e5"/><path fill="#1ab9da" d="M383 265.3 311.3 163 201.8 346.8l34 34.1a127.2 127.2 0 0 0 147.3-115.6Z"/><rect width="115.5" height="190.9" x="199" y="160.7" fill="#636260" rx="11.1"/><rect width="18.4" height="4.1" x="247.9" y="339.8" fill="#fff" rx="1.1"/><path fill="#b1afb2" d="M208.6 171.1h96.9v23.4h-96.9z"/><rect width="58.3" height="10.6" x="241" y="177.3" fill="#eceeea" rx=".6"/><circle cx="231.4" cy="182.5" r="4.5" fill="#eceeea"/><circle cx="219.5" cy="182.5" r="4.5" fill="#eceeea"/><path fill="#fff" d="M208.6 194.5h96.9v138.8h-96.9z"/><path fill="#b1afb2" d="M208.6 315.4h96.9v9.5h-96.9z"/><path fill="#0cb9e1" d="m257.1 218.2 9.4 7.6 12.2-.6 3.2 11.7 10.1 6.7-4.2 11.4 4.2 11.4-10.1 6.7-3.2 11.7-12.2-.6-9.4 7.6-9.5-7.6-12.2.6-3.2-11.7-10.1-6.7 4.2-11.4-4.2-11.4 10.1-6.7 3.2-11.7 12.2.6 9.5-7.6z"/><path fill="#fff" d="m258.3 241.7 3 6.5a1.4 1.4 0 0 0 1 .8l7.1.8a1.4 1.4 0 0 1 .8 2.4L265 257a1.4 1.4 0 0 0-.4 1.3l1.5 7a1.4 1.4 0 0 1-2 1.4l-6.3-3.5a1.3 1.3 0 0 0-1.3 0l-6.2 3.5a1.4 1.4 0 0 1-2-1.4l1.4-7a1.4 1.4 0 0 0-.4-1.3l-5.3-4.8a1.4 1.4 0 0 1 .8-2.4l7.1-.8a1.4 1.4 0 0 0 1-.8l3-6.5a1.4 1.4 0 0 1 2.5 0Z"/><path fill="#fff" d="M257 230a24.8 24.8 0 1 0 24.8 24.7 24.8 24.8 0 0 0-24.7-24.8Zm0 43.8a19 19 0 1 1 19.1-19.1 19 19 0 0 1-19 19Z"/></svg>