<svg xmlns="http://www.w3.org/2000/svg" viewBox="0 0 350 425"><defs/><path fill="#fff" d="M0 0v425h350V0zm326.5 334.4H23V30.9h303.5z"/><path d="M98.7 377.5l.1-.9a1 1 0 00-.2-.7l.2-.9a2.5 2.5 0 000-.8 3.9 3.9 0 011-1.6 7 7 0 011.4-1 10.8 10.8 0 011.6-.8l1.6-.5-.1-.1c-.1 0-.1 0 0-.2a27.4 27.4 0 003.7-1c1.3-.5 2.6-.9 4-1.2a21.5 21.5 0 014-.7 13.1 13.1 0 014.5.6 3.4 3.4 0 00.4.8l.5.8.5.7a1.9 1.9 0 01.2.7 3.7 3.7 0 01.7.8 1.5 1.5 0 010 1.2l-.7.6-1 .5a10.3 10.3 0 00-3-.3c-1.1 0-2 .2-3 .3a1.1 1.1 0 00-.8-.4 5 5 0 00-1.1.1l-1.2.4a2.8 2.8 0 01-1 0 2.1 2.1 0 01-1 .5 12.9 12.9 0 01-1.4.2.2.2 0 00.1.3v.2a1.3 1.3 0 00.7.5l.8.2a3 3 0 01.8.3.9.9 0 01.5.6 2.3 2.3 0 011 .4 3.1 3.1 0 01.8.7 2.8 2.8 0 01.5.9 2.5 2.5 0 01.1.8c.1.3.2.4.3.3s.2 0 .4.2a3 3 0 00.6 1.1 4.4 4.4 0 01.8 1.3l.1 1.9a3.7 3.7 0 01-.3 1.6 8.8 8.8 0 01-1.7 2.8 13.3 13.3 0 01-2.5 2.1 20.2 20.2 0 01-3 1.7 29.7 29.7 0 01-3.2 1.1 1 1 0 00-.3 0q-.2 0 0-.2a1.4 1.4 0 01-.8.3 4.1 4.1 0 01-.9 0h-1a4.8 4.8 0 00-1 0 5.3 5.3 0 01-.4-.5 2.3 2.3 0 01-.4-.7.2.2 0 01-.1-.2c0-.1 0-.2-.2-.2a.6.6 0 010-.2v-.2l.2-.1a.2.2 0 00-.1-.1l-.2-.2a.1.1 0 010-.1 1.2 1.2 0 00.1-.8v-.9a2.5 2.5 0 010-.8 1.1 1.1 0 01.6-.7 8.8 8.8 0 002.7-.2 13.4 13.4 0 002.5-.7 21 21 0 002.1-1.1l2-1a1.6 1.6 0 01.4-.7l.5-.5a4.2 4.2 0 00.4-.4 1.9 1.9 0 00.3-.7.4.4 0 000-.2.6.6 0 000-.1.8.8 0 01-.2-.2.3.3 0 010-.2h-.3a.3.3 0 00-.1 0 13.3 13.3 0 00-2-.8 9.9 9.9 0 01-1.7-.7 1 1 0 01-.8.1 13 13 0 00-1-.3 23.9 23.9 0 01-2.8-.2 10.7 10.7 0 01-2.6-.8 1.4 1.4 0 00-.2-.3c0-.1-.2-.2-.4-.1l-.6-.7a3.5 3.5 0 01-.4-.7zM138.8 382.8a2.4 2.4 0 000 .8 6.8 6.8 0 00.3.8l.3.7a3.9 3.9 0 01.2.8 3.9 3.9 0 010 1 5.3 5.3 0 01-.2 1.2 4.3 4.3 0 01-.5 1 1.9 1.9 0 01-.7.7 3.4 3.4 0 01-1.2 1 7.6 7.6 0 00-1.3.8 2.6 2.6 0 01-.8.4l-1 .2-1 .4-1 .4a6.9 6.9 0 01-1.2.3 3.8 3.8 0 01-1 0 9.1 9.1 0 01-2 .6 7.2 7.2 0 01-2.4-.2 5.9 5.9 0 01-2.3 0 5.5 5.5 0 01-1.9-1 6.5 6.5 0 01-1.4-1.5 9.2 9.2 0 01-1-1.8 9.3 9.3 0 01.1-3.6 12.3 12.3 0 011.2-3 15.5 15.5 0 011.8-2.6l2-2.3a.4.4 0 00.4 0 1 1 0 00.2-.2 2.2 2.2 0 01.2-.3.5.5 0 01.3-.2 1.7 1.7 0 01.7-.8 2 2 0 00.8-.8 1.7 1.7 0 00.5-.2 4 4 0 00.4-.3 4.2 4.2 0 01.4-.3 1.3 1.3 0 01.5-.2v-.4a2.5 2.5 0 001-.7l.7-.9a3.6 3.6 0 01.5 0 3.3 3.3 0 00.6 0 4.6 4.6 0 01.5-.8 3.4 3.4 0 01.7-.5 3 3 0 00.9.3 1.4 1.4 0 01.9.4 1 1 0 00.2.6 2.5 2.5 0 00.4.3l.4.4a1 1 0 01.3.5h.1s.1-.1.2 0a1.7 1.7 0 00.3.6 1.6 1.6 0 01.3.6 3.6 3.6 0 00-.3.7.8.8 0 01-.4.6l.1.3a.2.2 0 01.2.1.5.5 0 010 .5 24 24 0 011.4 3 22.7 22.7 0 001.6 2.6zm-4.4 3.4a1.6 1.6 0 01.3-.7 1.2 1.2 0 00.3-.7 1.4 1.4 0 01-.2-.5 2.2 2.2 0 010-.5 14.1 14.1 0 01-1.4-2.3 18.6 18.6 0 00-1.2-2.3 1 1 0 01-.3.3l-.4-.1a.7.7 0 01-.2.4.6.6 0 01-.4 0 1.9 1.9 0 01-.4 0 1.4 1.4 0 01-.4-.2l-2 1.5a10.4 10.4 0 00-1.9 1.8h-.1a.4.4 0 00-.2 0 5.7 5.7 0 01-.7 1.3l-.8 1.1a7.8 7.8 0 00-.7 1.2 4 4 0 00-.3 1.5 2.7 2.7 0 001.4.6 8.4 8.4 0 001.7 0l1.7-.3a7.8 7.8 0 011.5-.1 9.8 9.8 0 002.5-1l2.2-1zM147.3 390a1 1 0 00-.5.8l-.1.9a1.6 1.6 0 01-.4.7 1.1 1.1 0 01-1 .2v.2l.2.4a1 1 0 00-.7 0 1.7 1.7 0 01-.6.2 2.8 2.8 0 01-1.3-.9 8.2 8.2 0 01-1-1.4 14.6 14.6 0 01-.7-1.6 10.6 10.6 0 00-.6-1.4s0-.1.1 0h.3a3 3 0 01-.3-.9 1.6 1.6 0 00-.3-.7l2.2-4.6 2.3-4.8 2.4-4.9 2.2-4.9a17 17 0 012 .9 8.7 8.7 0 011.7 1 6.7 6.7 0 011.3 1.5 5 5 0 01.7 2s-.1.1-.2 0-.1 0-.2.1a1 1 0 01.2.3.3.3 0 010 .2.8.8 0 000 .2.8.8 0 00.2.4.2.2 0 00-.2 0h-.3a1.4 1.4 0 01.1.8 2 2 0 01-.2.5 2.2 2.2 0 00-.2.5 1.2 1.2 0 000 .8.2.2 0 00-.2 0 .3.3 0 000 .1.3.3 0 01-.1.2h-.2a12.5 12.5 0 010 1.8v3.9a10.7 10.7 0 00.3 2.1 7.3 7.3 0 002.4-2.3 12.2 12.2 0 001.5-3.1 24.4 24.4 0 00.8-3.7l.6-4a2.8 2.8 0 00.6-1 9.9 9.9 0 00.4-1.2l.4-1.2a4 4 0 01.4-1 2.3 2.3 0 011 .3 5.8 5.8 0 01.9.6 8.7 8.7 0 00.8.7 2.4 2.4 0 001 .5l1 1.3a3.9 3.9 0 01.5 1.5 3 3 0 00-.3.7l-.2.9a3.1 3.1 0 01-.3.8 1.8 1.8 0 01-.6.6 15.9 15.9 0 01-.4 2 85 85 0 00-.7 3.6 11.5 11.5 0 000 2l-.8 2.1a12 12 0 00-.5 2 4 4 0 00-1 1.3l-.9 1.6c-.1 0-.2.1-.2 0h-.3c0 .1 0 .3-.2.3s0 .3 0 .5a3.8 3.8 0 00-1 .8 7.6 7.6 0 01-1 .8 3.2 3.2 0 01-1.3.5 3.9 3.9 0 01-1.8-.3 17.9 17.9 0 01-3.1-2.9 13 13 0 01-2.2-3.9.8.8 0 00-.5.5 6.9 6.9 0 00-.4.7l-.2.7a.5.5 0 01-.5.3 1.5 1.5 0 01-.2.6l-.4.5a2.3 2.3 0 00-.3.6 1 1 0 000 .8zM174 393.5a7 7 0 01-2.8-.1 7.1 7.1 0 01-2.3-1.1 7.6 7.6 0 01-1.7-1.8 10.7 10.7 0 01-1.2-2.2 11.5 11.5 0 01.2-4.3 14.3 14.3 0 011.4-3.6 20.4 20.4 0 012.2-3.1l2.3-2.8a.4.4 0 00.4 0 1 1 0 00.3-.3l.3-.3a.7.7 0 01.4-.2 1.5 1.5 0 01.3-.6l.5-.4.5-.4a2 2 0 00.4-.5 2 2 0 00.7-.3 4.7 4.7 0 00.4-.3 4.5 4.5 0 01.5-.4 2.2 2.2 0 01.6-.3v-.5a3.1 3.1 0 001.1-.8l.9-1h.6l.7-.1a3.5 3.5 0 01.6-1 5.2 5.2 0 01.8-.5 3 3 0 001.2.3 1.7 1.7 0 011 .5 1 1 0 00.3.7 3.6 3.6 0 00.4.4l.5.4a1 1 0 01.4.6.3.3 0 00.2 0c0-.1 0-.1.2 0a2.5 2.5 0 00.2.4 1.3 1.3 0 00.1.3l.2.3a2.9 2.9 0 01.1.5 9.4 9.4 0 00-.3.9 1 1 0 01-.5.6q0 .3.2.3c.1 0 .2.1.2.3a.8.8 0 010 .5 33.3 33.3 0 011.7 3.5 28.6 28.6 0 001.8 3.4 2.4 2.4 0 000 1 6 6 0 00.4 1l.4.9a4.4 4.4 0 01.2.9 5.6 5.6 0 010 1.3 6.4 6.4 0 01-.3 1.3 4.8 4.8 0 01-.5 1.2 2.7 2.7 0 01-.8.8 4.4 4.4 0 01-1.4 1.1 8.2 8.2 0 00-1.6 1 4 4 0 01-1 .4l-1.2.3a10 10 0 01-1 .5l-1.3.5a9.4 9.4 0 01-1.4.4 3.8 3.8 0 01-1.2 0 12 12 0 01-2.4.6 8 8 0 01-2.9-.2zm.5-12.8a7.1 7.1 0 01-.9 1.5l-.9 1.3a8.9 8.9 0 00-.8 1.4 4.8 4.8 0 00-.4 1.8 3.1 3.1 0 001.7.7 9.4 9.4 0 002 0 20.3 20.3 0 002-.3 10.6 10.6 0 011.8-.1c0-.2.1-.3.3-.3a7.2 7.2 0 002.8-.9l2.6-1.4a2.5 2.5 0 01.5-.7 1.4 1.4 0 00.3-1 2.4 2.4 0 01-.3-.4 2.5 2.5 0 010-.7 14.9 14.9 0 01-1.6-2.7 20.8 20.8 0 00-1.5-2.9.9.9 0 01-.3.4h-.5a.8.8 0 01-.3.4 1 1 0 01-.5.1 1.4 1.4 0 01-.5 0 1.7 1.7 0 01-.5-.4 96 96 0 01-2.4 2 12.4 12.4 0 00-2.2 2l-.2.2h-.2zM213.1 391a2.8 2.8 0 01-.1 1.6 2 2 0 01-.9.9 3 3 0 01-1.2.3 6.4 6.4 0 01-1.3 0 5.4 5.4 0 01-.7-1.3l-.5-1.5-.4-1.6-.4-1.4a3 3 0 00.3-1v-1-1.2l.1-1.1a17.8 17.8 0 01.7-2.9 19.3 19.3 0 00.8-2.7 1 1 0 000-.6.8.8 0 01-.1-.6.3.3 0 01.2-.1.3.3 0 00.2-.3 1.4 1.4 0 000-.6.9.9 0 01.1-.6 6.9 6.9 0 00.5-.8 2 2 0 00.2-1.2 3.4 3.4 0 00.5-.5 5.4 5.4 0 01.6-.5 3.4 3.4 0 01.7-.4 2 2 0 01.9-.2 1.8 1.8 0 01.4.8l.1.9a3.5 3.5 0 00.3.7 1.2 1.2 0 00.6.6v1.6a2.5 2.5 0 00.2.7.7.7 0 00.4.4l-1.2 3.4a30.8 30.8 0 00-1 3.3 21.2 21.2 0 00-.3 3.4 14.6 14.6 0 00.3 3.4zM225 394a5.6 5.6 0 01-2.5-.1 5.4 5.4 0 01-2-1.2 8.1 8.1 0 01-1.6-1.8 10.6 10.6 0 01-1-2.2 13.7 13.7 0 010-4.6 17 17 0 011.4-3.7 23.8 23.8 0 012-3.3l2-2.8a.3.3 0 00.4 0 2.6 2.6 0 00.3-.3l.2-.4a.8.8 0 01.4-.2 2 2 0 01.3-.6l.5-.4.4-.4a1.6 1.6 0 00.3-.6 1.4 1.4 0 00.6-.2 4.5 4.5 0 00.5-.4l.4-.4a1.6 1.6 0 01.5-.3v-.5a3 3 0 001-.8l.8-1.1a2.5 2.5 0 01.6 0 3 3 0 00.6-.1 5.9 5.9 0 01.5-1 4.3 4.3 0 01.8-.6 2.6 2.6 0 001 .3 1.6 1.6 0 011 .6 1.4 1.4 0 00.2.7 3 3 0 00.4.4 3.7 3.7 0 01.5.4 1.2 1.2 0 01.2.6.2.2 0 00.2 0h.2a3.5 3.5 0 00.2.5l.1.3.2.3a2 2 0 01.1.5 5.8 5.8 0 00-.3.9 1 1 0 01-.5.6c0 .2 0 .3.2.4a.3.3 0 01.2.2 1.2 1.2 0 010 .6 32 32 0 011.6 3.6 30.6 30.6 0 001.6 3.6 2.6 2.6 0 000 1l.3 1 .3.9a4.4 4.4 0 01.3 1 6.8 6.8 0 010 1.3 6.2 6.2 0 01-.3 1.4 4.8 4.8 0 01-.5 1.2 2.4 2.4 0 01-.7.9l-.4.2-.7.5-.9.8-.7.8a2.8 2.8 0 01-1 .4l-1 .2a11 11 0 01-1 .6 8.4 8.4 0 01-1.1.5 12.3 12.3 0 01-1.2.4 3 3 0 01-1 0 9.3 9.3 0 01-2.3.7 7 7 0 01-2.5-.3zm.8-13.3a8.4 8.4 0 01-.6 1.5l-.8 1.4a9.4 9.4 0 00-.6 1.5 6.3 6.3 0 00-.3 1.8 2.4 2.4 0 001.3.8 5.5 5.5 0 001.7 0l1.6-.3a8.6 8.6 0 011.5-.2c0-.2 0-.3.2-.3a4.8 4.8 0 002.2-.9l2.2-1.5a2.8 2.8 0 01.3-.7 1.5 1.5 0 00.3-1 3.9 3.9 0 01-.2-.5 3.3 3.3 0 010-.7 18.7 18.7 0 01-1.3-2.9 22 22 0 00-1.2-2.9 1 1 0 01-.3.4l-.4-.1c0 .5-.3.7-.6.6a1.5 1.5 0 01-.8-.4l-2 2a11.2 11.2 0 00-1.8 2.2c0 .1-.1.1-.1 0l-.3.2zM248.1 389.2l.1.5.1.5a12.8 12.8 0 01-.5 1.4l-.1.3a.4.4 0 000 .1.8.8 0 010 .4l-.2.4a1.4 1.4 0 01-.4.4 3.7 3.7 0 01-.5.2 1.7 1.7 0 01-.2.2 1 1 0 00-.2 0v.5h-.6a4.4 4.4 0 01-1 .2h-.4l-.6-.6a3.6 3.6 0 00-.6-.4 3.3 3.3 0 01-.4-1.1 1.6 1.6 0 00-.2-.6l-.5-.5.4-.3-.4-.7.6-.5a1.9 1.9 0 00.4-.3 3 3 0 00.3-.4l.6-.8.3-.4.4.2a2.1 2.1 0 00.7.2l.8.2a6.8 6.8 0 001.1.2 1.8 1.8 0 01.9.4zm3.5-20a4 4 0 010 .8l-.2.9a3.4 3.4 0 000 .8.5.5 0 00.3.5 22.2 22.2 0 00-.9 3.1 41.3 41.3 0 00-.8 4.8 24.6 24.6 0 01-.9 3.1 3.3 3.3 0 01-1 1.6 2 2 0 01-1.2.4 2.9 2.9 0 01-1.3-.3 9.5 9.5 0 01-1.2-.8 6.7 6.7 0 010-1.6 53.5 53.5 0 01.7-5.7 3.5 3.5 0 00.5-.6 1.9 1.9 0 00.2-.5l.1-.7.2-1.2a1.2 1.2 0 00-.1-.8.9.9 0 010-.6.4.4 0 01.2-.2.3.3 0 00.2-.2 1.4 1.4 0 000-.8 1 1 0 01.1-.6 7.6 7.6 0 00.5-.9 2.6 2.6 0 00.2-1.3 4.5 4.5 0 00.6-.5 6.3 6.3 0 01.6-.6 2.7 2.7 0 01.6-.5 2 2 0 011-.1 3.3 3.3 0 01.3.7l.3.7a2.5 2.5 0 00.3.6 1.7 1.7 0 00.7.5z"/><path fill="#f0f0f0" d="M23 30.9v303.5h303.5V30.9zm303 302.9H23.5V31.4h302.3z"/></svg>