<svg xmlns="http://www.w3.org/2000/svg" viewBox="0 0 350 425"><path fill="#fff" d="M0 0v425h350V0zm326.5 334.4H23V30.9h303.5z"/><path d="M98.8 393.8a2.5 2.5 0 01-.7-.8 5.6 5.6 0 01-.5-1 8.9 8.9 0 01-.4-1.2l-.2-1.2a1 1 0 01.2-.8 4.8 4.8 0 01.5-.4 12.8 12.8 0 001.5-.1l1.3-.2 1.2-.2a9.8 9.8 0 011.4-.1l1-2.1.9-2a9.4 9.4 0 01.5-1.6l.7-1.4.5-1.4a6.1 6.1 0 00.3-1.4l.8-2.3a14.2 14.2 0 00.5-2.5l-2.1.4a5.9 5.9 0 00-1.2.4 2.3 2.3 0 01-1-.3 2.1 2.1 0 01-.7-.6 3.8 3.8 0 01-.5-.8c0-.3-.2-.6-.4-1a1.9 1.9 0 000-.9 1.3 1.3 0 00-.3-.9.7.7 0 00.4-.4.8.8 0 000-.7 5.7 5.7 0 011.2-.2l1.4-.1 1.2-.1a2.4 2.4 0 001-.4l3.8-.1 3.7-.2a4.6 4.6 0 001.5.2 13 13 0 011.6 0 4.2 4.2 0 011.5.6 1.8 1.8 0 01.9 1.2 1.6 1.6 0 01.8.3 1 1 0 01.3.5 2.8 2.8 0 010 .6v.8a4.7 4.7 0 01-1.4.7 15.4 15.4 0 01-1.8.4l-2.2.2H114a22.3 22.3 0 01-.6 2.8l-1 3-.7 2.7a5.3 5.3 0 00-.3 1.6l-.6 1.3-.4 1-.4 1-.5 1.2h2.4a.7.7 0 00.3.5 2.9 2.9 0 00.5.2 3 3 0 01.6.3.6.6 0 01.2.5 1.3 1.3 0 01.8.5 1.2 1.2 0 01.1.8 2.9 2.9 0 01-.3.8l-.5.7a.7.7 0 00-.6.2 3.6 3.6 0 00-.6.5 8 8 0 00-2 0l-1.8.2c-.1 0-.2 0-.1.2a.2.2 0 01-.1.2 6 6 0 00-2.2-.3 16 16 0 00-2.4.4l-2.4.5a12.4 12.4 0 01-2.5.3z"/><path d="M117.6 373.5a2.4 2.4 0 00-.1-.5l-.2-.5a7.5 7.5 0 01-.3-.9 4 4 0 01-.2-1.2 1.3 1.3 0 01.2-.5 1.6 1.6 0 01.2-.2l.1-.7h.6a5.5 5.5 0 00.5 0H121.7l3-.3 3.4-.3.2-.5.2-.3.3-.2a1.9 1.9 0 011.2.2 2.7 2.7 0 01.5.5l1.8-.2 2-.3 2.9-.3a22.6 22.6 0 012.8-.2h2.1l.4.4a2 2 0 00.4.5 5.3 5.3 0 00.5.4 6.6 6.6 0 011 1 2.5 2.5 0 01.3 1.9l-.1.3a1.7 1.7 0 01-.4.3l-.3.5h-.4a2.1 2.1 0 00-.6 0l-.4.2a1.3 1.3 0 01-.3.1l-.4.2a5.4 5.4 0 00-.6 0h-.5a21 21 0 00-2.2 0l-2.4.4-1.7.2-1.4.2-.6 1.6a42 42 0 01-1.2 2.8l-.5 1.6a10.5 10.5 0 00-.7 1.2 6.6 6.6 0 00-.5 1.3 3.7 3.7 0 00-.7 1.3l-.4 1.2-.2.6a1.1 1.1 0 00-.3.3 1.1 1.1 0 01-.2.4 5 5 0 01-.3.8l-.1.4a.4.4 0 000 .3 1.7 1.7 0 01-.2.6 3 3 0 010 .4v.5a3.3 3.3 0 00-.2.4.6.6 0 000 .4l.2.2a1.4 1.4 0 01.2.4.3.3 0 00.2.1.4.4 0 01.2.1 1.1 1.1 0 00.5.3l.3.4a2.3 2.3 0 01-.3 2 2.5 2.5 0 01-2.2.8h-.4a1.7 1.7 0 01-.3-.3l-.6-.2a1 1 0 01-.3-.4.4.4 0 00-.2 0 .4.4 0 01-.2-.2 2.3 2.3 0 01-.6-.3l-.4-.2a4.3 4.3 0 000-.4 3 3 0 01-.4-.9 7 7 0 01-.2-1l-.3-.7a1.7 1.7 0 00-.1-.5 12.3 12.3 0 01.5-4.1 40.2 40.2 0 011.8-5l.5-1.8.4-.4a2 2 0 01.3-.2 2.5 2.5 0 01.2-1l.4-.8.3-.6a2 2 0 00.1-.5h-.8a4 4 0 01-.9.2 2.3 2.3 0 01-.5 0 1.4 1.4 0 01-.5.1h-1.3a1.8 1.8 0 00-.7.1H120a5 5 0 01-.6 0 2.2 2.2 0 01-.8-.3l-.2-.3-.4-.4h-.4z"/><path d="M151.3 372l-.2.2a.3.3 0 00-.2.2l-.2.5-.1.2a3.3 3.3 0 00-.2.4 6.6 6.6 0 01-.7 1 2.7 2.7 0 00-.4 1l-1.2 1a4.7 4.7 0 01-1.4 1l-1-.5a8.6 8.6 0 01-1.3-.7 3.5 3.5 0 01-1-.8.6.6 0 01.1-1 7 7 0 001.2-1.5 17.4 17.4 0 00.8-2 20.2 20.2 0 00.6-2.2l.5-2.2a.3.3 0 00.3 0 .7.7 0 00.3-.1l.2-.3.2-.3a4.6 4.6 0 00.7.4l1.1.5 1 .4a6.9 6.9 0 00.8.2 2.7 2.7 0 01.4 1.2 7 7 0 00.2 1.2.8.8 0 00-.2.5 5 5 0 01-.1.6l-.1.4-.2.3a.3.3 0 000 .2.3.3 0 010 .2zM150.6 377.5l.2-.9a1.1 1.1 0 00-.3-.7l.2-.9a2.2 2.2 0 000-.8 3.8 3.8 0 011-1.6 7 7 0 011.5-1 10.8 10.8 0 011.6-.8l1.6-.5-.2-.1c-.2 0 0 0 0-.2a27.4 27.4 0 003.8-1c1.2-.5 2.6-.9 3.9-1.2a21.5 21.5 0 014.1-.7 13.2 13.2 0 014.4.6 3.7 3.7 0 00.4.8l.5.8.5.7a1.9 1.9 0 01.3.7 3.7 3.7 0 01.6.8 1.5 1.5 0 01.1 1.2l-.8.6-.9.5a10.3 10.3 0 00-3.1-.3c-1 0-2 .2-2.9.3a1.1 1.1 0 00-.9-.4 4.9 4.9 0 00-1 .1l-1.2.4a2.8 2.8 0 01-1 0 2.1 2.1 0 01-1 .5 13.3 13.3 0 01-1.4.2.2.2 0 000 .3c.1 0 .1.1 0 .2a1.3 1.3 0 00.7.5l.9.2a3 3 0 01.8.3 1 1 0 01.4.6 2.3 2.3 0 011.1.4 3.1 3.1 0 01.8.7 3 3 0 01.4.9 2.3 2.3 0 01.2.8c0 .3.1.4.2.3s.3 0 .4.2a3 3 0 00.7 1.1 4.4 4.4 0 01.8 1.3v1.9a3.7 3.7 0 01-.2 1.6 8.8 8.8 0 01-1.7 2.8 13.2 13.2 0 01-2.6 2.1 20.7 20.7 0 01-3 1.7 29.7 29.7 0 01-3.1 1.1 1 1 0 00-.3 0q-.2 0-.1-.2a1.4 1.4 0 01-.8.3 4.1 4.1 0 01-.8 0h-1a4.8 4.8 0 00-1 0 5.3 5.3 0 01-.5-.5 2.3 2.3 0 01-.3-.7.2.2 0 01-.2-.2c0-.1 0-.2-.2-.2a.6.6 0 010-.2l.1-.2.1-.1a.2.2 0 000-.1l-.2-.2a.1.1 0 010-.1 1.2 1.2 0 000-.8v-.9a2.8 2.8 0 010-.8 1.1 1.1 0 01.7-.7 8.8 8.8 0 002.7-.2 13.4 13.4 0 002.4-.7 21 21 0 002.2-1.1l2-1a1.5 1.5 0 01.3-.7l.5-.5a5.3 5.3 0 00.4-.4 1.9 1.9 0 00.4-.7.3.3 0 000-.2.3.3 0 00-.1-.1.8.8 0 01-.2-.2.3.3 0 010-.2h-.2a.4.4 0 00-.2 0 13.3 13.3 0 00-2-.8 9.9 9.9 0 01-1.7-.7 1 1 0 01-.8.1 13 13 0 00-1-.3 23.9 23.9 0 01-2.8-.2 10.8 10.8 0 01-2.5-.8 1.1 1.1 0 00-.2-.3c0-.1-.3-.2-.5-.1l-.5-.7a3.5 3.5 0 01-.5-.7zM187.4 393.9a9 9 0 01-1-.1 5.6 5.6 0 01-1-1.7 11.5 11.5 0 01-1-4.6 5.6 5.6 0 01.4-2l.4-.9.8-2 1.2-2.8 1.4-3c.4-1 .8-1.9 1.3-2.7a19.8 19.8 0 011-1.9l.6-1 .5-.8.7-1.2a6.1 6.1 0 01.8-1 5 5 0 01.9-.7 4.5 4.5 0 011.2-.6 5.7 5.7 0 01.7.4 2.3 2.3 0 01.6.4v.5a.5.5 0 00.3.4.5.5 0 00.3 0 7 7 0 01.8.3 2.7 2.7 0 00.7.1l.2.5a3.8 3.8 0 00.3.3 14.8 14.8 0 011.2 2 2.5 2.5 0 010 2.1v.4a.8.8 0 01.1.5 3.2 3.2 0 010 .6v.6a2 2 0 000 .7l.3.3a2.4 2.4 0 001 .3 2.5 2.5 0 001.3-.4l1-.6a6.5 6.5 0 01.8-.5 3 3 0 01.6-.2l1.4-1.2 1.3-1.2 2.4-2.1a8.5 8.5 0 002-3 1.6 1.6 0 01.8-.2 2.7 2.7 0 011 .2 10.7 10.7 0 011 .4 1.2 1.2 0 00.2.1l.2.1a1 1 0 00.3.7l.3.2h.1l.5.4a1 1 0 01.3.4 2.9 2.9 0 001 1.4 1.7 1.7 0 000 .8l.3.7a1.4 1.4 0 010 .3 2.3 2.3 0 00.2.3h-.8l.1.7a3.1 3.1 0 010 1.3 5.1 5.1 0 01-.5 1.2v1.7a8.1 8.1 0 010 1 5.4 5.4 0 01-.2 1 8.7 8.7 0 01-.4 1 12.9 12.9 0 01-.7 5l-1.6 4.1-.2.5a4 4 0 00-.2.4 5.2 5.2 0 00-.7.3 5.7 5.7 0 00-.6.3 5.2 5.2 0 01-.8.4 2 2 0 01-.8.1c-1.1-.8-1.7-2.2-1.7-4.2a27.3 27.3 0 011.3-7.7.6.6 0 00.2-.5v-.5h-.4a1.6 1.6 0 00-.3 0l-.2.3-2.4 1.7a30.7 30.7 0 01-2.8 1.6 19.7 19.7 0 01-2.8 1.2 9.3 9.3 0 01-2.9.4q-3.5 0-5.3-3.5l-.3-.7-.3.6-.4.7a12.5 12.5 0 00-.5 1.2 12.2 12.2 0 00-.5 1.3 3 3 0 00-.1 1.3 8.8 8.8 0 00-.8.8 3 3 0 00-.6 1.2.5.5 0 000 .3 1.5 1.5 0 000 .3.6.6 0 010 .4 1.8 1.8 0 01-.3.2l-.4.4a2.3 2.3 0 00-.3.4 2.2 2.2 0 000 .4l-.1.4a1 1 0 01-.2.6l-.6 1.2a4 4 0 01-.5.7 1.3 1.3 0 01-.5.3 2 2 0 01-.6.2zM221.3 392.2a1.6 1.6 0 01-.4-.7 1.2 1.2 0 00-.6-.6l-.2-1.2-.3-1.4a14.2 14.2 0 01-.1-1.5 5.7 5.7 0 010-1.3 2.3 2.3 0 01.2-.6l.4-.5a2.5 2.5 0 00.2-.6 1 1 0 000-.6.3.3 0 00.3-.2c0-.1.1-.2.3-.1l.5-1.4.6-1.4.7-1.2a11 11 0 00.6-1.5 3.4 3.4 0 01-.9-1.2 8 8 0 01-.4-1.3l-.2-1.4a7 7 0 00-.3-1.4 3.7 3.7 0 011-1 5.8 5.8 0 011.4-.6 8.9 8.9 0 011.5-.5l1.8-.3a41.3 41.3 0 018.2-1.7 47.7 47.7 0 003.3-.4h.3a.4.4 0 00.3.3.6.6 0 000-.2 1 1 0 010-.2.6.6 0 01.2 0h.2a.1.1 0 00.2 0v-.1a3.9 3.9 0 001.1 1.2 7.8 7.8 0 001.5.8 2.7 2.7 0 010 .5 2 2 0 010 .2.8.8 0 000 .3 1.7 1.7 0 000 .4 4.7 4.7 0 01-1.2 1.5 6 6 0 01-1.6.8 9.3 9.3 0 01-1.7.4l-1.8.3a15 15 0 00-1.9.5 8 8 0 00-1.8.8 1.3 1.3 0 00-.6 0 2.8 2.8 0 00-.4 0l-.6.2a1.7 1.7 0 01-.7 0 1.6 1.6 0 01-.6.3l-.8.2a1.7 1.7 0 01.2.8 1.7 1.7 0 000 .7 18.9 18.9 0 003.3 0l3.5-.3a.3.3 0 010 .3.3.3 0 000 .2 3.3 3.3 0 01.6.6l.5.6a3.4 3.4 0 00.7.5 1.2 1.2 0 00.7.1 2.7 2.7 0 01.2.8 1.5 1.5 0 010 .8l-1.4 1a12.4 12.4 0 01-1.4.8 9 9 0 01-1.6.6 6 6 0 01-1.8.2h-.3a.6.6 0 01-.3-.1 1.6 1.6 0 01-1 .1 2 2 0 00-1 .1 3.5 3.5 0 00-1-.2 3.3 3.3 0 01-1.2-.1q-.7.9-1.2 1.9a16 16 0 00-1 2.1 14 14 0 002.4.2c.6 0 1.2 0 1.8-.2l1.7-.2a16.3 16.3 0 012.2 0 6.7 6.7 0 012-.6 12.3 12.3 0 002.1-.5 1.4 1.4 0 01.6.4l.5.6a3 3 0 00.5.5.7.7 0 00.6.2.8.8 0 01.2.4l.1.4a.8.8 0 00.2.4.4.4 0 00.4 0 6.9 6.9 0 01-1.5 2.2 6.1 6.1 0 01-1.9 1.1 11 11 0 01-2.3.6l-2.9.5a1.3 1.3 0 01-.6 0 2 2 0 00-.6 0l-2.3.3a17.6 17.6 0 01-2.7.1 12 12 0 01-2.7-.4 4.6 4.6 0 01-2-1.1zM248 389.2a4.2 4.2 0 01.2.5v.5a10.8 10.8 0 01-.4 1.4 3.3 3.3 0 01-.1.3.3.3 0 000 .1.6.6 0 010 .4l-.2.4a1.4 1.4 0 01-.4.4 3.1 3.1 0 01-.5.2 1.2 1.2 0 01-.2.2 1 1 0 00-.2 0l-.1.5h-.5a4.4 4.4 0 01-1 .2h-.4l-.7-.6a3.5 3.5 0 00-.5-.4 3.4 3.4 0 01-.5-1.1 1.6 1.6 0 00-.2-.6l-.5-.5.5-.3-.5-.7.7-.5a1.6 1.6 0 00.3-.3 3 3 0 00.4-.4l.5-.8.4-.4.4.2a2.2 2.2 0 00.6.2l.9.2a6.8 6.8 0 001 .2 1.7 1.7 0 011 .4zm3.6-20a4 4 0 01-.1.8l-.2.9a3.4 3.4 0 000 .8.5.5 0 00.3.5 22.2 22.2 0 00-.8 3.1 70.2 70.2 0 00-.8 4.8 24.6 24.6 0 01-.9 3.1 3.3 3.3 0 01-1 1.6 2 2 0 01-1.1.4 2.9 2.9 0 01-1.3-.3 9.5 9.5 0 01-1.3-.8 6.8 6.8 0 010-1.6c0-.7.2-1.4.3-2l.2-2 .2-1.7a4 4 0 00.5-.6 1.6 1.6 0 00.2-.5 5 5 0 00.1-.7 10.6 10.6 0 01.2-1.2 1.3 1.3 0 00-.1-.8.9.9 0 010-.6.5.5 0 01.2-.2.3.3 0 00.2-.2 1.4 1.4 0 000-.8 1 1 0 01.1-.6 9.2 9.2 0 00.5-.9 2.6 2.6 0 00.2-1.3 4.5 4.5 0 00.6-.5 8 8 0 01.6-.6 2.8 2.8 0 01.6-.5 2 2 0 011-.1 3.3 3.3 0 01.3.7l.3.7a2.5 2.5 0 00.3.6 1.7 1.7 0 00.7.5z"/><path fill="#f0f0f0" d="M23 30.9v303.5h303.5V30.9zm303 302.9H23.5V31.4h302.3z"/></svg>