<svg xmlns="http://www.w3.org/2000/svg" viewBox="0 0 300.6 299.5"><path d="M102 299c-4 0-4-1-6-3 2 0-3 1-2-1-5-2-3-4-2-3 4 3-1-6 0-2 3 0 1-2-1-1v1l-1 1c-2 1-3-3-1-5-3 3-2-3-1-1 3 1 1-1 3-1 0 0 4 1 2 2-2-2 1 3-2 1 0-3-1 1-1 0 4 0-4 4 0 2 2-3 6 0 5-1-2 2 2-1 1 1 3-1 1 3 3 0 1 3 4 0 5 3-1-4 3 3 1-1-1-1 6-2 5-2l8-7 2-3c0 2 6-8 4-3 0-4 6 1 1-2l5-4c0 4 1-6 3-2 0 2 3 3 1 1 0-2 3-4 0-3l2-2c2-1 1-3 4-5 2-1 3-4 5-4 0-2 6-3 4-4 1-3 3-3 5-6 1-1 3-4 4-3-2 2-3 1 0 0 2 1 4-4 2-1-3 0 2-5 2-4l6-5c4-5 4-3 5-6l5-5c1 4 1 0 1 0 0-2 6-3 5-3 0-4-3 2-2-1 2-2 7-4 5-4 3 0 2 0 1-1 4-5 3-1 5-3-2 4 0 0 1 2l-1-3c2-3 3 0 1 1 3 3 0-5 2-2 5-2-1-2-1-2 0 2-1-1 2-2 1 1 5-3 4-3 0 1 3-3 1-2l2-3c3-1 1-2 4-2 1 3 0 0 0 0-1-3 5-2 2-1-2 0-1 2 2 3l-4 5-4 3c3-2-5 4-1 0 0-3-3 3-3 3 1 2-1 1-2 2s-1-1-2 1c-3 2 2 1 2 0-4 2 0 1-3 4-1 2-3-2-2-1l-1 4-5 4-3 5c-4 0-3 2-5 4-2-4 1 1-2 2-3 2-2-2-2 2l-4 4c-1 2-6 4-5 6-3 0-3 2-5 4l-2 2c-4-1-2 5-6 5l-5 5-4 4c-2 2-4 6-5 3 2 3-6 4-2 5-1 1-4-1-6-2l2 2c4 1 2 3 0 3l-4 4c0 3-3-3-1 2l-4 4-7 6-6 7-6 2c3-1 1-3 0 0h-3zm-1 0c0-2-1-1 0 0zm1 0s-1 0 0 0zm1 0c1 0 0 0 0 0zm1 0c0-1-1-1 0 0zm-5-1c1 0 0 0 0 0zm1 0c1 0 0 0 0 0zm2 0s-1 0 0 0zm2 0c1 0 0-1 0 0zm-3-1c1 0-3-1 0 0zm2 1c1-1-1-1 0 0zm0-1c2 0-1-1 0 0zm5 0c1 0 0 0 0 0zm-10 0c1 0 0 0 0 0zm9 0c1-1-1-2 0 0zm-6 0c-1-2 5-3 3-3 1-3-5-1-3 0 0 0-2 1 0 3zm2-2c-2-2 1-2 0 0zm2 2c0-1-1-1 0 0zm1 0c1-1-2-2 0 0zm-9-1c1 0-1 0 0 0zm0 0c0-1-1 0 0 0zm5 0s-1 0 0 0zm3 0c0-1-4 0 0 0zm4 0c0-1-2-1 0 0zm1 0c1 0 0 0 0 0zm-16 0c0-1-1-1 0 0zm1 0c0-2-1 0 0 0zm3 0c0-1-1-1 0 0zm13 0c1-1 0-1 0 0zm-14 0c1-1 0-1 0 0zm8-1c-1-2-1 1 0 0zm-11 0s-1 0 0 0zm2 0c1 0 0 0 0 0zm1 0s-1 0 0 0zm9 0c0-1-1 1 0 0zm1 0c1-1 0 0 0 0zm4 0s-1 0 0 0zm-16 0c0-1-1 0 0 0zm4 0c-1-3 0 0 0 0zm7 0c1-2-1 1 0 0zm2 0c1-1 0 0 0 0zm2 0c0-1-1 0 0 0zm-15 0c1-1 0-1 0 0zm1 0c2 0-2-3 0 0zm15 0c1-1 0-1 0 0zm2 0c0-1-1-1 0 0zm-21-1s-1 0 0 0zm13 0c2-1-2-2 0 0zm0 0c-1-1 1 0 0 0zm4 0c0-1-1 0 0 0zm3 0c0-1-1 0 0 0zm-19 0c1 0 0 0 0 0zm4 0c1 0 0 0 0 0zm9 0c1 0 0 0 0 0zm2 0s-1 0 0 0zm2 0s-1 0 0 0zm-17 0c0-1-1-1 0 0zm2 0c1-1 0-1 0 0zm3 0c0-1-1-1 0 0zm9 0c1-1 0-1 0 0zm-6-1c-1-1-1-1 0 0zm5 0c3-2 1-2 0 0zm5 0s-1 0 0 0zm1 0s-1 0 0 0zm-17 0c0-1-1-1 0 0zm7 0c1-2-2-1 0 0zm-6 0c0-4-2-3 0 0zm1 0c0-1-1-1 0 0zm2 0c-1-3 1 0 0 0zm2-1c0-2-1 0 0 0zm8 0c0-1 0 0 0 0zm2 0c1 0 0 0 0 0zm-7 0s-1 0 0 0zm0 0c1 0 0 0 0 0zm8 0c0-3-2-1 0 0zm-11 0c1 0 0 0 0 0zm2 0c1 0-2 0 0 0zm8 0s-1 0 0 0zm4 0c1-1 0-1 0 0zm-20 0c0-1-1-1 0 0zm1 0c1-1 0-1 0 0zm16 0c1-1 0-1 0 0zm2 0c1-1 0-1 0 0zm-11-1s-1 0 0 0zm13 0s-2-1 0 0zm-22 0c1-1-1-1 0 0zm2 0s-1 0 0 0zm1 0c0-1-2-1 0 0zm3 0c1 0 0-1 0 0zm1 0c1 0 0 0 0 0zm6 0c2 0-1-2 0 0zm1 0c3-1-2-1 0 0zm6 0s-1 0 0 0zm-14 0c0-1-1-1 0 0zm11 0c1-1 0-1 0 0zm3 0c1-1 0-2 0 0zm2 0c1-1 0-1 0 0zm-6-1c1 0-2 0 0 0zm7 0s-1 0 0 0zm-21 0c1 0 0 0 0 0zm13 0s-1 0 0 0zm2 0c0-1-1 0 0 0zm1 0c0-2-1-1 0 0zm1 0s-1 0 0 0zm3 0c0-1-1-1 0 0zm-19-1c1 0 0 0 0 0zm20 0s-1 0 0 0zm-4 0c0-2-1 0 0 0zm1 0c2-4-1-3 0 0zm-21 0c0-1-1-1 0 0zm22-1c1 0 0 0 0 0zm1 0c0-1-2-1 0 0zm3 0c0-1-1 0 0 0zm-30 0c2 0-1 0 0 0zm2 0s-1 0 0 0zm4 0s-1 0 0 0zm18 0c0-1-1-1 0 0zm0 0c0-2-1 0 0 0zm5 0c1-1 0-1 0 0zm2-1c1 0 0 0 0 0zm-2 0c1 0 0-1 0 0zm2 0s-1 0 0 0zm-4 0c0-2-1 0 0 0zm0 0c1-1 0-1 0 0zm4 0c1-2-1 0 0 0zm-3 0c0-1-1-1 0 0zm1 0c1-1 1-1 0 0zm-29-1c1 0-1 0 0 0zm26 0c1 0-2 0 0 0zm1 0c2-2-1 0 0 0zm-1-1c2-2-2 0 0 0zm2 0c3-1 3-2 0-3-2 1 3 3 0 3zm1-1c-1 0 1 0 0 0zm1 1c2 0-1 0 0 0zm2 0s-1 0 0 0zm-30 0c1-1 0-1 0 0zm26-1c1-1-1 2 0 0zm5 1c1-1 0-1 0 0zm-2-1c1 0-1 0 0 0zm1 0s-1 0 0 0zm-5 0c0-1-1-1 0 0zm6-1s-1 0 0 0zm-3 0s-1 0 0 0zm4 0c2-1-1-2 0 0zm-1 0c1-1 0-1 0 0zm-1-1s-1 0 0 0zm0 0c2 0-1 0 0 0zm0 0c0-1-1-1 0 0zm2 0c1 0-1 0 0 0zm-1-1c2 0-3 0 0 0zm2 0c0-1-1 1 0 0zm1 1c0-1-1-1 0 0zm-2-1c2-1-2-1 0 0zm1 0c2-2-1 1 0 0zm-5 0c1 0 0 0 0 0zm1 0c1 0 0 0 0 0zm5 0c1 0 0 0 0 0zm1 0s-1 0 0 0zm-4-1c1 0-1 0 0 0zm5 0c1-2-2-1 0 0zm-2 0c1 0 0 0 0 0zm-4 0c1-1 0-1 0 0zm2 0c0-1-1-1 0 0zm1 0c1-1-1 0 0 0zm1 0c4-3-2 0 0 0zm-4-1c1 0-1 0 0 0zm1 0c0-1-1-1 0 0zm1 0c1-1-2-2 0 0zm3-1c-3-5 0 0 0 0zm0 0c-1 0 0 0 0 0zm-1 0c0-1-1-1 0 0zm-1 0s-1 0 0 0zm4 0c1 0 0 0 0 0zm-6 0c1-1 0-1 0 0zm1 0c0-1-1-1 0 0zm6 0c-1-3-5-1 0-1v1zm-1-1c-1 0 0 0 0 0zm-5 0c1 0 0 0 0 0zm0 0s-1 0 0 0zm7 0c1-1-2-1 0 0zm-4 0c0-2-1 0 0 0zm2-1c3 0 3-2 0 0zm-2 0c1 0 0 0 0 0zm-1 0c0-1-1-1 0 0zm0 0c1-2 0 0 0 0zm6-1c1-2-1 0 0 0zm-2 0c2-1-1-4 0 0zm1 0c0-1-1-1 0 0zm0 0c1-1 0-1 0 0zm-2-1c0-1-1 1 0 0zm4 1c0-1-1-1 0 0zm-5-1c1 0 0 0 0 0zm-1 0c1 0-1-1 0 0zm5 0c6-2-2-2 0 0zm1-1c0-1 1-1 0 0zm-5 0c2 1 0-1 0 0zm0 0s-1 0 0 0zm4 0c0-2-1 0 0 0zm4 0c1-2-1-1 0 0zm-6-1c1 0 0-1 0 0zm4 0c2 0-1 0 0 0zm-3 0c1-1-1 0 0 0zm3 0c1-2-1 1 0 0zm-4 0c0-1-1-1 0 0zm2 0c4 0-2-2 0 0zm5-1c1 0 0 0 0 0zm-7 0c1 0 0 0 0 0zm8-1c0-2-1 0 0 0zm-1 0c0-3 0 0 0 0zm2-1c1-3-3-1 0 0zm-3 0s-1 0 0 0zm2 0c0-1-1-1 0 0zm-1-1c-1-1 3 0 2-2 0 1-2-2-2 2zm-4 0c1 0-2-1 0 0zm3 0s-1 0 0 0zm6-2s-1 0 0 0zm-1 0s-1 0 0 0zm-3 0c1-1 0-1 0 0zm1 0c1-1-1-1 0 0zm1-1c1-1-1 1 0 0zm1 1c0-1-1-1 0 0zm-4-1c1 0-2 0 0 0zm2 0c1-1-3-2 0 0zm4 0c7-8-5 4 0 0zm-2 0c3-3-3-1-2-1l2 1zm1-1c-1 0 0 0 0 0zm-1 1c2 0-1 0 0 0zm-4 0c1-1-1-1 0 0zm7-1c1 0 0 0 0 0zm-1 0c1 0 0 0 0 0zm-5 0c1-1-1-2 0 0zm1 0c0-1-1-1 0 0zm1-1c1 0-1 0 0 0zm4 0c2-1-2 0 0 0zm-4 0s-1 0 0 0zm1 0c1-1-1-3 0 0zm-2-1c2 0 0 0 0 0zm6 1c2-1-1-1 0 0zm-5-1c1 0 0 0 0 0zm3 0s-1 0 0 0zm1 0s-1 0 0 0zm-5 0c0-1-1-1 0 0zm3 0c0-1-1-1 0 0zm2 0c1-2 0 0 0 0zm-4 0c1-1 0-1 0 0zm3 0c0-1-1-1 0 0zm-3-1c1-1-1 0 0 0zm6 0s-1 0 0 0zm-1 0c1-1 0-1 0 0zm1 0c0-1-1-1 0 0zm-5-1c1 0 0 0 0 0zm3 0s-1 0 0 0zm-2 0c0-1-1-1 0 0zm3 0c1-1-3-1 0 0zm2 0c1 0-2 0 0 0zm-4 0c0-1-1-1 0 0zm5 0c0-2-1-2 0 0zm-4-1c-1-2-1-1 0 0zm5 0s-1 0 0 0zm-3-1c1 0-1 0 0 0zm-1 0c0-3-1 1 0 0zm3 0c1 0 0 0 0 0zm-2 0s-1 0 0 0zm3 0c0-1-1 0 0 0zm-2-1c3-1-2-1 0 0zm0 0s1 0 0 0zm-2 0c2-3-1 1 0 0zm4 0c1 0 0 0 0 0zm1 0c1 0 0 0 0 0zm-6 0s-1 0 0 0zm2 0c1-1-1 0 0 0zm5 0c0-1-1 0 0 0zm-2 0c0-1-1-1 0 0zm-1-1c1 0 0 0 0 0zm2 0c-1-1-1 0 0 0zm0 0c1 0 0 0 0 0zm-3 0c2-1-2-1 0 0zm2 0s-1 0 0 0zm2 0c1 0 0 0 0 0zm-1 0c1-1 0-1 0 0zm1-1c1-2-1 0 0 0zm-5 0c1-1 0-1 0 0zm3 0c0-2 0 0 0 0zm3 0c0-1-1-1 0 0zm1 0c0-2 0-1 0 0zm-6 0c1-1 0-1 0 0zm1 0c1-1 0-1 0 0zm2-1c0-2-2-1 0 0zm-3 0c1 0-2 0 0 0zm4 0c1 0 0 0 0 0zm-4 0c1-1 0-1 0 0zm5-1c3 0-2-1 0 0zm-1 0s-1 0 0 0zm-3 0c1 0 0 0 0 0zm7 0c1-1 0-1 0 0zm-1 0c1-1-2-1 0 0zm-1-1s-1 0 0 0zm2 0c0-1-1 1 0 0zm1 0c0-1-1-1 0 0zm-6 0c1 0 0 0 0 0zm2 0c2 0-2 0 0 0zm1 0c1-1 0-1 0 0zm-4-1c1 0 0 0 0 0zm2 0s-1 0 0 0zm3 0s-1 0 0 0zm-2 0c1-1 0-2 0 0zm1 0c1-1-1-3 0 0zm4 0c0-1-1 0 0 0zm-3 0c1 0 0 0 0 0zm-1 0c0-1-1-1 0 0zm3-1c0-1-1 0 0 0zm-2 0s-1 0 0 0zm1 0s-1 0 0 0zm1 0c1 0 0 0 0 0zm1 0c0-1-1 0 0 0zm-3-1s-2 0 0 0zm1 0c1 0 0 0 0 0zm1 0c1-1 0-1 0 0zm-4-1c2 0-1 0 0 0zm3 0s-1 0 0 0zm1 0s-1 0 0 0zm2 0h-1 1zm-3 0c0-2-2-1 0 0zm2 0c0-1-1-1 0 0zm-2-1c2 0-1 0 0 0zm4 0c1 0-1-1 0 0zm-1 0c0-1-1-1 0 0zm2 0c3-2 0-2 0-5v5zm-3-1c1 0-2 0 0 0zm2 0c1-2-1 1 0 0zm-3 0c1-1 0-1 0 0zm1 0c1-1 0-1 0 0zm1 0c-1-1 3-1 0-2v2zm0-1c0-1 1-1 0 0zm4 0c0-2 0 0 0 0zm1 0c1-1-1 0 0 0zm-2-1c3-4-1 1 0 0zm2 0c2 0-2 0 0 0zm-2 0c0-1-1-1 0 0zm0-1c3 1-1-3 0 0zm2 0c2 0-1 0 0 0zm0-1s-1 0 0 0zm1 0c1 0 0 0 0 0zm1 0c1-1-1 0 0 0zm-2 0c1 0-2 0 0 0zm-1-1s-1 0 0 0zm1 0c1 0 0 0 0 0zm1 0c2 0-1-1 0 0zm2 0c0-1-1-1 0 0zm-1 0c1-1 0-1 0 0zm-2-1c1 0 0 0 0 0zm1 0c1 0 0 0 0 0zm0 0c1-1 0-1 0 0zm3 0c0-1-1-1 0 0zm-4-1c1 0-1-1 0 0zm2 0c1-1 0-1 0 0zm1 0c1 0 0 0 0 0zm1 0s-1 0 0 0zm0 0c1 0 0 0 0 0zm2 0c0-1-2-1 0 0zm-5 0c1-1 0-1 0 0zm5 0c1-1 0-1 0 0zm-1 0c0-1-1-1 0 0zm-2-1c1 0 0 0 0 0zm1 0c0-1-1 1 0 0zm2 0s-1 0 0 0zm-3 0c1-1-2 0 0 0zm-2-1s-1 0 0 0zm3 0c1 0 0-1 0 0zm2 0c1 0 0 0 0 0zm-4 0c0-1-1-1 0 0zm0 0c1-1 0-1 0 0zm3 0c0-1-1-1 0 0zm3 0c0-1-1-1 0 0zm-2-1s-1 0 0 0zm-2 0c2-1-4 0 0 0zm3 0c1-1 2-2 0 0zm2 0c1 0 0 0 0 0zm-3 0c0-2-1-1 0 0zm3-1c1 0 0 0 0 0zm-1 0c2-4 1 0 0 0h-1 1zm-2 0c0-1-2-1 0 0zm-2-1c1 0 0 0 0 0zm6 0c1 0-1 0 0 0zm-4 0c1 0 0-1 0 0zm4 0c0-2-1 0 0 0zm2 0c1-1 0-1 0 0zm-8-1c1 0 0 0 0 0zm7 0s-1 0 0 0zm0 0c1-1-1 0 0 0zm-5 0c1 0 0 0 0 0zm2 0c0-1-1-1 0 0zm2 0c0-1-1-1 0 0zm2 0c1-1 0-1 0 0zm-6-1c1-1-1 1 0 0zm2 0c2-1-3 0 0 0zm4 0s-1 0 0 0zm-3 0s-1 0 0 0zm1 0c1-1 1 0 0 0zm3 0s-1 0 0 0zm-4 0c1-1-2-2 0 0zm-2-1c0-1-1 1 0 0zm7 0s-1 0 0 0zm-5 0c1 0 0 0 0 0zm2 0c1-1 0-1 0 0zm-3 0c0-1-1-1 0 0zm1-1c1-1-1 1 0 0zm5 0c1-1-2 0 0 0zm-6 0c1 0 0 0 0 0zm2 0c1 0 0 0 0 0zm-1 0c0-1-1-1 0 0zm1 0c1-1 0-1 0 0zm1 0c0-1-1-1 0 0zm1-1s-1 0 0 0zm2 0c0-2 0 1 0 0zm1 0c2 0-2-1 0 0zm-2 0c1 0 0-1 0 0zm-3 0c1-1 0-1 0 0zm1-1s-1 0 0 0zm1 0c-2-1 0 0 0 0zm1 0c1 0-1 0 0 0zm1 0c1 0-1 0 0 0zm1 0c-1-2-1-1 0 0zm2 0c1-1 0-1 0 0zm-4-1c1-1-2 0 0 0zm1 0c0-1-1 0 0 0zm4 0c1 0 0 0 0 0zm-1 0c1-1 0-1 0 0zm-5-1s-1 0 0 0zm2 0s-1 0 0 0zm1 0c0-2-2 0 0 0zm2 0c0-1-2 0 0 0zm1 0c1-1-2 0 0 0zm-5 0c1-2-1 0 0 0zm3 0s-1 0 0 0zm2-1c1-1-2 0 0 0zm1 0c2-1-2 0 0 0zm-4 0c1-1 0-1 0 0zm2 0c0-2-1-1 0 0zm-2 0c1-2-4-2 0 0zm2-1c1-1 0 1 0 0zm2 0c-1-3-2 0 0 0zm1 1c1-1-1-1 0 0zm-4-1s-1 0 0 0zm4 0c1-4 1 0-1-1 0 1 0 2 1 1zm2 0c0-1-1 0 0 0zm-5-1c1 0 0 0 0 0zm2 0c1 0 0-1 0 0zm3 0c1 0-1 0 0 0zm-3 0c0-1-1-1 0 0zm3-1c1 0 0 0 0 0zm1 0c1-1-1 0 0 0zm-4-1s-1 0 0 0zm1 0c1-2-1 0 0 0zm2 0c1 0 0 0 0 0zm-4 0c2-2 1-3 0 0zm4 0s-1 0 0 0zm1 0c3 0-2 0 0 0zm-4 0c0-1-1-1 0 0zm2 0c0-1-1-1 0 0zm1 0c0-1-1-1 0 0zm-4-1c1-2-1 0 0 0zm1 0c1 0 0-1 0 0zm2 0c3 1-1-3 0 0zm2 0c2 0-1 0 0 0zm-3 0c1-1 0-1 0 0zm3-1s-1 0 0 0zm1 0c1 0 0 0 0 0zm1 0c1-1-1 0 0 0zm-2 0c1 0-2 0 0 0zm4 0c1-1 0-1 0 0zm-5-1s-1 0 0 0zm1 0c1 0 0 0 0 0zm1 0c2 0-1-1 0 0zm4 0c0-1-3 0 0 0zm-2 0c0-1-1-1 0 0zm-1-1c1 0 0 0 0 0zm-1 0s-1 0 0 0zm0 0c1 0 0 0 0 0zm0 0c1-1 0-1 0 0zm3 0c0-1-1-1 0 0zm-4-1c1 0-1-1 0 0zm2 0c1-1 0-1 0 0zm1 0c1 0 0 0 0 0zm1 0s-1 0 0 0zm0 0c1 0 0 0 0 0zm2 0c0-1-1-1 0 0zm-5 0c1-1 0-1 0 0zm4 0c0-1-1-1 0 0zm-2-1c1 0 0 0 0 0zm1 0c0-4-1 0 0 0zm2 0c0-1-2 0 0 0zm0 0c1 0 0 0 0 0zm-3 0c1-1-2 0 0 0zm-2-1s-1 0 0 0zm5 0c1-2-1-4-1 0h1zm0 0c1-1 0-1 0 0zm-4 0c0-1-1-1 0 0zm0 0c2-1-1-1 0 0zm8-2c1 0 0 0 0 0zm-7 0c1-1-1-1 0 0zm3 0s-1 0 0 0zm-1 0c1 0-2 0 0 0zm2 0c0-1-1-1 0 0zm3-1c0-1-1 1 0 0zm-6 0c1 0 0 0 0 0zm2 0c1-1 0 0 0 0zm-1 0c1-2-1-1 0 0zm1-1s-1 0 0 0zm3-2s-1 0 0 0zm1 0s-1 0 0 0zm1 0c1 0 0 0 0 0zm1-1c1 0 0 0 0 0zm2 0c0-3-1 1 0 0zm-2 0c0-1-1-1 0 0zm2-1c3-1-1-3 0 0zm0-1s1 0 0 0zm-2 0c2-3 0-2 0 0zm1-2s1 0 0 0zm3 1s-2-3-1 0h1zm2 0s-1 0 0 0zm-2-1c1-3 0-2 0 0zm-3-1c1 0 0 0 0 0zm1 0c0-1-1 0 0 0zm3 0c0-1-1-1 0 0zm3 0c1 0-3-1 0 0zm-5-1c1-1-1 0 0 0zm4 0c-1-2-2-1 0 0zm-2 0c1 0-1-1 0 0zm3 0c-1-4-1 0 0 0zm1 0s-1 0 0 0zm-5-1s-1 0 0 0zm5 0c1 0 0 0 0 0zm-2 0c0-1-2-1 0 0zm3 0c0-1-1 0 0 0zm-7 0c1-1 0-1 0 0zm6 0c1-2-5-2 0-1v1zm-1-1c-1-1 1-1 0 0zm2 1c2-2-1-1 0 0zm-4-1s-1 0 0 0zm3-1c1-1 1-4-1 0 2-1 0 2 1 0zm0 0s1 0 0 0zm-1-1c0-1 1-1 0 0zm4 2c1-3-2-1 0 0zm-2-1c1-1 0-1 0 0zm-3 0c1-1 0-1 0 0zm4-1s-1 0 0 0zm1 0c-1-2 0-1 0 0zm0 0c0-1-1-1 0 0zm2 0c0-1-1-1 0 0zm-7-1c2 0-2 0 0 0zm1 0c1-2-1 0 0 0zm1 0c0-2-1-1 0 0zm6 0c0-2-1-1 0 0zm-4 0c1-1-3-2 0 0zm2 0c0-1-1-1 0 0zm1 0c1-1-1-1 0 0zm-1-1c1 0 0 0 0 0zm-1 0c3 0-1-1 0 0zm-4 0c1-1 0-1 0 0zm6 0c0-1-1-1 0 0zm-4-1s-1 0 0 0zM98 298c-1 0 0 0 0 0zm11 0c0-1 1-1 0 0zm-14-1c-1-1 0-1 0 0zm11-5c-2 0 1-2 0 0zm-2-1c-1 0 0 0 0 0zm-6-1c-1-1 1 0 0 0zm-11 0c-2-5-4-3-4-7l2-3c-1-1-2 0-1-2-2-2-2-1-1 3-1 1-3 5-1 1l-4-2c2 1-11-9-2-3-1 0-5-2-4-4 0-3-3 0-3-5 1-5 0 5-4 0 2-2-2 0-4-5 1 0 5 3 2 0 1-1-5 0-3-4-4 2 0-2 1-1 0-3 0-1-2 0-2-1 0 2-3 0-2-1 1-3-2-2-3-4 0-3 0-4l-1-2c2 0 0 4-3 2-2-2-6-3-5-7-3 4 0-5-2 0-1-3 3-2 1-3 0 0-2-4-2 1l-1-4c0-1 0 6-1 2-3-1-3-2-2-2 1 1 5-4 4-2-2 2 0-6-2-1-1 4-1 0-2 1-1 3-2 0-4-1-1-2 1-6-3-3-1-2-6-3-5-6-1 2-1-1-2-2-3-1-9-8-8-7 4 2-1-5 3-2-2-3 3 0 0-2-6-4 1 2-3 0 2 5-1 4-2 1 2-4-1-2-1-1-2 0-4-4-3-4-1 2-2-4-3-3 2-1 2 1 4-1 1 2 2 0 4 2-1-3 1 0 4 3l6 5 4 4c2 3-1 3 2 2 1 3 5 5 5 5 0 2 4 8 4 6 0 3 2-1 3 2 0 2 4 2 4 5l4 3c3 1 3 4 4 5-3 0 0 2 2 1 3 2 1 3 4 3l3 4c0 2 0 4 1 1 1 3 1 1 4 5l6 6 7 6c0 1 4 2 3 5 1-2 5 2 4 2 1 1 2 4-2 3 1 2-2 0 1 5-3-3 0 0-1 1zm-1-3c2-1-1-1 0 0zm0-1c-4-1 1-2-1-1-2-2-2 2 1 1zm0-2c2 0-2 0 0 0zm3 0c1-3-1 0 0 0zm-5 0c1-1-2-2 0 0zm2 0c2-3-1-2-1 0h1zm1-1s-1 0 0 0zm0 0c1 0-1 0 0 0zm1 0c1 0 0 0 0 0zm-3 0s-1 0 0 0zm3 0c6-3-2 0 0 0zm-1 0c2-1 0-1 0 0zm-2-1c1 0-2 0 0 0zm0 0c0-2 2-1 0 0zm-4 0c1-4-5-1 0-1v1zm-2-1c0-1 1-1 0 0zm5 1c1-1 0-1 0 0zm4 0c1-1-2-2 0 0zm-6-1c0-3 1-4-2-4l-2 1c-1 3 5 0 2 1l2 2zm0-1c-2 0 0-2 0 0zm-3 0c-1-1 0-1 0 0zm0-1c-3-1 4-2 0 0zm2-1c-1 0 0 0 0 0zm2 3c0-2-2 0 0 0zm-5-1c1 0 0 0 0 0zm9 0c3-1-4 0 0 0zm-5 0c1-1-1-1 0 0zm-5-2c2-3-1 0 0 0zm8 0c1-1 0-1 0 0zm-9-1s-1 0 0 0zm4 0c0-2-2 1 0 0zm4 0c1-1-1 0 0 0zm-8 0c0-1-1-1 0 0zm1 0c0-1-1-1 0 0zm1-1c0-1-1 1 0 0zm-1 0c1-1-2 0 0 0zm4 0c4-2-2 0 0 0zm-5 0c0-1-1-1 0 0zm3 0s-1 0 0 0zm1 0s-1 0 0 0zm-5 0c0-1-1-1 0 0zm3 0c0-1-1-1 0 0zm-5-1c1 0 0 0 0 0zm7 0c1 0 0 0 0 0zm-1 0c2-2-2 0 0 0zm-6 0c-1-3-1 0 0 0zm0 0c1-1 0-1 0 0zm3 0c1-1 0-1 0 0zm-2-1c2-1 1-1 0 0zm7 0c1 0-2 0 0 0zm-6 0c1 0 0 0 0 0zm1 0c1 0 0 0 0 0zm1 0s-1 0 0 0zm1 0s-1-1 0 0zm-5 0c1 0 0 0 0 0zm6 0s-1 0 0 0zm-2 0c1-1 0-1 0 0zm3 0c0-2-1 0 0 0zm-4-1s-1 0 0 0zm0 0c1-1-1 1 0 0zm2 0s-1 0 0 0zm-3 0c2-1-1 0 0 0zm-2 0c1-1 0-1 0 0zm3-1c1 0 0-1 0 0zm-3 0c0-3-4-7 0 0zm6 0s-1 0 0 0zm-6 0c1-1 0-1 0 0zm1 0c1-1 0-1 0 0zm1 0c0-1-1-1 0 0zm2 0c0-1-1-1 0 0zm1-1s-1 0 0 0zm1 0s-1 0 0 0zm-5 0c1 0 0 0 0 0zm2 0c3-1-3 0 0 0zm-2 0c2-1-2-1 0 0zm-4-1c1-2 0-2 0 0zm1 0c1 0 0 0 0 0zm-3 0c1 0 0 0 0 0zm5 0c1 0 0 0 0 0zm2 0s-1 0 0 0zm-3 0c0-2-1 0 0 0zm2-1c2 0-2 0 0 0zm3 0s-1 0 0 0zm-10 0c2 0 0-2 0 0zm6 0s-1 0 0 0zm1 0c1 0-1-1 0 0zm-4 0c0-1-1-1 0 0zm3-1s-1 0 0 0zm0 0c-1-2-5-1 0 0zm-2-1s1 0 0 0zm-3 1c1-1 0 0 0 0zm6 0c2-1-2 0 0 0zm-7-1c1 0-2 0 0 0zm3 0c1 0 0 0 0 0zm-3 0c0-1-1-1 0 0zm6 0s-1 0 0 0zm-7 0c0-1-1-1 0 0zm1-1c1 0 0 0 0 0zm2 0c0-2-1-1 0 0zm1 0c1 0-1-1 0 0zm1 0c0-1-1 1 0 0zm-5 0c1 0 0 0 0 0zm5 0c1 0 0 0 0 0zm1 0s-1 0 0 0zm-7-1c1 0-1-4 0 0v1-1zm1 1c0-1-1-1 0 0zm4 0c0-1-1-1 0 0zm-4-1c1 0 0 0 0 0zm7 0s-1 0 0 0zm-5 0s-1 0 0 0zm1 0c-1-3-1 1 0 0zm2 0c0-2-1-1 0 0zm-5-1c3 1 0-4 0-1v1zm0-1s1 0 0 0zm-3 1c1-1 0-1 0 0zm6 0c1-2-1-1 0 0zm1 0c0-1-1-1 0 0zm-6-1c-1-4 1 1 0 0zm5 0c1-1-1-1 0 0zm-6-1c0-2-2 1 0 0zm4 0c1 0 0 0 0 0zm2 0c0-1-1-1 0 0zm-2 0c1-1 0-1 0 0zm-7-1s-1 0 0 0zm1 0c4 0-1-3 0 0zm1 0c-1-1 0-1 0 0zm1 0s-1 0 0 0zm2 0c-1-2-2 0 0 0zm1 0c1 0-1 0 0 0zm-5 0c0-3-1 0 0 0zm6 0c-1-2-2 0 0 0zm1 0c1-1-2 0 0 0zm-5 0c1-2-2-5 1-4-2-2-2 3-1 4zm3 0c0-1-1-1 0 0zm-1-1c1-1 0-1 0 0zm-1-1c1 1 0-3 0 0zm-4 0s-1 0 0 0zm-2 0c1 0-2-1 0 0zm-1-2c-1-2-1 0 0 0zm1 0c0-1-1-1 0 0zm1 0c1-1-2-1 0 0zm0 0c1-1 0-1 0 0zm1 0c2-2-1-2 0 0zm-3-1c1 0 0 0 0 0zm-3 0c3-4 0 0-1-2 2-1 0 3 1 2zm1-2c-1 0 0 0 0 0zm8 2c-1-1-3-1 0 0zm-6 0c0-1-1-1 0 0zm0 0c2-4 2-4-1-2l1 2zm0-2s1 0 0 0zm1-1s1 0 0 0zm1 3c0-1-1-1 0 0zm2-1c1-1-2 0 0 0zm-2 0c0-1-1-1 0 0zm1 0c0-1-1-1 0 0zm-7 0c2 0-2 0 0 0zm3-1c0-1-1 0 0 0zm4 0c1 0 0 0 0 0zm-3 0c1-2-2-4-1-2-3 2 1-1 1 2zm3 0c0-1-1-1 0 0zm0-1s-1 0 0 0zm1 0s-1 0 0 0zm-1 0c0-1-1-1 0 0zm-1-1s-1 0 0 0zm-9-1c2 1 1-5 1-3 1 0-2 2-1 3zm8 0c-1-2-5-1-2 0h2zm0 0c-1 0 0 0 0 0zm-2-1s1 0 0 0zm-4 1c1 0 0 0 0 0zm-1-1c2 0-1 0 0 0zm-3 0c1-1 0-1 0 0zm0-1c1 0-1-1 0 0zm2 0c0-1 0-2 0 0zm2 0c1-1 0-1 0 0zm-5-1c1-1 0 1 0 0zm1 0c1-1-1 1 0 0zm2 0c1 0 0 0 0 0zm2 0s-1 0 0 0zm0 0c1 0 0 0 0 0zm1 0c0-1-1-1 0 0zm-7-1c4-2 0-2 0 0zm0 0c0-1 1 0 0 0zm1 1c1-1 0-1 0 0zm1 0c1-1-1-1 0 0zm2-1c0-2 0 0 0 0zm1 0c1 0-1-1 0 0zm2 0s-1 0 0 0zm-8 0c1 0 0 0 0 0zm1-1s-1 0 0 0zm2 0c1-1-1-1 0 0zm2 0c2 0-1 0 0 0zm3 0s-1 0 0 0zm-7 0c0-1-1-1 0 0zm0 0c-2-5 3-4-1-5l1 5zm0-2c-1 0 0 0 0 0zm4 2c1-1 0-1 0 0zm2 0c-1-3 0-1 0 0zm-8-1c1 0 0-1 0 0zm3 0c1 0-1 0 0 0zm2 0c0-1-1 0 0 0zm1 0c2-2-2 0 0 0zm1 0c1-1-1 0 0 0zm-6 0c0-2-2-1 0 0zm-1-1s1 0 0 0zm4 0c1-1-1-1 0 0zm-1 0c0-1-1-1 0 0zm3 0c0-1-2-1 0 0zm-2-1s-2 0 0 0zm-1 0c1 0 0 0 0 0zm2 0c1-1 0-1 0 0zm-1-1s-1 0 0 0zm0 0c1 0 0 0 0 0zm0 0s-1 0 0 0zm1 0c0-1-1-1 0 0zm-9-1s-1 0 0 0zm8 0s-1 0 0 0zm-6 0s-1 0 0 0zm-1 0c1-1 0-1 0 0zm4 0c-2 3-1 1 0 0zm2 0c1 0-1 0 0 0zm-8-1c1 0 0 0 0 0zm5 0c1 0-1 0 0 0zm3 0c0-1-2 0 0 0zm-1 0c0-1-1-1 0 0zm-7-1c1 0 0 0 0 0zm4 0c0-2-1 1 0 0zm-4 0s-1 0 0 0zm6 0c0-1-1-1 0 0zm-2-1c1-1-1 0 0 0zm-6 0c1-2-1 0 0 0zm0 0c-1-1 0-1 0 0zm2 0c1-1-1-1 0 0zm5 0s-1 0 0 0zm-1-1c2 0-2 0 0 0zm-7 0s-1 0 0 0zm1 0c0-2-2 0 0 0zm0 0c3-1 2-3 0-2v2zm0-1s1-2 0 0zm-1 0l-1-3c-1 3 0 3 1 3zm0-1c-1 0 0 0 0 0zm3 0c1 0 0 0 0 0zm-5-1c2 0-1 0 0 0zm2 0c2-3-2-2 0-1v1zm3 0c1-1-2-4-1 0h1zm0-1c2 0 0 0 0 0zm-7 0c1-4-2 1 0 0zm7 0c2-1-1-1 0 0zm-5-1c0-1-1 0 0 0zm3 0c1-1 0-1 0 0zm1 0c1-1 0-1 0 0zm-5-1s-1 0 0 0zm1 0s-1 0 0 0zm-3 0c0-4-2-2 0 0zm2 0c1-1-4-1 0 0zm3 0c0-2-1 0 0 0zm1 0c1 0-1-1 0 0zm-8 0c0-4-2-2 0 0zm1 0c1-1 0-1 0 0zm0-1c1-1 0-1 0 0zm4 0c1 0 0 0 0 0zm3 0c0-2-2 0 0 0zm-8-1c3-6-1 1 0 0zm4 1c1-1 0-1 0 0zm2 0c0-2 1-1 0 0zm-3-1s-1 0 0 0zm-4 0c1-1-1-1 0 0zm-1 0c0-1 0-1 0 0zm5 0c0-2-1-1 0 0zm1 0c1-1 0-1 0 0zm3 0c1-1 0-1 0 0zm-2-1c2-1-3 0 0 0zm-6 0c1 0 0 0 0 0zm3 0c1 0 0 0 0 0zm-2 0s-1 0 0 0zm3 0c1 0 0 0 0 0zm-4 0c0-1-1-1 0 0zm3 0c1-2 2-3 0-1-2-2 0 1 0 1zm2 0c1-1 0-1 0 0zm-6-1c1-1-1-1 0 0zm2 0s-1 0 0 0zm5 0s-1 0 0 0zm-9 0c1-1 0-1 0 0zm4 0c1-2 0 0 0 0zm-3-1c1 0-1 0 0 0zm1 0c1 0-1-1 0 0zm-2-1c-1-1-1 0 0 0zm2 0s-1 0 0 0zm3 0c1 0 0 0 0 0zm-3 0c1-3-1-1 0 0zm5 0c1 0 0 0 0 0zm-6 0c1-1 0-1 0 0zm4 0c1-1 0-1 0 0zm-2 0c0-1-1-1 0 0zm2 0c0-1-1-1 0 0zm2-1c-1-1-2-1 0 0zm-8 0c2-1-2-1 0 0zm5 0c1 0 0 0 0 0zm-7 0c1-1 0-1 0 0zm4-1c1 0 0 0 0 0zm-1 0c1 0-1 0 0 0zm-1 0c1-1 0-1 0 0zm2 0c0-2-1 0 0 0zm1 0c0-2-1-1 0 0zm1 0c1-1 0-1 0 0zm-6 0c0-1-1-1 0 0zm2-1c2 0-2 0 0 0zm1 0s-1 0 0 0zm-4 0s-1 0 0 0zm1 0c0-1-1-1 0 0zm3 0c1-1-1-1 0 0zm-2 0c1-1 0-2 0 0zm1 0c2-1-1-3 0 0zm4 0c0-2-1 0 0 0zm1 0c1-1-2-1 0 0zm-3-1s-1 0 0 0zm-5 0c0-1-1 0 0 0zm1 0c0-1-1 0 0 0zm2 0c1 0 0 0 0 0zm3 0c0-1-1-1 0 0zm-7 0s-1 0 0 0zm5 0c1 0 0 0 0 0zm1 0c1 0-1 0 0 0zm-5-1s-1 0 0 0zm1 0s-1 0 0 0zm1 0c0-2 1 0 0 0zm-3 0s-1 0 0 0zm1 0c2-4-2-1 0 0zm-1-1s1 0 0 0zm5 1c1 0-1-1 0 0zm2 0s-1 0 0 0zm-8 0c0-1-1-1 0 0zm-1-1s0-1 0 0zm4 0c0-1-1-2 0 0zm2 0c1 0 0 0 0 0zm2 0c1 0 0 0 0 0zm-9 0c1-1 0-1 0 0zm2-1c1 0 0 0 0 0zm5 0s-1 0 0 0zm2 0c0-2-1 0 0 0zm-7 0s-1 0 0 0zm2 0c0-1-1-1 0 0zm1 0c1-2 0 0 0 0zm1 0c3-2-2-1 0 0zm2 0c1-1-2-1 0 0zm-7-1c1 0 0 0 0 0zm1 0c1 0 0-1 0 0zm3 0c0-1-1 0 0 0zm-6 0c0-1-2-2 0 0zm4 0c1-1-1-1 0 0zm-1-1c1 0 0 0 0 0zm2 0s-1 0 0 0zm2 0c1 0-1 0 0 0zm-6 0c0-2-1 0 0 0zm-3 0c1-1 0-1 0 0zm9 0c0-1-1-1 0 0zm-2-1c1 0 0 0 0 0zm1 0s-1 0 0 0zm-2 0c1-1 0 0 0 0zm2 0c0-2-1-1 0 0zm-9-1c2-1 1 0 0 0zm9 0s-1 0 0 0zm-7 0c1-1 0-1 0 0zm4 0c0-1-1-1 0 0zm1-1c0-1-1 1 0 0zm-8 0c0-1-1-1 0 0zm6 0c0-1-1 0 0 0zm1 0c2 0-2 0 0 0zm-7-1c1 0 0 0 0 0zm2 0c0-1-1 0 0 0zm1 0c1 0-1 0 0 0zm1 0c0-1-1 1 0 0zm3 0c1 0 0 0 0 0zm-8 0c1 0 0 0 0 0zm6 0s-1 0 0 0zm-6 0c0-1-1-1 0 0zm4 0c0-1-1-1 0 0zm-4-1c1 0 0 0 0 0zm7 0c1 0 0 0 0 0zm-5 0s-1 0 0 0zm1 0c0-2-1 0 0 0zm2 0c0-1-1-1 0 0zm-7-1c0-2 0 0 0 0zm1 0c2 0-2-1 0 0zm1 0c4 0-1-3-1-2l1 2zm7 0s-1 0 0 0zm-10 0c2 0-2-2 0 0zm6 0c1-2-1-1 0 0zm1 0c0-1-1-1 0 0zm2 0c1-1 0-1 0 0zm-8-1c1 0-1 0 0 0zm1 0c-1-2-2-1 0 0zm4 0c1-1-2-1 0 0zm1 0c1-1 0-1 0 0zm-3-1c2 0 0 0 0 0zm-4 0c3-1-3 0 0 0zm2 0s-1 0 0 0zm4 0s-1 0 0 0zm-3-1c0-1-1-1 0 0zm81 83c-1-1 0-1 0 0zm1-1c-1 0 0 0 0 0zm-3 0c-1 0 1-1 0 0zm6-1c-1 1 0-1 0 0zm-10 0c-1 0 0 0 0 0zm7 0c0-1 1-1 0 0zm1 0c0-1 1-1 0 0zm-3-1c-1 0 0 0 0 0zm3 0c-1 1 1-2 0 0zm-7 0c0-1 1-1 0 0zm3-1s1 0 0 0zm2 0c-1 0 1 0 0 0zm-11-3s1 0 0 0zm-1 0c0-1 1-1 0 0zm3-1c-1-1 1 0 0 0zm2-4c-1 0 0 0 0 0zm-2 0c-1 0 1 0 0 0zm48-1c0-1 1-1 0 0zm-60-4c-1 0 0 0 0 0zm0 0c-5-4 3 0 0 0zm-1-1c0-1-1-1 0 0zm62-1c-1-1 0-1 0 0zm9-4c-1 0 0 0 0 0zm-7 0c-1 0 2-2 0 0zm-64-5c-1 0 0 0 0 0zm-12-1c0-1 1-1 0 0zm9-2c-1 0 1 0 0 0zm-6 0c-2-1 1-2 0 0zm-3-1c-1 0 1-1 0 0zm-6-4c-4-3 2-2 0 0zm2-2c-1 0 0 0 0 0zm103-1c-1-2 4-2 0 0zm-6-1c-1-1 0-1 0 0zm-96-1c-2-1 2-1 0 0zm1 0c-1 0 0-2 0 0zm0-1c-1-1 0-1 0 0zm-14-4s1 0 0 0zm113 0s1 0 0 0zm9 0c-2-1 2-1 0 0zm-116-4s1 0 0 0zm-8-2c0 1 1-1 0 0zm121 0c0-1 1-1 0 0zm-127-2c-1 0 0 0 0 0zm9 0c0-1 1-1 0 0zm-2-1s1 0 0 0zm-8 0c-3-1 0-2 0 0zm7-1s1 0 0 0zm-7-1c-2 0 0 0 0 0zm-2 0c-2-2-1-2 0 0zm2 0c-1-1 0-1 0 0zm145-3c-2 0 0 0 0 0zm0-2s1 0 0 0zm4-2c-1 0 0 0 0 0zm-149-1c-1-1 0-1 0 0zm145-2c0-1 1-1 0 0zm-74-5v-3c-2 2-3-4-1-4s3-2 3 0c2 3 3 0 2-1 1-2 2 3 1 4 4-1-2-3 2-4-2-1 2-4 1-1-3-2 1 4 0 0 1 3-2 5-1 5-1 2-3 3-3 0-1 1-1 3-1-1 3 0-2 0-1 1 0-2-3 5 0 2 1-6 2 5-2 2zm3-1s-1 0 0 0zm-1-1c1 0 0 0 0 0zm-1 0c0-1-1-1 0 0zm1 0c2-1-1-1 0 0zm-3-1c1-1-1 0 0 0zm2 0c-1-3 0-1 0 0zm4 0c1-1 0-1 0 0zm-5-1s-1 0 0 0zm0 0c1-1-1 1 0 0zm6 0s-1 0 0 0zm-7 0c1-1 4-2 2-2 1 1-4-1-2 1 2-1-1 1 0 1zm1 0c-1-1 0-1 0 0zm1 0c1-1 0-1 0 0zm5-2c1-1 0-1 0 0zm1-1c2-1-2 0 0 0zm-1 0s-1 0 0 0zm-2-1c1 0 0 0 0 0zm84 6c-1-1 0-1 0 0zm-84-1s1 0 0 0zm-90 0c-2 0 1 0 0 0zm94-1c-3 0 2-2 0 0zm1-1c-2-1 1-2 0-5 0-2 0-4 1-1 2-3 3-3-1-3 1 4 1 0 1-1 0-2-2-1-2 1-2 3 2-6 0-4-3 2 2-1-3-1 1 0 1-5-1-1 0 1-2-3-2 0 0 1 0-3-2-3 1-2-2 1 0-2h4c-2 0-3-2 1-2 4-1 1 1 0 1l-2 3c2 2 4 2 3 0v-3c-2 1 4-2 2 1 1 1 0 5-1 4 3 2-3 0-1 2 2-2 2 2 2 0 1-1 2-3 0-3 2 0 3-2 0-3 3-1 4 0 2 2h1s-3 3 1 4c-2 2 4 0 2-1 2-2-3-2-1-3 2 1 3 5 3 6 0 4-3 6-3 7 0 2-3 0-2 3-3-1 0 1-2 2zm1-3c2 0-1 0 0 0zm0 0c1-2 0-2 0 0zm0-1c1-2-2 0 0 0zm2 0c0-2-1 0 0 0zm0 0c1-1 0-1 0 0zm-1-1c1 0 1-2 0 0zm1-1c-1 0 0 0 0 0zm-2 0c1 0 0 0 0 0zm4 0c-1-2-3-1 0 0zm-4 0c1-1 0-1 0 0zm2-1s-1 0 0 0zm0 0c1-1 0-1 0 0zm2 0c0-2-2-1 0 0zm-1-1s-1 0 0 0zm1 0c1 0 0 0 0 0zm0-1c0-1-1-4-2-1 2-2 1 1 2 1zm-3 0c1 0-1 0 0 0zm0-1s-1 0 0 0zm0 0c1 0 0 0 0 0zm3 0c1 0 0 0 0 0zm-3 0s-1 0 0 0zm0-1c2-1 1-3-1 0h1zm4 0c3-3-5-1 0 0zm-1-1c-1 0 0 0 0 0zm-5 1c2-1-2-1 0 0zm2-1s-1 0 0 0zm1 0c1-2 0 1 0 0zm-2 0c0-1-1-1 0 0zm0 0c0-4-1 0-1-1h1v1zm5-1c1-1-1-1 0 0zm-10-1c1-1 0-1 0 0zm10-1c0-1-1 1 0 0zm-13 0c1-1 0-1 0 0zm2 0c2-2 1-1 0 0zm-1-1c3-1-1-1 0 0zm-1-1c1 0 2-3 0-2 1-1-2 3 0 2zm0-1c-1-1 1 0 0 0zm-1-1c1 0-1 0 0 0zm6 0c3-3 0-2 0 0zm-2-2c1 0 0 0 0 0zm-8 21c-1-1 1-2 0 0zm8 0c0-1 1-1 0 0zm-7-1c-1 0 0 0 0 0zm92 0c-1 0 0 0 0 0zm-78-2c-1 0 0-1 0 0zm-9 0c-4-1 2-3 0 0zm0-1s-1 0 0 0zm6 1c-1 0 0-2 0 0zm-4-1c-3-1-4-4 0 0zm84 0c-3 0 0-3 0 0zm3-1c-1 1 0-1 0 0zm-87 0c-2 0 4-4 2-2 2 1 2 1-2 2zm1-1c2-1-1 0 0 0zM6 207c-3-1 0-5-2-3-1 2-2-2-3-4 2-1-2-3 1-5 3 2 3 3-1-2l3-5c3-3 4-1 4-4 2-4 1 4 2-1-3-1 7-5 3-3-3-1 10-9 6-6l5-6c2-4 6-3 5-5 1-2 4-2 3-4 1 1 5-3 5-4 1-2 1-2 2-1 1-2 3 4 3-1-5 2 2-5 2-5 1 0 2-3 2 1-2 2 1 1 2 3 1-1-7 4-6 5-4 0 0 2-2 3 0-1-3 2-3 0-4 3 5 0 0 3l-3 3-6 7c-2 2-6 8-6 6-2 1-3 4-5 4-1 3-6 5-5 6-3 5-3 4-2 6-3 0 1 5 0 6 1 2-3 0 1 3 4-1 3 5 2 2H6v1zm8-1c1 0-1-1 0 0zm-2 0c1 0 0 0 0 0zm-3 0c0-2 0-1 0 0zm3 0c2-2-3-2 0 0zm-1-1c0-1 1-1 0 0zm-6 0c1 0-1 0 0 0zm3 0c1-2-3-5-2 0h2zm-1 0c0-1 0-1 0 0zm0-1c-2-1 1-3 0 0zm0-1c0-1-1 1 0 0zm-1 2c0-1-1-1 0 0zm2-1c0-1-1-1 0 0zm2 0c0-1-2 0 0 0zm-7 0c1 0 0 0 0 0zm6 0c0-1-1-1 0 0zm-7-1c1 0 0 0 0 0zm1 0c1 0 0 0 0 0zm1 0c-3-4 0-1 0 0zm1-1c1 0-1 0 0 0zm2 0c1-2-1-1 0 0zm1 0c1 0 0 0 0 0zm-3 0c0-1-1-1 0 0zm4 0c0-1-1-1 0 0zm-1-1c1 0-2 0 0 0zm-4 0c1 0-1 0 0 0zm4 0c1 0 0 0 0 0zm1 0s-1 0 0 0zm-7 0c3-1 1-4 0 0zm2 0c0-1-1-1 0 0zm1 0c0-1-1-1 0 0zm1 0c2-1-2-2 0 0zm3-1c1-1-2 0 0 0zm-1 0c0-1-1-1 0 0zm-1 0c0-1-1-1 0 0zm-2 0c1-1 0-1 0 0zm1 0c0-1-1-1 0 0zm-4-1c1 0 0 0 0 0zm0 0s-1 0 0 0zm4 0s-1 0 0 0zm3 0s-1 0 0 0zm-4 0c1-1-2-2 0 0zm2-1c-2 7 3-8 0 0zm1 0s-1 0 0 0zm1 0s-1 0 0 0zm0 0c1 0 0 0 0 0zm-7 0c1-1-1-1 0 0zm2 0c0-1-1 0 0 0zm2 0c1 0-1 0 0 0zm3 0c1-1 0-1 0 0zm0-1c0-1-1 1 0 0zm-6 0c1 0 0 0 0 0zm0 0c0-1-1-1 0 0zm3 0c0-1-1-1 0 0zm-1-1c0-3-1-2 0 0zm1 0c1 0 0 0 0 0zm1 0s-1 0 0 0zm2 0zm-3 0s-1 0 0 0zm0 0c1-2-1-3 0 0zm1 0c5-1-1-2 0 0zm-3 0c0-2-2-1 0 0zm2-1c-1-3-2-1 0 0zm-2-1c-2-1-1 0 0 0zm3 0s-1 0 0 0zm-3 0c1-1 0-2 0 0zm3 0c2-2-2 0 0 0zm-5-1c1 0 0 0 0 0zm3 0c3-2 0-1 0 0zm3 0s-1 0 0 0zm-5 0c4-3-2-1 0 0zm3 0c1-1 0-1 0 0zm3 0c0-1-1-1 0 0zm0 0c3-2-2-2 0 0zm1-1c-1 0 0 0 0 0zm-5 1c0-1-1-1 0 0zm3-1c1-1-1-1 0 0zm-1 0c2-1-2-1 0 0zm2 0s-1 0 0 0zm-4 0c1-3-1 1 0 0zm-1 0c0-1-1-1 0 0zm1-1s-1 0 0 0zm4 0c-2-1-1 0 0 0zm-2 0c3-2 0-1 0 0zm3 0s-1 0 0 0zm-5 0c-2-3-1 0 0 0zm1 0c0-2-1 0 0 0zm3 0c1-1-1-1 0 0zm-2-1c0-1-1 0 0 0zm3 0s-1 0 0 0zm-1 0c1-1 0-1 0 0zm-3-1s-1 0 0 0zm2 0c1 0 0 0 0 0zm1 0s-1 0 0 0zm-3 0c1-1 0 0 0 0zm5 0c-1-3 0 0 0 0zm-4 0c0-1-1-1 0 0zm1 0c2 0-2-3 0 0zm1-1s-1 0 0 0zm-2 0c1-1 0-1 0 0zm2 0c1-1-1-1 0 0zm3-1c0-1-1-1 0 0zm-6 0c1 0 0 0 0 0zm3 0s-1 0 0 0zm2 0c-1-3 1 0 0 0zm2 0c1 0 0 0 0 0zm-7 0c1-1 0-1 0 0zm6 0c1-2-1-1 0 0zm1-1c1 0 0 0 0 0zm-5 0c1-1 0-1 0 0zm6-1c0-1-1 1 0 0zm-6 0s-1 0 0 0zm1 0c0-1-2-1 0 0zm3 0s0-1 0 0zm1 0c1 0 0 0 0 0zm-2 0c0-1-1-1 0 0zm0 0c1-1 0-1 0 0zm2 0c1-1 0-1 0 0zm1 0c0-1-1-1 0 0zm0 0c1-1 0-1 0 0zm2-1c1-3-7 1-1 0h1zm-1 0c0-1 1-1 0 0zm-4 0s-1 0 0 0zm0 0c1 0 0 0 0 0zm0-1c2 0-1 0 0 0zm2 0c0-3-1 1 0 0zm1 0c0-2-1-1 0 0zm2 0c0-3-2 0 0 0zm-5-1c1 0 0 0 0 0zm6 0c1-2-1 0 0 0zm-5 0c4-2 0-1 0 0zm3 0c1-1 0-1 0 0zm-1-1c1 0-1 0 0 0zm1 0c1-4 1-2 0 0zm1 0c2 0-1 0 0 0zm-3-1c1 0 0 0 0 0zm1 0c1-1-1 0 0 0zm4 0c1 0-1 0 0 0zm-4 0c0-1-1-1 0 0zm6 0c1-1-2-2 0 0zm-1 0c0-1-1-1 0 0zm2 0c0-1-1-1 0 0zm-7-1s-1 0 0 0zm1 0s-1-1 0 0zm2 0c1 0 0 0 0 0zm1 0c1 0-1 0 0 0zm-1 0c1-1 0-1 0 0zm2 0c1-1-1-1 0 0zm-4-1c1 0-1 0 0 0zm3 0c2 0-2 0 0 0zm2 0c1-1-1 1 0 0zm0 0c1-1-2-1 0 0zm1 0c1-2-1 1 0 0zm-6 0c1-1-1-1 0 0zm1 0s-1 0 0 0zm0 0c1 0 0 0 0 0zm6 0c2 0-2 0 0 0zm-6-1c3 1 0-3 0 0zm2 0c2 0-1 0 0 0zm4 0s-1 0 0 0zm-4 0c0-1-1-1 0 0zm1 0c1-1 0-1 0 0zm1 0c1-1-1-1 0 0zm1 0c0-1-1-1 0 0zm1 0c0-1-1-1 0 0zm-5-1c2 0-1 0 0 0zm5 0s-1 0 0 0zm0 0c1 0 0 0 0 0zm-4 0c1-1 0-1 0 0zm1 0c2-1-1-2 0 0zm4 0c1-1 0-1 0 0zm-1-1c1-1-2 0 0 0zm-1 0c0-1-1-1 0 0zm3 0c1 0 0 0 0 0zm-4 0c1-1 0-1 0 0zm3 0c1-1 0-1 0 0zm-5 0c1-1 0-1 0 0zm1 0c0-1-1-1 0 0zm6-1c1-1-2 0 0 0zm-6 0s-1 0 0 0zm3 0s-1 0 0 0zm-2 0c1-2 0-2 0 0zm6 0c1-1-1-1 0 0zm-5-1s-1 0 0 0zm1 0s-1 0 0 0zm0 0c1 0 0 0 0 0zm1 0c1 0-1 0 0 0zm1 0c1 0 0 0 0 0zm-4 0c0-1-1-1 0 0zm3 0c0-1-1-1 0 0zm2 0c1-2-1 0 0 0zm-4 0c1-1 0-1 0 0zm1-1c0-1-1 1 0 0zm1 1c1-1 0-1 0 0zm-2-1c1-1-2 0 0 0zm6 0s-1 0 0 0zm-1 0c1-1-1-1 0 0zm1 0c0-1-1-1 0 0zm-5-1c1 0 0 0 0 0zm7 0s-1 0 0 0zm-5 0c1 0 0 0 0 0zm-1 0c0-1-1-1 0 0zm0 0c1-1 0-1 0 0zm7-1c1-1-1 0 0 0zm-5 0c1 0-1 0 0 0zm-1 0c0-2-1-1 0 0zm5 0s-1 0 0 0zm0 0c1-1 0-1 0 0zm-2-1c1 0 0 0 0 0zm4 0c3-2-3 0 0 0zm0 0s1 0 0 0zm-6 0c1 0 0-1 0 0zm3 0s-1 0 0 0zm-3 0c1-1 0-1 0 0zm3 0c0-1-1-1 0 0zm1 0c0-3-2-1 0 0zm1 0c0-1-1-1 0 0zm0 0c1-1 0-1 0 0zm2-1c1 0-1-1 0 0zm-6 0c1-1 0-1 0 0zm4 0c1-1 0-1 0 0zm-3-1c1 0 0 0 0 0zm5 0c1 0 0 0 0 0zm-3-1c3-3-4 2 0 0zm-2 1c0-1-1-1 0 0zm5 0c0-1-1-1 0 0zm1 0c1-1 0-1 0 0zm-3-1c0-2 0 1 0 0zm3 0c2-2-2 1 0 0zm-6 0c1-2-2 1 0 0zm4 0c1-1 0-1 0 0zm1 0c1-1-1 0 0 0zm-4-1c1 0 0 0 0 0zm2 0c1 0 0 0 0 0zm3 0s-1 0 0 0zm-1 0c1 0 0 0 0 0zm3 0c3-1 0-1 0 0zm-7 0c1-1 0-1 0 0zm1 0c1-1 0-1 0 0zm1 0c2-1 2 0 0 0zm3 0c1-1 0-1 0 0zm1 0c-1-3-3-4 0 0zm0-1c1 0 0 0 0 0zm-4 0c0-1-1-1 0 0zm2 0c1-1 0-1 0 0zm4-1c1-1-2-3 0 0zm0 0c1 0 0 0 0 0zm-2 0c2-2-2 0 0 0zm-3 0c0-1-1-1 0 0zm0-1s-1 0 0 0zm0 0c1 0 0 0 0 0zm1 0c1 0 0 0 0 0zm3 0c0-2-1 0 0 0zm-1 0c1-1 0-1 0 0zm-3-1c1 0 0 0 0 0zm2 0c1-1 0-1 0 0zm2 0c1 0-2-1 0 0zm0-1c0-1-1 0 0 0zm3 0c1 0 0-1 0 0zm-4 0c1-1-1-1 0 0zm5 0c1-1 0-1 0 0zm-1-1c2-1-1-1 0 0zm-4 0c1 0 0 0 0 0zm1 0c0-2-1 0 0 0zm2 0c1-2-1 0 0 0zm-1 0c1-1 0-1 0 0zm2-1c0-1-1-1 0 0zm1 0c1-1 0-1 0 0zm-3-1s-1 0 0 0zm1 0c1-2-1 0 0 0zm2 0c4 1 0-2 0 0zm-1 0c2-1-2-3 0 0zm0 0c1-1 0-1 0 0zm5 0c1-2 0-1 0 0zm-2-1c0-1 0 0 0 0zm2 0c1-1-1-1 0 0zm2 0c2-2-5-2 0 0zm0-1c-1 0 0 0 0 0zm-1 0c-1 0 0 0 0 0zm-7 0c1 0 0 0 0 0zm5 0c1-1 0 0 0 0zm1 0c0-1-1 0 0 0zm2 0c1 0-1 0 0 0zm0 0c0-2-1 0 0 0zm-7-1c1 0 0 0 0 0zm5 0c0-1-1 1 0 0zm3 0s-1 0 0 0zm-1 0c1 0 0 0 0 0zm-3 0c1-1 0-1 0 0zm2 0c1-1 0-1 0 0zm1 0c0-1-1-1 0 0zm2 0c0-4-1-1 0 0zm0-2c-1 0 0 0 0 0zm-4 1c0-1-1 1 0 0zm0 0c1 0 0 0 0 0zm1 0c4-2-1-1 0 0zm-4 0c0-1-1-1 0 0zm3-1c1 0 0 0 0 0zm0 0c0-1-1-1 0 0zm5 0c0-1-1-1 0 0zm-4-1c0-2-2-3 0 0zm1 0s-1 0 0 0zm-3 0c1 0 0 0 0 0zm1-1s-1 0 0 0zm1 0c1 0 0 0 0 0zm0 0c0-1-1-1 0 0zm149 57c-1 0 1-1 0 0zm2 0s1 0 0 0zm-2 0c-1-1 0-1 0 0zM6 207c0-1 1-1 0 0zm104 0c-1-1 0-1 0 0zm2 0c-2-2 1-1 0 0zm90-1c-3-2 4-1 0 0zm-9 0s1 0 0 0zm1 0c-1-1 1-1 0 0zm-82 0c0-1 2-1 0 0zm3-1c-1 1 0-1 0 0zm89-1c-1 1 0-1 0 0zm-110 0c-2 0 1-1 0 0zm1 0c-3-3-3 0-6-2 1-5 2-2 1-1 3 2 3-3 3-1-1 4 2 0 2 0l2-1c-1 3 0 0 1 3 2 0 1 0 0-3 1 0 2-2 2 0-1 3 2 3-2 4-1-1 1 0-3 1 2-2 0-1-1-2-1 0 2 0 1 2zm-4-1c0-3-1 1 0 0zm1 0c1-1-1-1 0 0zm5-1s-2 0 0 0zm-6 0c1 0 0-1 0 0zm-2 0c1-1 0-1 0 0zm10-2c2-2-1 0 0 0zm105 4s1 0 0 0zm-193 0c0-1 1-1 0 0zm100 0c0-1 1-1 0 0zm-99-1c-1 0 0-1 0 0zm101 0s1 0 0 0zm90 0c0-1 0-1 0 0zm-102-1c-2-1 2 0 0 0zm2 0c-1-1 0-1 0 0zm-15-1c-3-3 0-2-3-4 4-3-2 2 0-4 0 2 0-5 2-5 1 3 1-2 3-5 1 2 2-2 5-3 2 0 2-2 5 0 2 5 1 5-1 6-2-1-2 2-4 3-2 2-1-1-2 1 0 1-2 2-1 4 1 5-2 4-2 3-1 0-5-2-2 0v3c2-1 1 0 1 1h-1zm-1-4c1 0-1 0 0 0zm4-1c1 0 0 0 0 0zm-5 0c-1-2-1 0 0 0zm3 0c2-1-1 0 0 0zm1 0c4 0 1-5 0-2-3 0-3 0 0 2zm0-1c-2 0 4-1 0 0zm1-1s1 0 0 0zm-1 0s1 0 0 0zm-2 2c0-1-1-1 0 0zm0 0c2-2-1 0 0 0zm-2-1c2-1 1-3 3-1 3-3-2-3 0-2-1 0-1 2-3 2 1 0-2 1 0 1zm1-2c-1 0 1 0 0 0zm2 0c-1 0 0 0 0 0zm-1 1s-1 0 0 0zm3-1c5-3-3 0 0 0zm-5-1c3 0 0-4 0 0 5-4-3 1 0 0zm5 0c0-2-1 0 0 0zm1 0c0-3 2-7-1-5-1-1 3 3 0 3 0 0 1-4-1-2-1 2-1 1 2 3v1zm-3-3s1 0 0 0zm4 0c-1-1 0-1 0 0zm0-1s1 0 0 0zm-1-1c0 1 0-2 0 0zm-3 4c2-1 0-2 0 0zm-1 0c1-1 0-1 0 0zm0-1c0-1-1 0 0 0zm-1-1c1-1-1 1 0 0zm0 0c0-1-1-1 0 0zm3-1c-1-2-1 1 0 0zm4 0l2-2c-2 2-1-4 0-3 0-3-4 7-2 4v1zm-4-1c0-3 0-1 0 0zm7-1s-1 0 0 0zm-5 0c0-1-1-1 0 0zm6 0c0-1-2-2 0 0zm-7-1s-1 0 0 0zm0 0c2 0-3 0 0 0zm2 0s-1 0 0 0zm5 0c3-3-4-1 1-1l-1 1zm3 0s-1 0 0 0zm-9-1c2-1-2-1 0 0zm8 1c1-2-1-1 0 0zm-4-1s0-1 0 0zm5 0s-1 0 0 0zm-7 0c1-1 0-1 0 0zm3-1c2-2 0-4 0-1 0 1-2 0 0 1zm1-1c-1 0 1 0 0 0zm0 0c-1-1 0-1 0 0zm2 1s0-1 0 0zm-6 0c1 0-2 0 0 0zm5 0c0-1-1-1 0 0zm0 0c1-1 0-1 0 0zm-4-1c0-1-1 0 0 0zm4 0s-1 0 0 0zm0 0c1 0 0 0 0 0zm-3-1s-1 0 0 0zm3 0c2 0-2 0 0 0zm-4 0c0-1-1-1 0 0zm4-1c1 0 0 0 0 0zm0 0c0-1-2-1 0 0zm5 21s-2-2-3 0c-3 1 0-1 1-2 2-1 2 0 2 2zm-1-2s-1 0 0 0zm9 2c-1 0 0 0 0 0zm-10 0c-1 0 0 0 0 0zm-11 0c-1-3 2-3 0 0zm0-1c1 0 0 0 0 0zm14 1c-2-1 2-3 0 0zm0-1s1 0 0 0zm2 0c-1 0 0 0 0 0zm93 0c-1 0 0 0 0 0zm-82 0c-6-2 1-3-1-1l1 1zm-26 0c-1-3 3-5 0 0zm2-1c-3 1 6-6 1-1 0 2 1-2-1 1zm0 0c1-1-1-2 0 0zm1-1s-1 0 0 0zm1-2c1 0 0 0 0 0zm10 4c0-1 1-1 0 0zm1-1c-1-1 1-2 0 0zm1 1c-1-1 0-1 0 0zm0 0c0-1 1-1 0 0zm-19-1c-2-1 1-3 0 0zm16 0c-2-1-1-4 0 0zm13 0c-1-1 1 0 0 0zm-26 0c-1 0 0-1 0 0zm6 0c-1-1 1 0 0 0zm6 0c-1 0 0 0 0 0zm-7 0c-7-2 6-2 0 0zm5 0c-1-1 1-1 0 0zm-4-1v-1c2-1 3 0 1 1h-1zm2-1s-1 0 0 0zm-9 1c-2 0 1 0 0 0zm12 0l-4-3h2c2-2 3 0 2 1-2 2 1-1 0 2zm12 0c-1-1 3-3 0 0zm2 0c-1 0 1-3 0 0zM0 198c0-1 1-1 0 0zm95 0c-1-2 2-2 0 0zm6 0c-1-1 1-1 0 0zm-6-1c-3-1 2-2 0 0zm9 0c-3-1 1-1 0 0zm0 0s1 0 0 0zm7 0s1 0 0 0zm-101 0c-1-2 0-3 0 0zm89 0c-1 0-1-3 0 0zm-6-1c-2 2 1-3 0 0zm22 0s1 0 0 0zm-18 0c-1 0 1 0 0 0zm1 0c-1-1 0-1 0 0zm-4 0c0-1 1-1 0 0zm2 0c-1-1 0-1 0 0zm3 0c-1 0 0-2 0 0zm16 0c-1-1 0-1 0 0zm-18-1c-1 0 0 0 0 0zm1 0c-1 0 1 0 0 0zm15 0c-1 0 0 0 0 0zm100 0c-2-1-3-2-2-6 0 2 1-3 1 1l2 4-1 1zm0 0c1-2-2-1 0 0zm-1-2c1 0 0 0 0 0zm1 0c1 0-4-1 0 0zm-1-1c0-2-1-1 0 0zm-119 3c-1 0 1-2 0 0zm20 0c-1-1 1-1 0 0zM1 194s1 0 0 0zm109 0c-2-1 0-1 0 0zm6 0c-1 0 0 0 0 0zm98-1c-1 1-2-4 2-4 0 2 3 1-2 4zm0 0s-1 0 0 0zm1-1c4-2-1 0 0 0zm0-1c1-2-1-1 0 0zm-99 3c-1-1 0-1 0 0zm99 0c-1-1 0-1 0 0zm-122-1c-1 0 0 0 0 0zm9 0s1 0 0 0zm-17 0c-1-1 0-1 0 0zm8-1c-2 2 1-1 0 0zm11 1c0-1 1-1 0 0zm103-1s1 0 0 0zm-100 0c0-1 1-1 0 0zm-14-1s1 0 0 0zm120-1c-2 0 1 0 0 0zm-127 0c-1 0 0 0 0 0zm124 0c-2 1 1-1 0 0zm8 0c-2-2 2-4 0 0zm-5-1c-4-4 2 1 3 0h-3zm1 0c2-2 1-1 0 0zm1 0c1-1 0-1 0 0zm4 0s1 0 0 0zm-83-1c-2-2-3-1-4-5 2 5 2-1 2-1-4-6 0 2-2 0-1 0-3-1 0 3-3-1-2-7-3-5 0 3-5-4-3-2 0 0-5-8-6-6 1-1-1 1-2-2 2-3-1 2 0 0l-6-6c-2-1 6-6 4-4 0 2 2-4 2 1 0 2-4 1-1 1-2-4-3 2-2 1v2c3-4 2-2 4 0 1 4 4 4 3 2 4 2-2 1 2 2-2 0-2 3 0 1 2 0-4 3 2 2-3-4 2 1 0 0-2 0-2 3 1 0-3-4 1-3 0 0 2 1 0-4 2-3 1 0 1 3 1-1-3 2 5 2 0-1-1 2-3-1-3 1l3-4c2-2 2 2 2-2 4-3 1 1 2 0l4 1c2-2-4 0-3-3s5-1 4 1c1-2 3 4 1 2 0 4-4-1-5 4 1 4-3 2-3 3-1-2-1 2-3 1 0 0 3 3-1 1-5 2 1 2 0 2 0 4 2 2 3 3 2-1 3 1 2-2-1-1-1 2-3-2 2-2 1-2 3 1 0 2 4 3 3 3-1 2 4 1 2 1 5 2-1-4 3-3l1-1c3 0 1-2 2-2 3 0 3-1 1-2 2-2 6-3 5-4l4 5-4 5c-2-1-5 5-4 4-2 0-4 2-4 3l-4 5h-2zm1-1c1-1-2-1 0 0zm-1 0s-1 0 0 0zm-2-1s-1 0 0 0zm2 0c1 0-1 0 0 0zm3 0s-1 0 0 0zm-4 0c2 0-3 0 0 0zm2 0c0-1-1 0 0 0zm1 0c1 0 0 0 0 0zm-2 0c2-1-1-1 0 0zm2 0c1-3-2 0 0 0zm-5-1c1 0 0 0 0 0zm6 0c1 0-1 0 0 0zm-4 0c1 0-1 0 0 0zm5-1c4-6-1 0 0 0zm-1 0c1-2-2 0 0 0zm-4 0s-1 0 0 0zm1 0c1 0 0 0 0 0zm1 0c1-1-2 0 0 0zm1 0s-1 0 0 0zm-4 0c2 0-1-1 0 0zm2-1c-1-4 2 0 1-3-1-4-1 1-2 0l1 3zm2 0s-1 0 0 0zm-4 0s-1 0 0 0zm5 0c3-1-2 0 0 0zm2 0c1 0 0 0 0 0zm-3 0c1-1-1-1 0 0zm-1-1s-1 0 0 0zm1 0c1 0 0 0 0 0zm-6 0c1-1-2-1 0 0zm7 0c-1-4-1 0 0 0zm3-1c4 0-5-1-1 1l1-1zm-11 0s-1 0 0 0zm8 0c1 0-1-1 0 0zm-10 0c1 0 0 0 0 0zm2 0c1-4-3-2 0 0zm-1-1c-1-1 1-1 0 0zm4 1c0-2-1 0 0 0zm8 0c1-1-1-1 0 0zm-3-1c0-1-1 0 0 0zm1 0h-1 1zm3 0c2-1-2-1 0 0zm-10 0c1 0 0-1 0 0zm5 0c1 0 0 0 0 0zm-10 0c1-2-3-2 0 0zm6 0c3-2-1-1-2-3-1 1 2 3 2 3zm7 0c1-1 0-1 0 0zm-9 0c1-1 0-1 0 0zm-1-1c1-1 0 1 0 0zm12 0c1 0 0 0 0 0zm-14 0c1-1-1-1 0 0zm2 0c-1-2-2-2 0 0zm12-1c3 1-6-2 0 0zm-2 0s1 0 0 0zm-4 0c1 0 0 0 0 0zm9 0c2-1-1 0-1-2 1 1-4-3 1 2zm-18 0s-1 0 0 0zm3 0c1 0 0 0 0 0zm14 0s-1 0 0 0zm-10 0c0-1-2-1 0 0zm7 0c2-1 0-3 0 0zm-15 0c1-1-1-1 0 0zm20 0c1-2 0 0 0 0zm-21-1c1-1-1 1 0 0zm2 0s-1 0 0 0zm18 0c1 0 0 0 0 0zm-19 0c1-1 0-1 0 0zm-1-1s-1 0 0 0zm1 0s-1 0 0 0zm7 0s-1 0 0 0zm10 0s-1-1 0 0zm2 0c1-2 1-4-1-2 2 1 0 1 1 2zm0-2c-1-1 0 0 0 0zm-22 2c1-1 0 0 0 0zm23 0c1 0-2 0 0 0zm-22 0s-1 0 0 0zm1 0c1-3-2-1 0 0zm1 0c1-1-1-1 0 0zm15 0c2-1-2-1 0 0zm1 0c1-1 0-1 0 0zm1-1c0-1 0 0 0 0zm5 0s-1 0 0 0zm1 0c-1-3 2-2-1-2-1 4 1-1 1 2zm-27 0c-1-3-1 1 0 0zm4 0s-1 0 0 0zm16 0c2-1 1 1 0 0zm2 0c1-1-1 0 0 0zm3 0c0-2 2-3 0-4-2-2 3 3 3 0-2 1-3-3-6 1 2 0 4-2 2 2l1 1zm0-2s1 0 0 0zm-2 0c-1-1 0-1 0 0zm5-1c-1 0 0-1 0 0zm-20 2c1-1 0 0 0 0zm-7 0c0-2-5-1 0 0zm0 0c1 0 0 0 0 0zm20 0s-1 0 0 0zm1 0c1-1-1 0 0 0zm-1 0c1-1-1-1 0 0zm1-1c1 0 0 0 0 0zm-22 0c2-1-3-1 0 0zm29 0c1 0-1-5 0 0zm-22 0c1-1-1-2 0 0zm14-1s-1 0 0 0zm-23 0c2-1-1-1 0 0zm32 0c0-1-1-1 0 0zm0 0c1-1 0-1 0 0zm-32-1c1-2-1-1 0 0zm5 0s-1 0 0 0zm-7 0c2-2 1-2 0 0zm27 0c1 0 0 0 0 0zm4 0c1-1 0-1 0 0zm-30-1c1 0 0 0 0 0zm2 0c0-1-1 0 0 0zm5 0c1 0-2 0 0 0zm24 0c1-1-1 0 0 0zm-3 0c2 0-1 0 0 0zm-28-1s-1 0 0 0zm26 0c2-1 0 0 0 0zm2 0c0-1 0 0 0 0zm1 0c3 1 1 1 0 0zm-28 0c-1-1-1-1 0 0zm13 0c1 0 0 0 0 0zm17 0s-1 0 0 0zm-31 0c1 0 0 0 0 0zm15 0c0-2-1 0 0 0zm15 0c1-2-2-2 0-1v1zm-32-1c1 0-1 0 0 0zm14 0c2-3 3 3 2-4 2 0 0-2-1-1-3-2 2 2-1 2 1 3 0 2-1 0-1 2 2 2 1 3zm2 0c0-1 1-1 0 0zm-1-2s1 0 0 0zm-1 2c1 0 0 0 0 0zm-15 0c0-1-1 0 0 0zm16 0c1 0 0 0 0 0zm-15 0c1-1 0-1 0 0zm0-1s-1 0 0 0zm17 0s-1 0 0 0zm-18 0s-1 0 0 0zm0 0c1 0 0 0 0 0zm12 0c0-1-1 0 0 0zm19 0c1 0 0 0 0 0zm-33 0c0-1-1 0 0 0zm3 0c1 0 0 0 0 0zm-2 0c0-1-1-1 0 0zm1 0c2 0-3-3 0 0zm13 0c1-1-2-3 0 0zm4 0c3-1 0-2 0 0zm-2-1c1 0 0 0 0 0zm-14 0c0-1-1-1 0 0zm14 0c0-2-1-2 0 0zm-14 0c0-1-1-1 0 0zm-1-1s-1-1 0 0zm17 0c1 0 0-1 0 0zm-4 0c2-3 0 0 0 0zm2 0c1 0 0 0 0 0zm-15 0c0-1-2-1 0 0zm19 0c2-2-2-2 0 0zm-23-1c-1-3-1 1 0 0zm0 0c1 0-1 0 0 0zm1 0c0-2-2-1 0 0zm3 0c1-1-2-1 0 0zm21-1c1 0 0 0 0 0zm-23 0c1-3-2 0 0 0zm-1 0c0-1 1-1 0 0zm26 0c2 0-3-1 0 0zm-4 0c0-1-1-1 0 0zm5 0c0-1-1-1 0 0zm-2-1c0-1-1-1 0 0zm-2 0c5-1-4-2 0 0zm0-1c0-1 1 0 0 0zm-19 0s-1 0 0 0zm20-1c1-2-1 1 0 0zm-2 0c1 0 0 0 0 0zm1 0c1-1-1 0 0 0zm-1-1s-1 0 0 0zm1 0s-1 0 0 0zm82 29c-2-1 1-2-2-2 0-1 0 3-1 1-4-1 6-3 1-4 3-2 1-2 3-1 2 4 1-3 1-1-1-2 0-1 2-3 1-2 1-4 4-4l1-2c-1-2 3-1 3-2 0-4 2-2 3-3-3-2 6 4 2-3-1-2 3 0 2-1 1 0 0-4 1-1 2-1 0-3 2-4 2 0 3-5 3 0 0-1 4-1 3 1-4-1-1 3-1 1 2-1 1-4-1-5 2 2 5 0 3-1h-1c-1-3 5 2 0-2l5-4c2 0 0-3 4-3-1-3 5-2 4-2-1-3 1-5 2-3 1 1-1 1-2 4-5-1-1 1-4 1 3 2 5 0 4-1 1 3 4 1-1 3 1 2-3 6-2 2l-3 5c0 1-4 2-3 3 0 2-4 0-4 4 0-3 0 1-2 1 0 4-5 2-4 4l-1 1c-1 1-3-2-1-2 0 1-1-3-2 1 2 3 2 1 2 4-3 0-2 0-3 2-4 3-5 6-6 5-3 2-1 3-3 3 0-3 2-4-1-2 0-1-1 5 1 2l-6 7v-1l-2 2zm0 0s-1 0 0 0zm0 0c0-1-1-1 0 0zm0-1c0-2 0 1 0 0zm1 0c1 0 0 0 0 0zm0-1c-1-1 1-3-1 0h1zm-3-1s-1 0 0 0zm5-1c0-1-1-1 0 0zm-3-1c1 0 0 0 0 0zm4 0c1-1 0-1 0 0zm-3 0c0-1-1-1 0 0zm2 0c1-1-1-1 0 0zm1-1c1 0-1 0 0 0zm1 0c0-1-2-1 0 0zm1 0c1 0 0 0 0 0zm-3 0c1-1 0-2 0 0zm3-1c0-5-2-2 0 0zm-3-1c1-1 0 1 0 0zm1 0s-1 0 0 0zm0 0c0-1-1-1 0 0zm0-1c2-1-1-1 0 0zm-1 0c2 0-1 0 0 0zm0-1c1 0-1 0 0 0zm6 0c1 0 0 0 0 0zm-4 0c1-2-1 0 0 0zm1 0c0-1-2-1 0 0zm4 0c0-4 0-1 0 0zm0-1c-1 0 0 0 0 0zm0 1c1 0 0 0 0 0zm-3 0c1-1-2-2 0 0zm1-1c0-1 0-1 0 0zm-3-1c1 0-1 0 0 0zm1 0c3-2 5 0 4-1 2 2 0 1 0-1-3-1-2 1-4 2zm6 0c3-1-2 0 0 0zm-5 0s-1 0 0 0zm2 0c0-1-1 0 0 0zm0 0c1-1 0-1 0 0zm4-1c0-1-1-1 0 0zm-2-1c1-2-1 1 0 0zm3 0c0-2-3-2 0 0zm-3 0c1-1 0-1 0 0zm3 0c0-1-1-1 0 0zm-4-1c1 0 0 0 0 0zm2 0c-2-3-1 0 0 0zm2-1c0-3 0 0 0 0zm3 0c0-1-1 0 0 0zm-8-1c1 0 0 0 0 0zm4 0c0-2-1-1 0 0zm3 0c2 0-1 0 0 0zm-2-1s-1 0 0 0zm0 0c1 0-1-1 0 0zm1 0c1 0 0 0 0 0zm-2 0c1-2-1-1 0 0zm4 0s-1 0 0 0zm-2 0c1-1 0-1 0 0zm1 0c1-3-1 0 0 0zm-2-1s-1 0 0 0zm3 0c1 0 0 0 0 0zm0 0c0-1-1 0 0 0zm1 0c0-2-1-1 0 0zm-4 0c1-1 0-1 0 0zm0 0c0-1-1-1 0 0zm1 0c1-1 0-1 0 0zm4 0c1-1 0-1 0 0zm-5-1s-1 0 0 0zm0-1c2-1-1-1 0 0zm7-2c1 0-1 0 0 0zm1 0c-1-1 3-1 2-4 1-3-2 4-4 1 2 1 0 2 2 3zm0-1c-4-2 4-1 0 0zm2-2c-1-1 0-1 0 0zm0 3c1-1 0-1 0 0zm-6-1c1 0 0 0 0 0zm6 0s-1 0 0 0zm0 0c2-1 0-1 0 0zm1 0c1-2-1 0 0 0zm-5 0c1-1-1-1 0 0zm6-1c0-6-2 3 0 0zm-4-1c1 0 0 0 0 0zm3 0c1-3-1-1 0 0zm1 0s-1 0 0 0zm-3-1s-1 0 0 0zm3 0s-1 0 0 0zm-4 0c1 0 0-1 0 0zm5 0c1 0 0 0 0 0zm-3-1s-1 0 0 0zm-1 0c1-1-2-1 0 0zm2 0c3-1-3-1 0 0zm-1 0c1-1-2-3 0 0zm1-1c0-1-1-1 0 0zm1-1s-1-1 0 0zm3-1c3 1 0-2 0 0 0 0-1 0 0 0zm-5 0c1-1-1 0 0 0zm7 0c0-2-1 0 0 0zm-2-1c4-3 1-1 0 0zm2 0c1-1 0-1 0 0zm1-1c0-1-1-1 0 0zm1-1c0-1 0 0 0 0zm-5 0c1 0 0 0 0 0zm3 0c1 0 0-1 0 0zm1-1c3-1-2-1 0 0zm-1 0s-1 0 0 0zm4 0c1-1 0-1 0 0zm-1-1c1 0-2 0 0 0zm-1 0s-1 0 0 0zm2 0c0-1-1 0 0 0zm1 0c0-2-1-1 0 0zm1 0s-1 0 0 0zm-7 0c1-1 0-1 0 0zm2-1c2 0-2 0 0 0zm1 0c1 0 0 0 0 0zm-2 0s-2-1 0 0zm3 0s-1-1 0 0zm-2 0c1-1 0-2 0 0zm1 0c1-1-1-3 0 0zm3 0c1-1 0 0 0 0zm-2 0c1-1 0-1 0 0zm-1-1s-1 0 0 0zm3 0c0-1-1-1 0 0zm-2 0s-1 0 0 0zm0 0c1 0 0 0 0 0zm2 0c1-1 0-1 0 0zm1 0c0-2-1 0 0 0zm-3-1s-2-1 0 0zm1 0c1 0 0 0 0 0zm5 0c0-1-1 0 0 0zm-4-1c1-1-2 1 0 0zm0 0s1 0 0 0zm-1 0s-1 0 0 0zm2 0c1-1-1 0 0 0zm2 0c4-2-1-2 0 0-1-1-1 0 0 0zm1 0s-1 0 0 0zm-3-1s-1 0 0 0zm1 0s-1 0 0 0zm-3 0c2 0-1 0 0 0zm2 0c0-2-1-1 0 0zm-3-1c1 0 0 0 0 0zm4 0s-1 0 0 0zm1 0c2 0-3 0 0 0zm1 0c1-2 0 0 0 0zm1 0c0-2-1 0 0 0zm-4-1c1 0 0-1 0 0zm1 0c1-1 0-1 0 0zm4-4s-1 0 0 0zm-1 0c1 0-1 0 0 0zm1-2c1 0 0 0 0 0zM88 188s1 0 0 0zm0-1c-2-1 2-1 0 0zm133 0c-1 0 0 0 0 0zm-6 0c-3 1 0-4 0 0zm-1-1c1 0 0 0 0 0zm-115 1c-1-1 0-1 0 0zm117-2c-1-3 4-1 1-2 1 3-1 0-1 2zm-127 0c0-1 1 0 0 0zm134 0c-1-1 1-1 0 0zm0 0s1-2 0 0zm-213-1c-1 0 1 0 0 0zm0-1c-1 0 0 0 0 0zm121 0s1 0 0 0zm90 0c-1 0 0 0 0 0zm-4-1c-1 0 2 0 0 0zm-84 0c0-1 1-1 0 0zm-122-1c-2 0 1 0 0 0zm133 0s1 0 0 0zm76 0c-2-1 1-3 0 0zm-125-1c0 1 1-1 0 0zm131-1c-1 0 2 0 0 0zm3 0c0-1 2-1 0 0zm-131 0c-1 0 0 0 0 0zm-85 0c0-1 1-1 0 0zm214 0c-1-1 0-1 0 0zm-87-1c-4-1 0-2 0 0zm90 0s1 0 0 0zm-100-2c-4-1 0-3 0-1 3 1 0 2 0 1zm2 0c-1 0 1 0 0 0zm16 0c0-1 1 0 0 0zm1 0s1 0 0 0zm-19-2c-1-1 1-1 0 0zm-2-1c-1 0 0 0 0 0zm0 0c-1 0 2 0 0 0zm4-1c-2-1 3-4 0 0zm0-1c1-1 0-1 0 0zm-8 1c-2-1 1-1 0 0zm4-1c-1 0 1 0 0 0zm3 0c-1 0 0 0 0 0zm-6 0c-1-1 0-1 0 0zm9 0c-1-1 0-1 0 0zm18-1c-1 0 1-2 0 0zm-28-1c2-4 2 1 0 0zm2 0c-1 0 0 0 0 0zm10-1c-2 0 3-6 2-1 0-3-1-1-2 1zm0-1c1 0 0 0 0 0zm100 1c-4-3 2-6 0 0zm-1-3c1-1-1 1 0 0zm-114 2c-4-1 0-2 0-2-2-3 0-3-2-2v-2c2-3 0-3 1-6 2-2 2-1 4-1-3-1 3-5 1-4 4-2 1 4 1 3-1 2 0 1 1 2-2 2 1 0 0 2 1 2-1 0-1 2-3-2-2 2-1 1-3 3-4-1-4 3 2-1 5 1 3 2 0 1-2 0 2 2-1 1-3 0-4-1-4-1 2 0-1 1zm0 0c0-1-1-1 0 0zm3-1c1-1 0-1 0 0zm-2-1c1-3-3-1 0 0zm-1-1c-1-1 1 0 0 0zm1 1c1-1-1-1 0 0zm-2-3c2-1-1 0 0 0zm0-1c1-1 4 0 2-2 0-5-1 2-2 2zm0-1s3-1 0 0zm3 1c1 0 0 0 0 0zm1 0c0-1-1-3 0 0zm-2-2c2-1-1 0 0 0zm-1 0c0-1-1-1 0 0zm4 0c1-3 0 0-1-1l1 1zm-3-1s3-2 0-2c-1-1-3 1 0 2zm1-1c-4 0 2-1 0 0zm0 0s-1 0 0 0zm-1 0c1 0-1 0 0 0zm4 0c0-3-2-3-2-2-2 1 1 1 2 2zm-6-1c1-1-1 0 0 0zm3-1c1 0-1-1 0 0zm2-1c1 0-1-1 0 0zm0-1c1-2-2 0 0 0zm1 0c0-1-1-2 0 0zm0-2s-1 0 0 0zm4 16s1 0 0 0zm-8 0c-1 0 0 0 0 0zm5 0c-1 0 0 0 0 0zm111 0c-1-1 0-1 0 0zm-1-1c0-1 2-1 0 0zm-100-1c-1 0 0 0 0 0zm0 0c-1-1 0-1 0 0zm-22-1c0-1 1-1 0 0zm5-1c-1 0 0 0 0 0zm3 0c-3-2 2-2 0 0zm117-1c0-1 1-1 0 0zm-203-1c-1 0 0 0 0 0zm3 0c-1-1 0-1 0 0zm1-1c-1 0 0 0 0 0zm94 0c-5 1 2-1 0 0zm104 0s1 0 0 0zm-120 0c-2-1 1-1 0 0zm0 0c0-1-1-1 0 0zm129 0c0-1 1-1 0 0zm1-1c-1 1 0-1 0 0zm-133 0c0-1 1 0 0 0zm-74-1c-3 2 0-3 0 0zm0 0c1 0 0 0 0 0zm77 1c-4-2 1-4 1-1l-1 1zm0-1c0-1-1 1 0 0zm47 1l-3-4c-1-2 2-5-1-2 0 2-2-1 0-1 1 1 1-3-2-3-1 5-2-1-2 0-1 1-5-3-2-2 4 3 0 0 1-1v2l-5-4-2-2c2-1-1-3 2-2 0 3 4 3 4 4-2-1-4-2-3-4-1-2 3 1 2-4 0 1 5 4-1 4v1c1 1 1 4 3 3l4-2c-3 3 4 2 2 3-2 2 2 3 0 2-4 3 0 0 1 2 0-1-3 1-1 2 1-1 4 3 4 1 0-3 2-1-2-5 1 1 3 0 4 4-1 3 0 1 2 2-2-1-1-4 1 1-4 0-1 2-4 3l-2 2zm0 0c1-1 0-1 0 0zm1-1c0-1-3 0 0 0zm0-1c2-4-4 0 0 0zm0-1c-2 0 1-1 0 0zm-2 1c0-1-1-1 0 0zm0 0c1-1 0-1 0 0zm-2-1c1-1 0-1 0 0zm1 0c0-1-1-1 0 0zm0 0c1-1 0-1 0 0zm5-1s-1 0 0 0zm-5 0c0-1-1-1 0 0zm1 0c0-1-1-1 0 0zm2 0c0-1-1-1 0 0zm-1-1c2-1-2 0 0 0zm1 1c1-1 0-1 0 0zm-4-1c1 0 0 0 0 0zm1 0c1 0 0 0 0 0zm1 0c0-1-1-1 0 0zm3 0c1-3-2 0 0 0zm2 0c1-1-2 0 0 0zm1 0s-1 0 0 0zm-5-1c1 0 0 0 0 0zm0 0c-1-1-3-1 0 0zm-2 0s-1 0 0 0zm4 0c0-2-1 0 0 0zm2 0c0-1-1-1 0 0zm-6-1c1 0 0 0 0 0zm3 0c0-1-1-1 0 0zm1 0c0-1-1-1 0 0zm0-1c1-1 0-1 0 0zm-10-2c1 0 0 0 0 0zm1 0c2-1-1-1 0 0zm1 0c0-2 3-6 0-3v3zm1-1c1-1 0-1 0 0zm0-1s-1 0 0 0zm-2 0c1-1-1-1 0 0zm-4-1s-1 0 0 0zm3 0c2-4-4-1-1-1l1 1zm0-1c-1 0 1 0 0 0zm2 1c3-1-4-2 0 0zm-8-2c1 0 0-1 0 0zm1-1s-1 0 0 0zm3-4c2 0-3-1 0 0zm94 20c-1-1 0-1 0 0zm-113-1c-1 0 1 0 0 0zm-8-1c-1 0 0 0 0 0zm116 0c-1-1 0-1 0 0zm-209 0c-1-1 0-1 0 0zm93-1c-1 0 0-2 0 0zm116 1c0-1 2-1 0 0zm7-1c-1 0 1-1 0 0zm-7 0c-1 0 0-2 0 0zm-117-1c-2 0 1 0 0 0zm2 0c-1-1 1-3 0 0zm-9 0c-1-1 0-1 0 0zm8 0c-5-2 0-3-2-6 2-2 1 1 2 0l-1 4c3 2-1-4 2-2 0-3-1-2 2 1l-3 1v2zm0 0c-1-3-1 0 0 0zm-1-1c2 0-2 0 0 0zm-1-1c1-1-1 0 0 0zm1-1s-1 0 0 0zm-1-3s-1 0 0 0zm120 6c-2 0 2 0 0 0zm-77 0c-2 0 2-1 0 0zm-47-1s1 0 0 0zm8-1s1 0 0 0zm1 0c-1 0 0 0 0 0zm-9 0c-1 0 0 0 0 0zm38 0c-3-1 0-2-2-3 4-1 1 1 2 3zm-112-2c-1-2-2 0-3-3 2 3 1-1 1-1-3-3 2 1 0-2l4-3s2-3 5-2c-1 0-3-1-1-2 0-3 3 2 1-3 5 3-1-1 3-1-1-2 3-1 3-3-1-1 5-6 4-4l3-3 7-8 5-4c0 2 1-4 3-1 2-1 1-1-2-1 3-2 2 0 3-3 2 3 4 0 2 2l4-1c1-2-2-4-2-2-4 2-1-3 0-2 3-1 2-4 4-3-1-1 2-4 4-5 1-1 4-5 2 0-2 2-4 3-1 2s3-3 2-3c0-4 1-5 2-4 4 2 2-1 2-1-2 1 1-3 1-2 1 1 3-5 4-3 3-1 0 1 2-4 1 2 1-2 3-2 3-2 4-5 3-4 3 0 0 0 3-2 1 0 1-3 2-1 5 0-1 0 1-3 4-2 3-4 6-2 2 0 1-3 0-1-3 0 0-2 0-3-1 3 3-3 4-3s4-6 7-7c1-5 7 0 4-2 1 0-3-2 2-4l2-3c2-1 1 6 2-1-1-2 6-3 4-3s1-3 3-4l3-3 3-2c-1-5 4-1 2-3 1-2 3 1 2-1 2-1 0-1 2-3 1-2 1 1 1 0 2 2 1-6 3-2-1-2 0-4 1-3 3 0 2-2 3-4 3-1 3-4 5-2 3 2 3 0 5 1-2 3-4 2-4 5-2 0-1 2-4 2s2 1-2 3c-1 2-4 1-3 2-4-1 3 1-2 1 1 0 0 5-3 4 3-4-3 1 1 0-2 3-5 2-3 1 1-2 0-2-1-2 0 3-2 0 0 4 1 1-8 7-6 6-1 2-1 2-3 2-2-3 0 0-1 0-4 1 4-1 2 2l-5 3c1-3-2 5-3 2-2 2-1 1-2-1-4 1 5 5-2 6 1 1-4 4-3 4-1 2-4 2-4 5-3-1-2 3-6 5 0-1-6 2-4 3 1-2 1-3-2-3-1 1 3 1-1 3-1 3 4-2 2 2-2-1-2 5-3 2-1 0 0 2-2 3l-3 3c-1-4-1 4-4 3l-4 5c-2 0 0 2-4 3l-1 2c-2 2-1 0-3 1-2 4 0-1-2 0-1-1 1 2-1 3 1-1 3-1 1 2l-5 4c0-2-1 3-4 3l-2 3-4 2c-2 5-5 8-8 9-2 5-8 6-9 10l-6 6c-5 4 0-4-2-2l-1 4-4 4-1 2c-6 4-4 1-3 1 0-3-1-1-2 2 1-1 4-1 1 1l-3 2zm0 0c2-2 0-1 1-3l-1 3zm0 0c-1 0 0-2 0 0zm0-3c1-2-3-1 0 1v-1zm2 1c1-1 0-1 0 0zm-1-1c0-4-3-4 0 0zm1-1c0-1-1-1 0 0zm-4-1c1 0-1 0 0 0zm4 0c1 0-1 0 0 0zm-1 0c1-1-1-1 0 0zm5 0c1-1 0-1 0 0zm-1-1c1 0-2 0 0 0zm1 0c0-1-1 0 0 0zm-5 0c0-1-1-1 0 0zm1-1c0-1-1-2-1 1zm0 1c1-1 0-2 0 0zm-2-1c2 0-1 0 0 0zm4 0c1 0 0 0 0 0zm1 0c1 0-1-1 0 0zm-2 0c1-1 0-2 0 0zm1 0c1-3-1-3 0 0zm1 0c2-2-1-2 0 0zm-1-1s-1 0 0 0zm4 0c0-3 4-2 2-3-3-1-1-2-3 1 0 4 1-3 1 2zm0-2c-1-1 3 0 0 0zm-5 1c0-2 1 0 0 0zm3 0c0-1-1-1 0 0zm-2-1c1 0-2 0 0 0zm2 0s-1 0 0 0zm-2 0c1-1 0-1 0 0zm5-2c1 0 5-3 1-1h-1v1zm2-2c-1 0 0 0 0 0zm1 0c-1 0 0 0 0 0zm-7 2s-1 0 0 0zm2 0c1 0 0 0 0 0zm5-1c1 0-1 0 0 0zm-4-1c1 0 0 0 0 0zm3-1c3-2-3-2 0 1v-1zm0 0c-1 0 0 0 0 0zm5 0c1-1-4-1 0 0zm-1-1c0-2-1-1 0 0zm-4-1c1 0 0 0 0 0zm3 0c-1-3 1 1-1 0h1zm2 0s-1 0 0 0zm0 0c1 0-1-1 0 0zm1 0c1 0 0 0 0 0zm-2 0c1-2-1-1 0 0zm2 0c1-1 0-1 0 0zm-1-1c0-2 0 0 0 0zm-5 0s-1 0 0 0zm7 0s-1 0 0 0zm-6 0c0-1-2-1 0 0zm3 0c2-2-2 0 0 0zm2 0c1-1 0-1 0 0zm1-1c1 0-1 0 0 0zm-4 0s-1 0 0 0zm0 0c1 0 0 0 0 0zm3 0c1 0 0-1 0 0zm2 0c1 0 0 0 0 0zm0 0c0-1-1-1 0 0zm1 0c1-1 0-7 0 0zm-6 0c0-1-1-1 0 0zm0 0c1-1 0-1 0 0zm2-1c7-1-4-1 0-2 1 2-4 1 0 2zm2 1c1-1 0-1 0 0zm1-1s-1 0 0 0zm-6-1c1 0 0 0 0 0zm2 0c1 0 0 0 0 0zm4 0s-1 0 0 0zm1 0c1 0-1 0 0 0zm-6 0c1-1-1 0 0 0zm3 0c1 0-1-1 0 0zm2-1c4-3 0 0 0 0zm1 1c2-2-1-2 0 0zm1 0c1-1 0-1 0 0zm-5-1c2 0-2 0 0 0zm6 0c1-1-2-1 0 0zm-4-1c4-3-2-2 0 0zm-1 0s1-1 0 0zm2 0c1 0-1-1 0 0zm4 0c0-1-1 1 0 0zm-1 0c2-1-2-1 0 0zm1 0c2-2-1 1 0 0zm-7 0c1 0 0 0 0 0zm5-1c1 0-2 0 0 0zm3 0s-1 0 0 0zm-4 0c1-1 0-1 0 0zm2 0c0-1-1-1 0 0zm1-1c1 0-1 0 0 0zm0 0c1 0 0 0 0 0zm1 0s-1 0 0 0zm-4 0c1 0-1 0 0 0zm4 0s-1 0 0 0zm0 0c1 0 0 0 0 0zm-5 0c1-1 0-1 0 0zm2 0c0-1-1-1 0 0zm0 0c2-1-1-2 0 0zm5 0c0-1-1-1 0 0zm-1-1c1-1-2 0 0 0zm-1 0c0-1-1-1 0 0zm2 0c1 0 0 0 0 0zm-4 0c1-1 0-1 0 0zm4 0c0-1-1-1 0 0zm-5 0c0-1-1-1 0 0zm0 0c1-1 0-1 0 0zm6-1c2-1-2 0 0 0zm-6 0c1 0 0 0 0 0zm3 0c1 0 0 0 0 0zm-2 0c2-2 1-2 0 0zm1-1c1 0 0 0 0 0zm1 0c1 0 0 0 0 0zm1 0s-1 0 0 0zm1 0c1-1-2-1 0 0zm-5 0c1 0 0 0 0 0zm6 0c1 0-1-1 0 0zm1 0c1 0-1-1 0 0zm-4 0c0-1-1-1 0 0zm0-1c1-1-1 1 0 0zm-1 0c2-1-1 0 0 0zm6 0c0-2-1 1 0 0zm-1 0c0-1-1-1 0 0zm0 0c1-1 0-1 0 0zm-4-1c1 0 0 0 0 0zm3 0s-1 0 0 0zm1 0c1 0 0 0 0 0zm1 0s-1 0 0 0zm-4 0c0-1-1-1 0 0zm1 0c0-2-1-2 0 0zm3 0c1-2-1 0 0 0zm-1-1c0-2 0 0 0 0zm2 0s-1 0 0 0zm1 0c2-1-2 0 0 0zm-2-1c4-1-1 0 0 0zm-4 0c1 0 0 0 0 0zm3 0c0-1-4-2 0 0zm0 0c-1 0 0 0 0 0zm4 0c1 0 0 0 0 0zm-6 0c1-1-2-1 0 0zm3 0s-1 0 0 0zm2 0c1 0 0 0 0 0zm0-1c2-2 0 0 0 0zm-2 0c2-1 0-3 0 0zm3 0c0-1-1-1 0 0zm2 0c-1-2-1-1 0 0zm-6 0c0-1-1-1 0 0zm1 0c1-1-2-1 0 0zm5 0c1-1 0-1 0 0zm-7-1s-1 0 0 0zm4 0c1 0 0-1 0 0zm-3 0c1-1 1 0 0 0zm5-1c2 0-2-1 0 0zm-4 0c0-1-1 0 0 0zm2 0c1 0 0 0 0 0zm4 0c1-1 0-1 0 0zm-1 0c1-1-1-1 0 0zm-1-1c1 0 0 0 0 0zm2 0c0-1-1 1 0 0zm1 0c0-1-1-1 0 0zm-5 0s-1 0 0 0zm2 0c1 0-2-1 0 0zm0 0c1-1 0-1 0 0zm-3-1s-1 0 0 0zm1 0s-1 0 0 0zm3 0s-1 0 0 0zm-2 0c1-1 0-2 0 0zm1 0c1-2 1-1 0 0zm4 0c0-1-1 0 0 0zm-2 0c0-1-1-1 0 0zm-2 0c0-1-1-1 0 0zm3-1c0-1-1 0 0 0zm-1 0c2-1-1 0 0 0zm2 0c1-2-1 0 0 0zm-3-1c1 0-1 0 0 0zm1 0c1 0 0 0 0 0zm1 0s-1 0 0 0zm-1 0c0-1-2-1 0 0zm2 0c1-1-2-1 0 0zm-4-1c1 0-1 0 0 0zm5 0c3-1-1 1 0 0-1-1-1 0 0 0zm1 0c1 0-1 0 0 0zm2 0c1-1-1-1 0 0zm-4-1c1 0-1 0 0 0zm0 0c1 0 0 0 0 0zm3 0c1-1-1-1 0 0zm1 0c1-1 0-1 0 0zm-4-1c1-1-2 1 0 0zm3 0s-1 0 0 0zm-1 0c0-1-1-1 0 0zm-3-1s-1 0 0 0zm1 0c0-1-1 0 0 0zm6 0c1-1 0-1 0 0zm-4-1c1-1 0-1 0 0zm1 0c0-1-1-1 0 0zm3-1c1 0 0-1 0 0zm-2 0c1-1 0-1 0 0zm2 0c0-2-1 0 0 0zm1 0c0-2-1-1 0 0zm1 0c1-1 0-1 0 0zm-3-1s-1 0 0 0zm0 0c1-1-1-1 0 0zm4 0c1-5 2-2 2-4-1-2-2-4-2-2v4c0 4-5-3 0 2zm1-4c-1 0 0 0 0 0zm0-2s1 0 0 0zm-1 0c-1 0 1-1 0 0zm-6 6c1-1 0-2 0 0zm1 0c2-1-1-4 0 0zm2-1c1-1 0-1 0 0zm-2 0c1 0 0 0 0 0zm1 0c1-1 0-1 0 0zm3 0c0-2 0-1 0 0zm2-1c1 0 0 0 0 0zm-4 0s0-1 0 0zm1 0s-1 0 0 0zm-3 0c1-1 0-1 0 0zm2-1s-1 0 0 0zm6 0c1 0 0 0 0 0zm-7 0c1-1 0-1 0 0zm3 0c2-1 0-2 0 0zm-2 0c1-1 0-1 0 0zm1 0c1-1 0-1 0 0zm6 0c3-3-3-1 0 0zm-2-1c0-2-1 0 0 0zm-3-1c1 0-1 0 0 0zm0 0c1 0-1 0 0 0zm3 0c1-1 0-1 0 0zm2 0c4-1-3-3 0-1v1zm-1 0c1-1 0-1 0 0zm3 0c1-1 0-1 0 0zm-6-1s-1 0 0 0zm-1 0c1-1 0-1 0 0zm8 0c0-1-3-2 0 0zm-2-1c1-1 0-1 0 0zm-3 0c1-1 0-1 0 0zm3-1s-1 0 0 0zm-2 0c1-1-1-3 0 0zm1-2c-1-2 0 0 0 0zm2 0c0-1-1-1 0 0zm2-1c2 0-3 0 0 0zm1 0c1 0 0 0 0 0zm-2 0c1-1-1-2 0 0zm2 0c2-2-2-2 0 0zm-1-1c2-1-2-2 0 0zm2 0c1 0 0 0 0 0zm1 0c1-2-1-1 0 0zm0 0c0-3-2-1 0 0zm-1-1s1 0 0 0zm3 1c0-2-1 0 0 0zm-8 0c1-1 0-1 0 0zm5-1c0-1-1 0 0 0zm2 0c1 0-2-2 0 0zm2-1c1-3-2 1 0 0zm-2 0c2-1 0-1 0 0zm3 0c0-1-1-2 0 0zm-4-1c-1 0-1 0 0 0zm0 0c1 0 0 0 0 0zm1 0c1 0 0 0 0 0zm0 0c2-2-3-2-1-1 1-1 0 1 1 1zm-2-1s-1 0 0 0zm3 0c3 0-2 0 0 0zm1-1c3-1-2-3 0-1v1zm-1 1c1-1-1-1 0 0zm2 0c0-1-1-1 0 0zm1-1c1 0-2 0 0 0zm-3 0c0-1-1-1 0 0zm-2 0c1-1 0-1 0 0zm5 0c4-3 2-2 0-2v2zm2-2c0-1 1-1 0 0zm-1 2c2-1-1-1 0 0zm1-1c2 0-1 0 0 0zm-6 0s-1 0 0 0zm1 0c0-1-1 0 0 0zm-1 0c0-1-1-1 0 0zm1-1c0-1-1 1 0 0zm2 0c1 0 0 0 0 0zm1 0c1 0 0 0 0 0zm-1 0c0-1 0-1 0 0zm1-1c1 0 0 0 0 0zm-3 0c1 0 0 0 0 0zm6 0c1 0 0 0 0 0zm-2 0c0-1-1-1 0 0zm1-1c-1-1 0 0 0 0zm0 0s-1 0 0 0zm2 0s-1 0 0 0zm1 0s-1 0 0 0zm0 0c0-2-1-2 0 0zm-4-1c1-1-3-1 0 0zm2 0s-1 0 0 0zm3 0c0-3-3-2 0 0zm-4 0c-1-1-2-1 0 0zm5 0c2-1-1-1 0 0zm-1-1s-1 0 0 0zm-4 0c1 0 0 0 0 0zm0 0c0-1-1-1 0 0zm-1 0c1-1 0-1 0 0zm2-1c2 0-1-3 0 0zm3 0c-1-1 1-2-1-3-1 1-1 2 1 3zm-1-2c-1 0 0 0 0 0zm0-1s1 0 0 0zm2 2s-1 0 0 0zm0 0c5-3-4 0 0 0zm2 0c2-1 0-1 0 0zm1 0s-1 0 0 0zm-6 0c1-1 0-1 0 0zm4 0c1-1-1 0 0 0zm0-1c2-4 2-4 0-2v2zm2 0c2-1-2 0 0 0zm-3-1c1 0 0 0 0 0zm2 0c1-1-1 1 0 0zm-2 0c1-2-2 1 0 0zm0 0c1 0 0 0 0 0zm3 0c0-2-2-1 0 0zm1 0c2-1 0-4 0-1v1zm0-2c0-1 1-1 0 0zm1 2c0-1-1-1 0 0zm-6-1c1-1 0-1 0 0zm1 0c1-1 0-1 0 0zm2-1s-1 0 0 0zm4 0c1-1 0-1 0 0zm-4-1c1-1 0-1 0 0zm1 0c1-2 1-1 0 0zm3-1c1 0 0-1 0 0zm-4 0c1-1 0 0 0 0zm3 0c1 0-1 0 0 0zm-1 0c1-1 0-1 0 0zm2 0c0-2-1 0 0 0zm1 0c0-2 0-1 0 0zm1 0c0-1-1-1 0 0zm-5-1c3 0-2 0 0 0zm1 0c1 0 0 0 0 0zm1 0c0-1-1-1 0 0zm4 0c1-2 1-2 0 0zm-5-1s-1 0 0 0zm3 0c0-2-2-1 0 0zm4-1s-1 0 0 0zm-6 0c2-1 0-2 0 0zm2-1c2-2-1 0 0 0zm5 0c1-1 0-1 0 0zm0-1c5-1 0-1 0 0zm-5 0c1-2-2 0 0 0zm1-1s-1 0 0 0zm1 0c1-1-2 0 0 0zm3 0c-1-1-1-1 0 0zm-2 0c0-1-1 0 0 0zm2 0c1 0 0 0 0 0zm-4 0c2-1-2-1 0 0zm6 0c1-1-2 0-2-1-1 1 1 0 2 1zm-5 0c1-1 0-1 0 0zm1-1s-1-1 0 0zm5 0c0-1-1-1 0 0zm1 0c0-2-1-1 0 0zm-6-1s-1 0 0 0zm4 0s-1 0 0 0zm-1 0c-1-5-2-1 0 0zm1 0c0-1-1-1 0 0zm1-1c1 0-1 0 0 0zm1 0c0-2 0 1 0 0zm2 0c0-1-1-1 0 0zm-4-1c4 0-2-4 0 1v-1zm0 0c-1-1 0-1 0 0zm2 0c3-2-1-1 0 0zm1 0c1 0 0 0 0 0zm1-1c1 0-1 0 0 0zm-6 0c1-1-1 0 0 0zm3 0c1-1 0-1 0 0zm2-1c3-1-1-1 0 0zm3 0c1 0 0 0 0 0zm-4 0c1 0 0 0 0 0zm3 0c1 0 0 0 0 0zm-4 0s-1 0 0 0zm4 0c1 0-2 0 0 0zm-2-1c1-3-1 0-1 0h1zm3 1c3-1 0-3-1-1 2 0 1 0 1 1zm0-1c-1-1 2-1 0 0zm-5 0c1 0-1 0 0 0zm3 0s-1 0 0 0zm0-1c0-1-1 1 0 0zm5 0c0-1-1 1 0 0zm-4 0c2-1-2-1 0 0zm1 0c0-1-1-1 0 0zm1-1zm1 1c1-1 0-1 0 0zm-3-1c1-1-4-2 0 0zm1 0c1 0 0 0 0 0zm3 0s-1 0 0 0zm-1 0c1 0 0 0 0 0zm-5-1c0-1-1 1 0 0zm3 1c1-1 0-1 0 0zm3 0c1-1-1-1 0 0zm-3-1c0-1-1 1 0 0zm1 0c1-1-1-1 0 0zm1 0c-1-2-2-2 0 0zm2 0s-1-1 0 0zm-5 0c1 0 0 0 0 0zm-1 0c4-3-1 0 0 0zm5 0c1-1 0-1 0 0zm-5-1s-1 0 0 0zm6 0c3-1-2-1 0 0zm-1 0c0-1-1-1 0 0zm-4-1c1 0 0 0 0 0zm1 0c1 0 0 0 0 0zm6 0c1 0 0 0 0 0zm-1 0c1 0-1 0 0 0zm0 0c0-1-1-1 0 0zm1 0c1-2-1 0 0 0zm-7-1c1 0 0 0 0 0zm3 0c1 0 0 0 0 0zm2 0c2 0-2 0 0 0zm1 0s-1 0 0 0zm-4 0s-1 0 0 0zm1 0c0-1-1-1 0 0zm4 0c3-2-4-1-1-1l1 1zm1 0s-1 0 0 0zm-3 0c0-1-1-2 0 0zm-3-1c0-2 0 1 0 0zm1 0c0-1-1 0 0 0zm2 0c1 0 0 0 0 0zm4 0c-1-2-1-1 0 0zm1 0c3-5 1-1-1-1l1 1zm0-1c-1 1 1-1 0 0zm-6 0c1-2 1 0 0 0zm2 0c1 0-1-1 0 0zm2 0s-1 0 0 0zm-1-1c0-1-1-1 0 0zm1 0c3 1 2-3 0 0zm-3 0c0-2-1-1 0 0zm1 0c0-1-1-1 0 0zm4-1c1-1 0-1 0 0zm-3-1c0-1-1-1 0 0zm2 0c1-1-1-1 0 0zm-1-1c1-1 0 1 0 0zm-1 0c1 0 0 0 0 0zm7 0c0-3 1 1 0 0zm-3 0c1 0 0 0 0 0zm1 0c1-1-1-2 0 0zm3 0c0-1-1-1 0 0zm-2-1c3-1-1-2 0 0zm-2-1s-1 0 0 0zm2 0s-1 0 0 0zm-1 0s-1 0 0 0zm3 0c0-1-1-1 0 0zm-3-1c1 0-1-1 0 0zm2 0c1 0 0 0 0 0zm3 0c-1-3 1 0-1 0h1zm1 0c1-2-1-1 0 0zm1-1s-1 0 0 0zm-7 0c1-1 0-1 0 0zm2 0c0-1-1-1 0 0zm-1-1c1 0 0 0 0 0zm2 0c0-1-2-1 0 0zm0 0c2-4-1-4 0 0zm0-1s1 0 0 0zm1 0c-1-1 0-1 0 0zm1 1c1 0 0-1 0 0zm2 0s-1 0 0 0zm-2 0c0-1-1-1 0 0zm0 0c1-1 0-1 0 0zm2 0c0-1-1-1 0 0zm0 0c1-1 0-1 0 0zm1 0c1-1 0-1 0 0zm-6-1s-1 0 0 0zm3 0s-1 0 0 0zm0 0c1 0 0 0 0 0zm-3-1c1 0-1 0 0 0zm3 0c2 0-2 0 0 0zm0-1c1 0 0 0 0 0zm3 0c1 0 0 0 0 0zm1 0c1-1-1 0 0 0zm1 0c1 0 0-1 0 0zm-4 0c2-1-2-1 0 0zm2 0c0-2-1-1 0 0zm2-1c1-2-1-1 0 0zm-4-1c0-1-2 1 0 0zm2 1c1-3-2-4 0 0zm0-2s1 0 0 0zm3 2c1-1-1-1 0 0zm-4-1c1 0-2 0 0 0zm2 0s-1 0 0 0zm1 0c1-1-1-1 0 0zm3-1c1 0 0 0 0 0zm-1 0c2-1-2-1 0 0zm-1 0c0-1-1-1 0 0zm-2-1c1 0 0 0 0 0zm1 0c2 0-1 0 0 0zm3 0c1 0 0 0 0 0zm1 0s-1-1 0 0zm-5 0c1 0 0 0 0 0zm2 0c2 0-1 0 0 0zm-1 0c3-1-2-1 0 0zm2 0c1-2 0 0 0 0zm1 0c1-1 0-1 0 0zm-1-1c2-1-2-1 0 0zm1 0c1-2-1 1 0 0zm1 0c1 0 0 0 0 0zm1 0s-1 0 0 0zm-4-1c1 0-2 0 0 0zm4 0c0-1 0 1 0 0zm-6 0s-1 0 0 0zm5 0s-1 0 0 0zm2 0c1-2-2-5 0 0zm-6 0c1 0 0 0 0 0zm2 0s-1 0 0 0zm0 0c2-1 0 0 0 0zm1 0c1-1 0-1 0 0zm1-1c2-1-1-3-2-1 1-1 2 1 2 1zm-3 0c2 0-1-2 0 0zm5-1c1 0 0 0 0 0zm2 0c1-1 0-1 0 0zm-6-1s-1 0 0 0zm2 0c1 0-1 0 0 0zm6 0s0-1 0 0zm-2 0c2 0-1 0 0 0zm-5 0c1-1 0-1 0 0zm6-1s-1 0 0 0zm0-1c1 0-1 0 0 0zm-3 0c1 0 0 0 0 0zm3 0s-1 0 0 0zm-4 0c1-1 0-1 0 0zm1-1c1 0 0 0 0 0zm1 0c1 0 0 0 0 0zm1 0c-2 1-1 0 0 0zm3 0c1 0 0 0 0 0zm-1-1c1 0-1 0 0 0zm-1 0c2-1-1-1 0 0zm2 0c0-1-1 0 0 0zm-1 0c1-1 0-1 0 0zm-3-1s-1 0 0 0zm5 0c-1-3 0 0 0 0zm-2-1s-1 0 0 0zm1 0c0-1-2-1 0 0zm3-1c3-3-1 1-1 0 0 0 1 2 1 0zm0-1c-2 0 1-1 0 0zm-3 1c1 0-2 0 0 0zm5 0c1-1 0-1 0 0zm1-1s-1 0 0 0zm-4 0s-1 0 0 0zm3 0s-1 0 0 0zm2 0c1-1-1-1 0 0zm-1 0c1-1-2-2 0 0zm-3-1c1 0 0 0 0 0zm4 0c1 0 0 0 0 0zm-4-1c3-1-1 0 0 0zm1 1c0-1-1-1 0 0zm1 0c0-1-1-1 0 0zm2 0c0-1-1-1 0 0zm-1-1c0-3-3 1 0 0zm-1-1c-1 0 1-1 0 0zm1 1s-1 0 0 0zm1 0c1-1-1 0 0 0zm-3-1c2-1-2 0 0 0zm3 0s-1 0 0 0zm-4 0c0-1-1 0 0 0zm3 0c1-1-1-1 0 0zm2 0c0-1-1-1 0 0zm1 0c0-1-1-1 0 0zm-4-1s-1 0 0 0zm1 0s-1 0 0 0zm1 0c3 0-5-3 0 0zm-2 0c0-1-1-1 0 0zm3 0c1-1 0-1 0 0zm1-1c2-2-2-2 0 0zm-1 0s-1 0 0 0zm1 0c1 0 0 0 0 0zm1-1c1 0 0 0 0 0zm2 0c0-1-1 1 0 0zm-4-1c4-2-3 1 0 0zm3 1c4 0-1-2 0 0zm0-1s1 0 0 0zm2 1c2-1 0-1 0 0zm-6 0c1-1-2-1 0 0zm3-1c1 0-1 0 0 0zm3 0s-1 0 0 0zm-2-1c2-2-1-4 0-2-1 2-4 1-1 2h1zm2 0c0-1-1-4 0 0zm0 0c1 0 0 0 0 0zm-1 0c1-1-2-1 0 0zm-4-1c1 0 0 0 0 0zm5 0c1 0-1-1 0 0zm2 0c1 0 0 0 0 0zm1 0c1-1 0-1 0 0zm-7-1c1 0 0 0 0 0zm5 0c1 0-1 0 0 0zm-1 0c3-1-2 0 0 0zm4 0c0-1-1-1 0 0zm-56 137c-1-3 2 0 0 0zm35 0c-1 0-4-2-1-2s-1 0 1 2zm3 0c-1 0 0 0 0 0zm-3 0s1 0 0 0zm0-1s1 0 0 0zm-120 0c-1 0 1-1 0 0zm123 0c-1-1 1-1 0 0zm-121 0c-1-1 0-1 0 0zm203-1c-1 0 0 0 0 0zm-123 0c-2-1 0-2 0 0zm1 0c0-1 1-1 0 0zm131-1c-1 0 1 0 0 0zm-96 0c-1 0 1-1 0 0zm1 0c-2 0 0-3 0 0zm95 0c-1-1 0-1 0 0zm-132 0c-1-1 1-1 0 0zm133 0c-3-1 2-1 0 0zm-209-1c-1 0 0 0 0 0zm114 0c-3 0 1-1 0 0zm-12 0c0-1 1-1 0 0zm10 0c-2-1 1-1 0 0zm1-1c-3 0 3 0 0 0zm-2 0s1 0 0 0zm1 0c-3-2 2-1 0 0zm97-1c-1-2 2 0 3-1-1 2-2 2-2 1h-1zm0-1c1 0-1 0 0 0zm1 0s-1 0 0 0zm-107 1c-1 0 1-1 0 0zm9-1c-1 0 0 0 0 0zm95 0c-1 0 0 0 0 0zm-98 0c-1 0 0 0 0 0zm1 0c0-2 0-1 0 0zm1 0c-1 0 0 0 0 0zm-5 0c-2-1 1-4 0 0zm107-1c-6-2-2 1-2-2 2 1 4-2 2-1l-2-1c3 0-2-1-1-1 2-3 2 0 3-3 1 2 0-1 2-3l4-2c-3-1 2-2 3-1-3-2 2-6 1-1 0 1 0-5 2-5 2-1-2 3-1 3 0 3-2 6-2 5 2 1 0 1 2-2 1 0 0-2 1 0-2 2 2 0-2 4l-3 1c2 0-2 3-3 5-2-2 0-2-2-1 0-6-1 1-1 0 0 3 5-1 1 3l-2 1v1zm0 0s-1 0 0 0zm-3-1s-1 0 0 0zm4 0c1-1 0-1 0 0zm1-1c1-1-1-1 0 0zm1-1c1-1-1 2 0 0zm-2-1c1-1-3 0 0 0zm-1 0c-1 0 2-1 0 0zm-1-1c2 0-1 0 0 0zm6 0c0-3 1-2-1-3-3 2 0 1 1 3zm0-1c-1 0 0 0 0 0zm-1 0s1 0 0 0zm-4 1c0-2-1-1 0 0zm1-1c0-1-1-1 0 0zm3 0c0-1-2-1 0 0zm3-1c2-3-1-1 0 0zm-4-1c1 0-2 0 0 0zm0 0c1 0 0 0 0 0zm-1 0s2-3 0 0zm2-1c0-3-2-2 0 0zm1 0c1 0-1 0 0 0zm-1 0c4-2 0-3 0 0zm5 0s-1 0 0 0zm-3 0c0-1-1-2 0 0zm0 0c1-1-1-1 0 0zm3 0c2-4-1 0 0 0zm-1-1c0-2-1-1 0 0zm-2 0c2-4-1 0 0 0zm3 0c0-1-1-1 0 0zm-4-1c0-1-2-1 0 0zm1-1c3-1-2 0 0 0zm2 0s-1 0 0 0zm3 0c0-1-1-1 0 0zm-3-1c1 0 0 0 0 0zm3 0s-1 0 0 0zm-3 0c0-1-1-1 0 0zm-2 0c0-1-1-1 0 0zm2 0c1-1 0-1 0 0zm1-1c0-1-1 1 0 0zm0 0c1-1-1 0 0 0zm-3 0c1-1 0-1 0 0zm3-1c0-1-1-1 0 0zm0-2c1 0 0 0 0 0zm-118 17c-2-3 1-1 0 0zm-100 0c-1 0 0 0 0 0zm102 0c-1 0 3-4 0 0zm1 0s1-2 0 0zm99 0c-1-1 2-3 0 0zm0-1c1 0 0 0 0 0zm-1 0c-1 0 1 0 0 0zm3 0c-2 0 1-1 0 0zm-1 0c1 0 0 0 0 0zm-98 0s1 0 0 0zm20 0c-4-2 0 0 0-3 1-2-4 3-3 1h-2c-1-3 3-1 1-4-4-2 2 1 4-1 0-5-3 3-4-2 3-2-1 2-1 0 2-4-1 1-1 1-3 2 2 2-1 2-4 0 1-2 0-6 0 2 1 4 1 1-1-1 5-6 1 0 2-2 2-5 3-2 4 1-2 4 4 3 0 2 0 2 2 3-1 0 1 2-1 3 0-1 0-3-2-3 0 3-3-1-3 2s3 2 3 0c3-3-1 2 2 1-1 2-2 3 1 1 2 2-5 3-4 3zm0-1c1-2-2 2 0 0zm1 1c1-1 0-1 0 0zm0-1c1 0 0 0 0 0zm1 0c1 0 0 0 0 0zm-2 0c2-1 0-2 0 0zm-4-1c2-2-1-2 0 0zm0-1s1 0 0 0zm2 1c-1-1-3-1 0 0zm-3 0c1-1 0-1 0 0zm6 0c1-2-1 0 0 0zm-1-1c2 0-1 0 0 0zm2 0c2-1-1 0 0 0zm-4 0c0-1-2-2 0 0zm0-2s-1 0 0 0zm-1-1c1-1-2 0 0 0zm6 1c1-2 0 0 0 0zm-3-1c1-1 0-1 0 0zm3-1s-1 0 0 0zm-6 0c1 0-1-1 0 0zm4 0c1-1-1-4-1 0h1zm0-2c-1 0 0 0 0 0zm-3 1c1-1-2 0 0 0zm-4 0c0-1-1 0 0 0zm9 0c1 0-1-1 0 0zm-3 0c0-1-1-1 0 0zm-2-1c1 0-1 0 0 0zm0 0c1 0 0 0 0 0zm4 0s-1 0 0 0zm-3-1s-1 0 0 0zm-1 0c1-1 0-1 0 0zm1 0c0-1-1-1 0 0zm-2 0s-1-5 0 0zm1-1c4-1-3-1 0 0zm0 0c-1 0 0-2 0 0zm4 11c-1 0 0 0 0 0zm-34 0c-1-1 3-1-1-3 0 2-2-1-2-2 3-2 3 1 2 1 1-4 3-1 0 1 3-1 3 3 1 3zm0-4c2 0-1 0 0 0zm-2 0c0-1-1 1 0 0zm1 0c1 0 0 0 0 0zm0-1c1-2-1 0 0 0zm12 5c-1 0 0 0 0 0zm24 0c-1 0 0 0 0 0zm-32 0c-1 0 1-2 0 0zm5-1h0zm4 1c-1-1 0-1 0 0zm-7-1c-1 0 0 0 0 0zm6 0c-2-1 1 0 0 0zm19 0c-1 0 0 0 0 0zm-25 0s1-2 0 0zm108 0c-1-1 0-1 0 0zm2 0c-4-1 1-2 0 0zm-116 0c-1-1 0-1 0 0zm0-1s1 0 0 0zm27 0c-5-1-2-4-2-1-1-2 3 0 2 1zm-1 0c1-2-2-1 0 0zm0-1c-1 0 0 0 0 0zm1 1c1-1-1-1 0 0zm-3-3c1 0 0 0 0 0zm12 3c-2 1 1-2 0 0zm-26 0c-1-1 0-1 0 0zm15 0c-1 0 0 0 0 0zm-120 0c-1-1 0-1 0 0zm98-1c-3-2 1-2 0 0v-1 1zm-1-1c1 0 0 0 0 0zm21 1c-1 0 0 0 0 0zm15 0c-2-4 1-1 0-3 1-2 3 3 0 3zm1-1s-1 0 0 0zm-35 1c-1-2 2 0 2-3 1 0 0 3-2 3zm6 0c-1 0 0 0 0 0zm13 0c-2-1-5 0-3-2 0-4 0 1 2-2h2c-2 0 0 4-1 4zm-1-1c3 0-4 0 0 0zm-2 0c1-1 0-1 0 0zm2-1c4 0-2 0 0 0zm1-1c1-1-2-1 0 0zm-5 3c0-1 1-1 0 0zm-14 0c-1-1 1-1 0 0zm14-1c-4 1 3-2 0 0zm1 1c-1-1 0-1 0 0zm-9-1c-1 1 0-1 0 0zm17 0c-1 0 0 0 0 0zm92 0c-1 0 0 0 0 0zm-210 0c-1 0 0 0 0 0zm94 0c0-1 2-1 0 0zm4 0c-1 1 1-3 0 0zm8 0s1 0 0 0zm12 0c0-2 3 1 0 0zm-14 0c-1-1 0-1 0 0zm1 0c-1-1-1-4 2-1 1-2 10-4 5-4 0-2 4 2 3-1 0-3-3 1-1-2-4-1 2 1 1 1 1-2-2-1-2-4 0 1-3 0 0 2-3 0-2 0-2-2 1 1 4-1 2-2-1 2-3-1-4 2 1-3-2-1-4-3 0-2 3-1 0-3-1 3 1-2-3 0-3-2 0-5 2-7 1-1 3-3 4 2-3 0-6-2-2 0h-1c-1 2 1 3 1 3-1-3 3 0 1-1 1-1 2 1 4-1v3c0 8-1 0 1 3-2 1-1 4 1 1v-1c-5-3 2-4 0-3 1 1 2 4 2 2 1-1 4 4 1 3 2 3 4 2 2 3-4-2-4-3-3-1-1 0-1 2 1 1 3 0 1 0 2 1-4-1 0 1-2 2v3c-2 1-3-1-5 1-2 1-1 2-3 2-1 0-3-1-3 1zm4-3c1 0 0 0 0 0zm5-1c1-1-1 0 0 0zm3-7c1-1 0 0 0 0zm-3 0c1-1 0-1 0 0zm3-1c1 0-2 0 0 0zm-4-1c1 0 0 0 0 0zm1 0c1-6-1 0 0 0zm3 0c1-2-1-1 0 0zm-9 0c1-1 0-1 0 0zm7 0c0-2-1-2 0 0zm1-1c0-1-1 1 0 0zm-7 0c2-1 2 1 0 0zm0 0c-1-1-2 0 0 0zm4 0c1 0-2 0 0 0zm-6 0c0-1-1-1 0 0zm5-1s-1 0 0 0zm-3-1c2 0-2-3-1-3 0 3-1-1-2 2 2-1 2 1 3-1 1 1-2 4 0 2zm-2 0c1 0 0 0 0 0zm0 0c1-1 0-1 0 0zm1 0c1-1 0-1 0 0zm4-1s-1 0 0 0zm-7 0c0-5-4-2-1-1 1-1 1 1 1 1zm-1-2c-2-1 0-2 0 0zm-1 1s-1 0 0 0zm3-1c1 0 0 0 0 0zm1 0c1 0 0 0 0 0zm-6-1c1-1-1 1 0 0zm1 0c1 0 0 0 0 0zm0 0c1-1 0-1 0 0zm1 0c0-1-1-1 0 0zm7 0c0-1-1-1 0 0zm-6 0c0-1-1-1 0 0zm-3-1c2 0-1 0 0 0zm1 0c1 0 0 0 0 0zm1 0c0-1-1-1 0 0zm1 0c-2-2 0-1 0 0zm3-2c1-2-3-1 0 0zm-1-1c-1 0 1 0 0 0zm-1 1c1-1 0-1 0 0zm2 23c0-1 1-1 0 0zm10 0c-2-1 1-1 0 0zm-29-1c-5-5 0-1 0-2 3 1 0 0 0-2 2-6-1-1-2 1l2-4c3-1 6-1 4 1l-2 6c-1 1-2-2-2 0zm0-1s-1 0 0 0zm3-1s-1 0 0 0zm-1 0c1-1 0 0 0 0zm0-1c1-3-2 1 0 0zm-1 0c0-1 2-1 0 0zm2 0s-1 0 0 0zm-5-1c2 0-2 0 0 0zm5 0c1 0 0 0 0 0zm0 0c3-5-4-1 0-2v2zm-2-1c1-1-2-1 0 0zm1 0c1 0 0 0 0 0zm9 5s1 0 0 0zm1 0s1 0 0 0zm3 0c-2 0 2 0 0 0zm108 0c-1 0 0 0 0 0zm-117 0s-2-5 0-2c0-2 3 3 1 2h-1zm-1-3c1 0 0 0 0 0zm-94 3c-1-1 1-1 0 0zm100 0s1 0 0 0zm2 0c-3-1 4-4 0-1v1zm2 0c-1 0 0 0 0 0zm20 0c-1 0 0 0 0 0zm-21 0c0-1 1-1 0 0zm-3-1c0-2 0 0 0 0zm5 0c-2 0 1-2 0 0zm-11 0c-1 0 1 0 0 0zm1 0c-2-1-1-1 0 0zm3 0c-2-3 0-1-1-4-4-3 1 1-1 1-2-1-2-3-3-1 1-2 3-4 5-2-1 4 4 0 2 0-1 1 0 4 1 1 0 6 1-3 1 0 1 1 4-1 3 2l-4 1c-1 1-3-1-3 2zm-1-1c2-1-1-1 0 0zm3-1c1 0 0 0 0 0zm4 0c1 0 0 0 0 0zm-4 0c3-4-4 1 0 0zm0 0c1-1 0-1 0 0zm2 0c2-1-1-1 0 0zm2 0c-3-3 3-1 0-2s-1 1 0 2zm-1-2s1 0 0 0zm-5 1s-1 0 0 0zm-3-1c0-2-1 0 0 0zm9-1c1 0 0 0 0 0zm-7 0c0-1-1-1 0 0zm-2-1c3 0-2 0 0 0zm9 6c-1 0 0-1 0 0zm4-1c-3 0-2-1-1-1-2-2 2 0-1-3h2c1 1 4 4 1 3l-1 1zm0 0c2 0-1 0 0 0zm1-1c1-4-2 2 0 0zm-19 2c-2 0 0-2 0 0zm20 0c-1 0 0-2 0 0zm8 0c0-1 1-1 0 0zm-108-1c-1 0 0 0 0 0zm88 0c0 1 1-1 0 0zm1 0c-1 0 0 0 0 0zm22 0c-2 0 1 0 0 0zm-28 0c-1 0 2-3 0 0zm8 0c-1 0 0 0 0 0zm20 0c-1 0 0 0 0 0zm0 0s1 0 0 0zm-19-1c-2 0 1 0 0 0zm19 0c-1 0 0 0 0 0zm-33 0c-1-1 2-1 0 0zm23 0c-2-1-1-4 1-1v1h-1zm1 0c0-1 1-1 0 0zm0-1s1 0 0 0zm-6 0c0-1 1-1 0 0zm7-1c-2 0 1 0 0 0zm4 0s1 0 0 0zm-28 0c-1 0 0 0 0 0zm31 0s1 0 0 0zm5 0c-1 0 0 0 0 0zm-120 0c-1-2 2-1 0 0zm95-1c-1 0 2-3 0 0zm8 1c0-1 1-1 0 0zm17 0c-2-1 3-1 0 0zm-16-1c-1 0 0 0 0 0zm-13 0c-1 0 0-1 0 0zm7 0c0-1 1-1 0 0zm0-1c-1 0 0 0 0 0zm11 0s1 0 0 0zm3 0c-1 0 1 0 0 0zm105 0c-1 0 0 0 0 0zm-109 0c-1-1 0-1 0 0zm109 0c-1-2-2-3 0-5 0-3 0 2 2 2-2-1 0-2 1 0 2 0-2 1-3 3zm1-1c2-2-3-1 0 0zm-1-2s-1 0 0 0zm3 0c1 0 0 0 0 0zm-210 3c-1 0 1-1 0 0zm98-1c-1 0 0 0 0 0zm111-1s1 0 0 0zm-8 0c-1 0 0-1 0 0zm-105 0c-1-1 0-1 0 0zm11-1c-3 0-4-2 0 0zm-1 0c1 0 0 0 0 0zm0 0c-1 0 0 0 0 0zm102 0c-1 0 0 0 0 0zm-2-1c-9-2 3 1 0 0zm-111 0c-2-1 1-1 0 0zm11 0c-3-2-1-2 0 0zm104 0c-2-2-1 0 0-2-1-3 5 3 1-1 5 1-1 4 0 2-1 0-1-1-1 1zm-114 0s1 0 0 0zm108-1c0-1 1 0 0 0zm-106 0c-1-1 0-1 0 0zm111-1c-4-2 3-3-1-1 0 0 4 0 1 1zm5-1c-1 0 0 0 0 0zm-123 0c-2-1 1-1 0 0zm115 0c-2 0 2 0 0 0zm1 0c0-1 1-1 0 0zm5 0c-3-1-3-3-2-3 0-3 5-3 4-5 2-3 3 0 3-1l2-4c1-2 2-1 2-1 2-1 3 0 1 1 1 4 2 0 2-1-1-3 4-4 3-3s-3-1-3 2c-3 2-2-7-3-4 1 0 2 0 3-3 0 0 3 1 1 2-3 1 2 2 1 2 1-2 5-3 2 2-3 1 1 2-2 5l-6 6c-2 2-3-2-3 1 1 1-3 3-2 0-2 3 1 1 0 4-2 1-2-2-3 0zm1-1c2-1 1 0 0 0zm1 0c-1 0 0 0 0 0zm-3 0c0-3 1 1 2-1 2-2 0-3 0-1-2 1 0-2-3 0l1 2zm0-2c-1-1 1 0 0 0zm1-1s1 0 0 0zm1 2c1-1-1 2 0 0zm3 0c1-1-1-1 0 0zm0-1c1 0 0 0 0 0zm0 0c0-1-1-1 0 0zm-1-1c2 0-3-3 0 0zm-4 0c0-1 0-1 0 0zm0 0c1-2 0 0 0 0zm1 0c0-2 0 0 0 0zm4-1s-1 0 0 0zm-2 0c0-1-1-1 0 0zm2 0c0-1-1-2 0 0zm3-1c0-1-1 0 0 0zm-6 0c1 0 0 0 0 0zm2 0c1 0 0 0 0 0zm3 0c-1-3 1 0 0 0zm2 0s-1 0 0 0zm-7 0c0-1-1-1 0 0zm6 0c1-2-1-1 0 0zm1-1s-1 0 0 0zm-5 0c0-1-1-1 0 0zm6-1c0-1-1 1 0 0zm-6 0s-1 0 0 0zm1 0c0-1-2-1 0 0zm2 0c1 0 0-1 0 0zm2 0s-1 0 0 0zm-2 0c0-1-1-1 0 0zm0 0c1-1 0-1 0 0zm2 0c0-1-1-1 0 0zm0 0c1-1 0-1 0 0zm1 0c1-1 0-1 0 0zm-3-1s-1 0 0 0zm0 0c1 0 0 0 0 0zm2 0c3 0-3-1 0 0zm2 0c3-2 0-1-1-1 2-1 0 1 1 1zm-6-1s-1 0 0 0zm2 0c2 0-2 0 0 0zm3 0c0-2-3-1-1-1-2 1 1 0 1 1zm4 0c0-3-2-3 0 0zm-7-1c1 0 0 0 0 0zm3 0c1-1-1 1 0 0zm2 0c1 0 0 0 0 0zm-3-1c3-3-4-1 0 0zm0 0s1 0 0 0zm2 0c1 0-2 0 0 0zm3 0c1 0-1 0 0 0zm-6 0c1-1 0-1 0 0zm8-1c1-1-1-1 0 0zm-3-1c1 0 0 0 0 0zm2 0c0-1-1 0 0 0zm-3-2c5-2 2-1 1-3l-1 3zm5-1c1-2-2-2 0 0zm-1-1c1 0 0 0 0 0zm-6 0s-1 0 0 0zm6 0c0-1-1-2 0 0zm-3-2c1 0-2 0 0 0zm0-1c0-1-1 0 0 0zm-15 21c-1-1 0-1 0 0zm-119-2c-2 1 1-1 0 0zm118 0c-2 0 3-2 0 0zm1 0c0-2-1 0 0 0zm-110 0c0-1 1-1 0 0zm-1-1c-1-1 1-1 0 0zm0-1c-1 0 0 0 0 0zm0-1c-1-1 1 0 0 0zm38 0c-2-1 2 0 0 0zm1 0c-1-2 1 0 0 0zm-2 0c0-1 1-1 0 0zm1-1c-3 1-4-6-2-4-2-1-2 4-2-2 0 0-6 0-3-2 0-2-3-5 1-4-2 0 0 5-1 3 2-2 1 0 3 0-1-3 5 0 1-2 1 0 0-3-1 1-1-1 0-3-3-4l-2 2 1 4c-1-1-4-1-2-2 1-2-2-3-1-1-3 2 0-5-2-2-3 1 1-2 0-4-3-2 1 3 1 1 2-1 2 1 0 2 0 0 4 0 2 1l3-2c0-2 4 0 1 1h2c5 1 2 5 5 4-1-1 4 7 1 1 0 4 0 5 2 3 1 1 1-1 1 1l-2 3-3 2zm1-1c2 0-2-3 0 0zm1 1c0-1-1-1 0 0zm-2-1zm-2 0c0-1-1-1 0 0zm1 0c1-1 0-1 0 0zm0-1c0-1-1 1 0 0zm3 0c1-3-1-5 0 0zm0-1c0-1 1-1 0 0zm-3 1c3 0 2-5 2-4-1 1-3 1-1 3-2-1 3-1-1 1zm-1 0s-1 0 0 0zm1 0c0-1-2-1 0 0zm3 0c0-1-1-1 0 0zm-4-1c1-1 0-1 0 0zm3-1s-1 0 0 0zm-3 0c1-1 0-1 0 0zm6-1c2 1-2-1 0 0zm-6 0c1 0 0 0 0 0zm-1-1c4 0-2-1 0 0zm4 0c1-1-1 1 0 0zm-1 0c4-1-2-1 0 0zm1-1c-1 0 0 0 0 0zm-1 0c-1 0 0 0 0 0zm-5 1c0-1-1-1 0 0zm4-1c1-2-1 1 0 0zm5 1c1-1 0-1 0 0zm-10-1c0-1-1 1 0 0zm-2 0c1 0 0 0 0 0zm3 0c1-1-1-1 0 0zm2 0c0-2 1 1 2-2l-2-1c-1 2-2 3 0 3zm0 0c-1-1 1-1 0 0zm6 0s-1 0 0 0zm-2 0c1 0 0 0 0 0zm-7 0c0-1-1-1 0 0zm7-1c-1-2-2 0 0 0zm-10 0c1 0 0 0 0 0zm8 0s-1 0 0 0zm-4 0c0-2-1 0 0 0zm0 0c1-1 0-1 0 0zm-3-1c0-3-5 0 0 0zm8 0c0-1-1-1 0 0zm0 0c1-1 0-1 0 0zm-1-2c-2-3 0-1 0 0zm-4-2c1 0 0 0 0 0zm-2-1s-1 0 0 0zm-5 0c0-2-1 0 0 0zm1-1c1-1-2 0 0 0zm5 0c1 0 0 0 0 0zm-6 0c0-1-1-1 0 0zm6 0c2 0-1-1 0 0zm-7-1s-1 0 0 0zm2 0s-1 0 0 0zm-30 16c-2-2 1-2 0 0zm-1 0c0-1 1-1 0 0zm39-2c-1 0 0-1 0 0zm83-1c1-1 0 0 0 0zm1 0c-1-1 0-1 0 0zm-86-1c-1 1 1-1 0 0zm-114 0c-1 0 0-1 0 0zm0 0c-1 0 2-1 0 0zm114-1c-2 0 2 0 0 0zm-1 0c-1 0 1 0 0 0zm88 0c-2-1 0-1 0 0zm5-1c-2-2 1 0 0 0zm-85-1s1 0 0 0zm85 0c0-1 1-1 0 0zm-4-1c1-1 0 0 0 0zm-197 0c-1 0 0-2 0 0zm106 0c-1-1 1-1 0 0zm94 0c-2 0 1 0 0 0zm6-1c-1 1 0-1 0 0zm-8 0c0-6 3 2 1-1l-1 1zm-204 0c-6-2 2-1 0 0zm1 0c-1-1 0-1 0 0zm2 0c-2-1 2-2 0 0zm208-1s1 0 0 0zm-99 0c-1 0 1 0 0 0zm-110-1s1 0 0 0zm112 0c-2-1 2 0 0 0zm-113-1s1 0 0 0zm91 0c-1 0 0 0 0 0zm1 0c-1-1-2-4-2-2 1-2 2 3 1 0l-2-4c3-4 2 4 5 2l-2-1c2 0 5 0 4 1l-3 4h-1zm1-1c1-2-2-1 0 0zm0-1c0-2 0 0 0 0zm-2-2c1 0 0 0 0 0zm0 0s-1 0 0 0zm2 0c0-1-1-1 0 0zm-2-1c1 0 0-1 0 0zm2 0c2 0-1 0 0 0zm-2 0c0-1-1-1 0 0zm15 5c-1 0 0 0 0 0zm97-1c-1-1 2-1 0 0zm-111 0c-1-1 0-1 0 0zm116 0c0-1 1-1 0 0zm3 0c0-1 1-1 0 0zm-106-1c-4 1 2-3 0 0zm0 0c1-1 0-1 0 0zm101 0c-1 0 0 0 0 0zm4 0c-2-2 1-3 1-1-1-5 2-1-1 1zm0-1c1-2-1 0 0 0zm2 1c-1 0 0 0 0 0zm-7 0c-1 0 0 0 0 0zm4 0s1 0 0 0zm-5-1c1-3-1 0 0 0zm0 0c1-2-1-1 0 0zm1 1c0-1 1-1 0 0zm-116-1c1-2-3 0-1-2 0 0 3 0 1 2zm21 1c-2-1 1-1 0 0zm1 0c0-2-10-5-8-5 0-4 0 2 1-1 0-4 1 3 2 2-3-4 3 1 3-3l2 2c-4-3 4 3 1 2s-1 2 0 0c3 1-1 3-1 3zm-1-2s-1 0 0 0zm1 0c1 0-1 0 0 0zm-2-1c1-1 0-1 0 0zm-1-1c1 0 0 0 0 0zm0 0s-1 0 0 0zm-1 0c1-1-2-1 0 0zm0 0c1-1 0-1 0 0zm2 0c0-1-1-1 0 0zm-1-1c1-1 0-1 0 0zm-4-2s-1 0 0 0zm108 6c-1 0 1 0 0 0zm-108 0c-3-3-2-5 0-2 2 2 1 2-1 1l1 1zm106 0s1 0 0 0zm-108-1c-1 0-1-2 0 0zm104 0c0-1 1-1 0 0zm-1 0c1-1 0 0 0 0zm3 0c-3-1 2-3 0 0zm-111 0c-1-2-2-4-2-2-2 1-5-1-5-1 1-1 3-4 4-2 1-1 3 2 2 0-1 0 1-2-1-3-5 3 2-1 0 0 4-3 5-7 6-2-1 0-4-1-2 1-2 0 0 5 2 2v-1c-1-1-2-1 1-2 5-3 1 3 4-1-1-1-6 1-6-3 4-1 2 4 4 2 3-2 1 6 0 4 0 2-4-1-1 1 0 3-2 4-3 2s-4 0-2-1c1 2-1 2 2 3-3-4-1 1 0 0 2 3 0 0-3 1 0 1 2 0 0 2zm-3-2c2-2-1-5-1-4 2 2 0 3 0 3-1-3-3 1 1 0v1zm3-1c0-1-1 0 0 0zm1 0c1 0 0 0 0 0zm-1-1c1 0-1 0 0 0zm-2 0c0-1-1-1 0 0zm3-1c2 0-2 0 0 0zm4 0c1 0-1 0 0 0zm-2 0c1 0 0 0 0 0zm-3-1c0-1-1 0 0 0zm1-1c1-4-2-1 0 0zm-1-1s-1 0 0 0zm6 0c1-2-1-2 0 0zm-6-1c2-4-3 0 0 0zm7 0s-1 0 0 0zm1 0s-1 0 0 0zm-7 0c1 0 0 0 0 0zm0 0c0-1-1-1 0 0zm2-2s-1 0 0 0zm0 0c1-1 0 1 0 0zm-1 0c2-1-1 0 0 0zm3-2c0-3-1 0 0 0zm105 13c-1-1 1-1 0 0zm-118-1c-1 0 0 0 0 0zm15 0zm1 0c-2 0 1 0 0 0zm100 0c-1 0 3-3 0 0zm5 0c-1 0 0 0 0 0zm-112 0c0-1 1-1 0 0zm13 0c-1-1 0-1 0 0zm93 0c-2-1 3-2 0 0zm0 0c1-1 0-1 0 0zm6 0c-1-1 0-1 0 0zm0 0c0-1 1-1 0 0zm-103 0c-1-1 0-1 0 0zm100 0c0-1 1-1 0 0zm1 0c-1-2 1-1 0 0zm1 0c0-1 1-1 0 0zm-111-1c-2 0 2 0 0 0zm112 0c-2-1 0-4 0 0zm-106 0c-1 0 0 0 0 0zm103 0c-1 0 0 0 0 0zm2 0c-1 0 0 0 0 0zm1 0c-1 0 0 0 0 0zm-2 0c-5-1-1-2-4-2 2-2 3 2 4-1 2 0-1 3 0 3zm-1-2c1 0 0 0 0 0zm4 2c-1-1 1-1 0 0zm-121-1c-1 0 0-1 0 0zm114 0s1 0 0 0zm-1 0c-1 0 1 0 0 0zM99 98c-2-1 1-1 0 0zm4 0c1-3 4-3 0 0zm84 0c0-1 1-1 0 0zm8-1l-1-1c2 0-3-3 0-3 0 0 3 3 1 4zm0 0c1-1 0-1 0 0zm104 0c-1 0 1 0 0 0zm-10 0c0-1 1 0 0 0zm9 0c-2-2 1-1 0 0zm0-1c0-1-1 0 0 0zm-106 1c-1-1 0-1 0 0zm99 0c-4-1 0-4 2-2l-2 1v1zm0-1s-1 0 0 0zm-112 0s1 0 0 0zm115 0s1 0 0 0zm3 0l-4-1c-2-3 0-2 1-2-2-1-5-1-4-2-3-4 2 2-1 0-4-2-2 1-1 2-3-3 0-3-4-5 1 1 4 0 3-3 1 2-4 5-3 3-2 1 5 4-1 2l-2-4c1 4 1-4-3-1-1-2 4-2 1-4-3 2-3-1-3-3 1-1-1-4-1-3 3 1 3 4 4 2l4 3c0-1 4 3 1 5v-1c0-2-2 1-2-1 2 6 4 1 4 0l4 3 3 4c-3 0 3 1 2 3 2 2 1-1 2 1v2zm-1-2c1 0 0 0 0 0zm-1 0c0-1-1-1 0 0zm-1-2c2-1-2 0 0 0zm-1 0c2 0-3-3 0 0zm-5-2c1 0 0 0 0 0zm4 0c-1-2-3-1 0 0zm-4 0c2-5-5 0 0 0zm-1-1c-7 1 3-1 0 0zm3 1c0-1-1-1 0 0zm-1-1c2-1-1-1 0 0zm4 0s-1 0 0 0zm-10 0c1-1 0-1 0 0zm6 0c0-1-1-1 0 0zm-7-1c1 0 0 0 0 0zm8 0c0-1-1 1 0 0zm-1 0c0-3-1 1 0 0zm-1-1s-1 0 0 0zm2 0c1 0-1 0 0 0zm1 0s-1 0 0 0zm-5 0s-1 0 0 0zm-2 0c2-3-2 0 0 0zm1 0s-1 0 0 0zm3 0c1-1-1-3 0 0zm2 0s-1 0 0 0zm-7-1s-1 0 0 0zm2 0c1 0-1 0 0 0zm1 0c1 0 0 0 0 0zm-5-1c-1-5 4-1 1-4-1-3-2 11-1 4zm5-1c1-1-1-1 0 0zm-2-2c1 0-1 0 0 0zm-5 0c0-1-2-1 0 0zm1 0c3-2 0-6-1-2-3 1-1-5-2-1-2 3 0 0 1 1 3-1 1-3 3 0-3 1-1 0-1 2zm3-1c2-1-1 0 0 0zm-1-1c1 0 0 0 0 0zm-4-1c1 0 0 0 0 0zm0 0s-1 0 0 0zm2-2c1-1-2 1 0 0zm0 1c1-1 0-1 0 0zM180 96c-1-1 0-1 0 0zm11-1c-2 0 2 0 0 0zm98 0c-2 0-1-2 1-1l-1 1zm-105 0c-3-1 0-1 0 0zm8 0s1 0 0 0zm98 0c-2-1 1-1 0 0zm-190 0c-1-1 0-1 0 0zm93 0c-1-1 0-1 0 0zm1 0c0-1 1-1 0 0zm-11-1s1 0 0 0zm4 0c-1 0 0 0 0 0zm1-1c-2 2 0-2 0 0zm0 1c1-1 0-1 0 0zm-1-1c-1 1 0-1 0 0zm100 0c-2 0-1-1 0 0zm5 0c-6-2 1 0 0 0zm-4 0c-2-3 1-2 0 0zm8 0c-1-1 0-1 0 0zm-187 0c-1-1 0-1 0 0zm177-1c-2-1 2-1 0 0zm5 0c-1 0 0 0 0 0zm0 0s1 0 0 0zm-102-1c0-1 0 0 0 0zm0 0c1 0 0-1 0 0zm-86 0c-2 1 1-1 0 0zm92 0c-1 0 0 0 0 0zm99 0c-1 0 1 0 0 0zm-103 0c-1-1 1-1 0 0zm5-1c-4-2 1-1-1-2 2-1 3-1 1-2-2-4-1 1 0 1l-2-1c-3 1 1-8 2-4 1-1 1 1 3 1l-3 2c5-1 0 4 1 4-1 1-2 0-1 1zm0-1s-1 0 0 0zm2-3c1 0-2-1 0 0zm-3 0c0 1 0-5-2-2 4-8-1 5 2 2zm0-2c-1 0 0 0 0 0zm1 0c2-2-2-2 0 0zm3 0c0-1-1-1 0 0zm-1 0c1-1 0-1 0 0zm-3-1c1-1-2-1 0 0zm2 0c1-1 0-1 0 0zm-2-1s-1 0 0 0zm0 0c1 0 0 0 0 0zm91 8c-1 1 0-1 0 0zm-183 0c-1-1 0-1 0 0zm181 0c0-1 1-1 0 0zm-95-1c-2 0 1 0 0 0zm3 0c-1-1 1-1 0 0zm-1-1c0-1 2 0 0 0zm2 0c-3-1-5-4-1-1-1-1 4 0 1 1zm0 0c1-2-1 0 0 0zm98 0c-1 0 2-1 0 0zm-96 0c-1-1 0-1 0 0zm85-1s1 0 0 0zm-88-1c-3-1 1-2 0-2v2zm88 1c-2-3 0-3 0-1v1zm-81-1s1 0 0 0zm1 0c-3-4 0-1 0 0zm78-1c0-1 1 0 0 0zm11 0c-1 0 0 0 0 0zm-4 0c-1-1 1-1 0 0zm-176-1c-1-1 2-2 0 0zm179 0s1 0 0 0zm-96 0c-2 0 2-2 0 0zm85 0c-1 0 1 0 0 0zm0-1c-1 0 0 0 0 0zm1 0c-5-1 5-1 0 0zm-1-1s-1 0 0 0zm6 1s1 0 0 0zm-3 0c-1-1 0-1 0 0zm-2-1c-1 0 0 0 0 0zm-2 0c-3-2-3-6-6-5 3 0 2-6 3-4l2-1c1 3 3 1 1 2-1-1-4 6-3 4 2-1 1-2 3 1-2 1 0 2 0 3zm-1 0c1-1 0-1 0 0zm0-2c-1-1 2-2-1-1-1-3 0 2 1 1zm-2-4s-1 0 0 0zm0 0c3 0-1-4 0 0zm2-2c0-1-1 0 0 0zm-78 7c-2 0 1-1 0 0zm78 1c-1-1 0-1 0 0zm10-1c-1 0 0 0 0 0zm-12-1s1 0 0 0zm0-1c-1 0 0 0 0 0zm-1 0c-2-2 1-1 0 0zm-158-1c-1 0 1 0 0 0zm1 0c-1 1 1-2 0 0zm0-1s1 0 0 0zm160 0c-2-1 0-1 0 0zm-5 0c-3-3 2-1 0 0zm10-1c-2-1 1 0 0 0zm-9 0s1 0 0 0zm7 0c-5-2 1-2 0 0zm0 0s-1 0 0 0zm1 0c0-1-1 0 0 0zm-160 0c-1-1 1-1 0 0zm150-1c-1 0 3-5 1-5 3 0-3-2 2-1l-2 2c-2 3 0 3 0 3l-1 1zm0-2s-1 0 0 0zm1 2c-1 0 2 0 0 0zm1 0s1 0 0 0zm-1 0c0-1 1-1 0 0zm2 0c-3-2 1-5 0-3 3-1-2 2 0 3zm6 0c-1-1 0-1 0 0zm-10-1c-2 0 1-2 0 0zm2-1c-1 0 0-1 0 0zm-150 0c-1-1 0-1 0 0zm146 0c0-1 1-1 0 0zm1 0l-3-3c4-2-1 0 3 1 2-2 1 2 0 2zm0-1c1-1-1-1 0 0zm-138 0s1 0 0 0zm147 0c-1 0 0 0 0 0zm-2 0c-4-3 2-2 0 0zm0-1c0-1-1 1 0 0zm-4 0c-1 0 2 0 0 0zm3 0c-1 0 0 0 0 0zm-145 0c0-3 0-1 0 0zm-1 0c-1-1 1-1 0 0zm146 0c-1-1 0-1 0 0zm-142-1s1 0 0 0zm136 0c-1 0 1-1 0 0zm2 0c0-1 1-1 0 0zm-5 0c-2-2 1-2 0 0zm4 0c-2-1 2-3 0-4-2 0-1-4-3-1 0 1-2 2 0 3-2-1 4-3 3-1-1 3-6 1-4 1-1-2-1 2-3 0l-2-3 3 1c0-1-5-1-2-3 3-1 3 4 5 0-2 0-2-6-3-4 4 2 2 4 6 5-3 0 3 4 0 5-2 0 2 0 0 1zm-3-1c1-1 0-1 0 0zm-3-1c0-3-2-2 0 0zm4 0c0-1-1-1 0 0zm1 0c3-1-2-1 0 0zm-4-2c1 0 0 0 0 0zm0 0c2-1-1-1 0 0zm-1-1c1-1-2-1 0 0zm-1-1c1 0-3-2 0 0zm3-2c1 0 0 0 0 0zm-1 0c2 0-1 0 0 0zm2 0s-1 0 0 0zm-1 0c0-2-3-1 0 0zm-1-1c0-1-1-2 0 0zm-1-2c1 0 0 0 0 0zm2 10c-1-1 1 0 0 0zm5 0c-1-1 1 0 0 0zm-7 0c-1 0 0 0 0 0zm8 0c-2-4 0-3 0 0zm1-1c-2-3-1-1 0 0zm-6-2c-1 0 1 0 0 0zm1 0c-1 0 0 0 0 0zm-2 0s1 0 0 0zm2 0c-1-1 0-1 0 0zm-7-1c-2 0 0-1 0 0zm5 0c-2 0 0-4 0 0zm-6-1c-1-1-1-1 0 0zm1 0c-1 0 0 0 0 0zm7 0c-1 0 0 0 0 0zm-7 0c-2-1 1-1 0 0zm-2-1c-1 0 2 0 0 0zm-1 0c0-1 1-1 0 0zm6 0l-2-2c-1-2 3 1 2 2zm0 0c0-1-1-1 0 0zm4 0c-1-1-1 0 0 0zm-8 0c-1 0-1-5 1-3l-1 3zm0-2c0-1-1 0 0 0zm-2 1c-1-1 0 0 0 0zm3 0c-1-1 0-1 0 0zm-4-1c-1 0 1-1 0 0zm6 0c-1 0 1-1 0 0zm-5 0c0-2-3-1-1-2 0-3 0 2 1 2zm-2-1c-1 1 1-1 0 0zm7 0c-2 0 1-1 0 0zm-2 0c-1-2-2-2-2-5s0 2 2 1v4zm-5 0c-1 0 0 0 0 0zm1-1c-1 0 0 0 0 0zm2 0c-2-3 2 0 0 0h1-1zm3 0c-2-2 0-3 2-1-2-1-1 0-2 1zm0 0c1-1 0-1 0 0zm0-1s-1 0 0 0zm-7 1c-5-2 1-2 0 0zm0 0c1 0-1 0 0 0zm8 0c-1 0 1-1 0 0zm-8-1c-2-1 5-4 1 0h-1zm3-1l-2-2c-1 1-4 3-6 0-2-1 2-4 0-3-3 4-1-1-1 0-3 1 0-2 2-2-1-3-3 3-3-2 3-1-1-2-2 2 4 0 1 1 0 0-4-2-4-5-4-5-3 1 2-1 0-2 3-3-5-5-3-2 1-3-3 1-5-2-1 0 6-2 2-2-1 3-2-1-3-1 3 0 4 0 3-3 3-1-3-4 1-1 0 1 5 2 3 4l4 2 6 6c-1 1 4 5 1 3-3 2 1 0 0 2 1 0 3 1 0 2 0 3 1 3 1 2 1 6 1-2 2 2 2 1 3-5 3 0-5 0-2-5-4-5-1-3 1-1 3 0-5 2 2-1-1 2 1-2 5 1 1 2 3 1 1-1 3 2-2 3 1-3-1 1zm-6-1c0-1-1 0 0 0zm2 0s-1 0 0 0zm0-1c1 0 0 0 0 0zm4 0c1 0 0 0 0 0zm-6 0c1-1-2 0 0 0zm-1 0c1-3-2 0 0 0zm0-1c1-1-1 1 0 0zm1 0c1-1-1 0 0 0zm4-1s-2 0 0 0zm-1 0c0-1-2-1 0 0zm1 0c0-1-1-2 0 0zm2 0s-1 0 0 0zm-4-1c1-2-1 0 0 0zm0-3s-1 0 0 0zm-8 0c1-2-2-2 0 0zm3 0c1-1 0-1 0 0zm-4-1s-1 0 0 0zm0 0c1-1-1-1 0 0zm-1-1c3 0-3 0 0 0zm2 0c0-1-1 1 0 0zm1 0c1 0 0 0 0 0zm-2 0c2-1-1-1 0 0zm2 0c1-2-2 1 0 0zm1 0c3-1-1-2 0 0zm2 0c2 0-1 0 0 0zm-6-1c1 0-1 0 0 0zm3 0c2 0-2 0 0 0zm-3 0c0-1-1-1 0 0zm1 0c1-1 0-1 0 0zm1-1c1-1-1 0 0 0zm1 0s-1 0 0 0zm0 0c1 0 0 0 0 0zm-4 0c2 0-1 0 0 0zm4 0c1-1 0-1 0 0zm1 0c0-1-1-1 0 0zm-4-1s-1 0 0 0zm1 0c2 0-2-1 0 0zm3 0c1-1-2 0 0 0zm-1 0c0-1-1-1 0 0zm-1 0c0-1-1-1 0 0zm-2-1c-1-3 2-2 0-4-1 3-3-4-4 0-1-3-5 2-2 0h4c1-1 0 2 2 3-2 0 0 1 0 1zm0 0c-2-2 1 0 0 0zm0-3c-1 1 0-1 0 0zm1 0c-1 0 0 0 0 0zm-8-1s1 0 0 0zm2 0c-1 0 2-1 0 0zm4 0c-1-1 0-1 0 0zm2 4s-1 0 0 0zm0 0c0-1-1-1 0 0zm3 0c0-1-1-1 0 0zm-2-1c1-1 0-1 0 0zm1 0s-1 0 0 0zm1 0s-1-1 0 0zm-3 0c2-1-2-1 0 0zm-5-3c1 0 0 0 0 0zm-4 0c2-1-2-1 0 0zm3-2c1 0-2-2 0 0zm1 0c-1-3-1 1 0 0zm-5 0c1-1-1-1 0 0zm3-1c2-2-4-1 0 0zm-1-1c-1 0 1 0 0 0zm3 1c0-3-4-2 0 0zm-1-1s-1 0 0 0zm-1-1c0-1-3 0 0 0zm24 23c-3 0 1-1 0 0zm-9-5c-2-2 0-1 0 0zm-1 0c-1-1 0-1 0 0zm-100-1c-1-1-1 0 0 0zm95 1c-1-1 0-1 0 0zm5-1c-1 1 0-2 0 0zm-99 0c-2-1 1-3 0 0zm93 0c-1-1 1-1 0 0zm-96-1c-1 0 0 0 0 0zm99 0c-1-1-2-5 0 0zm-99 0c-1-1 0-1 0 0zm97-1c-1 0 1 0 0 0zm3-1s1 0 0 0zm3 0c-1 0 1-1 0 0zm-3 0c0-1 1-1 0 0zm3 0c-1-1 1-1 0 0zm-1-1c-1-1 1-1 0 0zm0-1c-1 0 0-1 0 0zm-1 0c-1 0 0-2 0 0zm-11-1c-1-4 3 0 0-3 0-1 3-2 2 1l-2 2zm0-1c-3-2 2 1 0 0zm-1 0v-3c2 1 0 1 0 3zm0-1c0-1-1-1 0 0zm-2-1c-1-1 1-1 0 0zm0-1c-1 0 1 0 0 0zm3 0c-3-1 2-2 0 0zm-77-1c-1 0 2-1 0 0zm-6-2s1 0 0 0zm76-1c-1 0 0 0 0 0zm3 0s1 0 0 0zm6 0s1 0 0 0zm1 0c-1 0 0 0 0 0zm-1 0c-2 0 1-3 0 0zm-10-1c-1-2 4-2 0 0zm3 0c-1-1-4-3-3-4-2 0-2-5-3-3 2 4-4 2-2 1-1 1-4-6-4-4l-2-3c0 2 0 3-1 0h-1l3-3c-1 4 2 0 2 4-2 1 0 3 0 0 3 3 4 0 1 0 3-2 5 4 6 2-3 2 2 1-1 4 3 0 3 0 4 3 0 0 2-2 2 0-3 1 1 1-1 3zm0-1c0-2-1-1 0 0zm-1-2c1-1-1-2 0 0zm-6-2c-1-1-1 0 0 0zm3 1c1-1-1-1 0 0zm-2-2c0-1-3 0 0 0zm2 1c1 0-1 0 0 0zm0-1c1 0 0 0 0 0zm-3 0c1-1-1-1 0 0zm-3-1c1 0 0 0 0 0zm2 0c2-2-2-1 0 0zm0 0s1 0 0 0zm2 0c3-4-2-1 0 0zm-4-1s-1 0 0 0zm0 0s-1 0 0 0zm0 0c1 0 0 0 0 0zm1 0c1 0-1 0 0 0zm-2 0c0-1-1-1 0 0zm3 0c2-2-4-2 0 0zm1 0c0-1-1-1 0 0zm-5-1c1 0 0 0 0 0zm2 0c1-1-1-4 0 0zm4 0s-2 0 0 0zm-1 0c0-3-1 0 0 0zm-4 0c0-2 0 0 0 0zm1 0c1-1 0-1 0 0zm3-1c1-1-1-2 0 0zm1 0c1 0 0 0 0 0zm1-1s-1 0 0 0zm0 0c0-1-2-2 0 0zm-1 0c0-1-1-1 0 0zm-1-1c1 0 0 0 0 0zm-1 0c0-1-1-1 0 0zm-7-1c0-1-1-1 0 0zm2-2c0-1-1 0 0 0zm9 14c-1-1 2-5 1-1 2 0-1 0-1 1zm0 0c1 0 0 0 0 0zm0 0c1-1 0-1 0 0zm-62-1c-2 0 2-1 0 0zm61 0c-1 0 1 0 0 0zm0 0c0-1 1-1 0 0zm1 0c-3-1-2-4 0 0zm1 0c0-1 1-1 0 0zm-4-1c0-1 1-1 0 0zm5-1c-1 0 0 0 0 0zm-66 0c-1-1 0-2 0 0zm68-1c-4-3-2 0 0 0zm-2-2c-2-1 5 0 0 0zm-1 0s1 0 0 0zm0 0c-1-1 0-1 0 0zm-57-1c-1 1 1-1 0 0zm57 0c-1-1 2-1 0 0zm0 0c1 0 0 0 0 0zm1 0s1 0 0 0zm-2 0c-1 0 0-2 0 0zm-8-1c-2-1-1-2 0 0zm9 0c-1 0 1 0 0 0zm0 0c0-1 1-1 0 0zm-5-2c-2-1 1-1 0 0zm-8-1c0-1 1-1 0 0zm5-1c-1-2 1-4 3-2-4-1-1 2 0 2h-3zm1 0c1-1-1-1 0 0zm-52 0c-3-1 3-1 0 0zm55 0c-3-1 2-1 0 0zm-10 0c0-1 1-1 0 0zm0-1c-1 0 0 0 0 0zm1 0l-4-3c-4-2-2-2-3-4 4 0 0-1 0-1s3-3-1 0c0-2-1 3-1-1 1-3-1 1-2-1 0 2-2-1-1-1-3 0 1-2 1-2-1-3-1-2-1 0-1 0-2 2-3 0 0-3-2 0-2 0 1-1-1-3-1-2-2-1-1 0 0 1-2 3 0-1-3-2 2 2-1 1-1 3-3 3-6-1-5-1-3-1 0 1-1 2 1-4 3 2 1 0-1 4-4 4-5 3 0-2 0-2 2-3-2-1-2 5-3 2-4 1 0 1-1-1 1-4 0 1 3-2 3 3 1-4 1-3-1 1 4-4 3-1 0-2 1-2 3-3l4-2c-2 2 2 5 0 2 2-2 2-2 3 0h5c4 2-2 3 0 3 1-3-2-2-1-2 0 6 2 3 3 2 1 3 1 3 2 0 1 0 0 7 2 3h1c0 1-1 2 1 1 3 2-1 4-1 3 1 2 4 0 2 0 0-3 4 1 1 2 0 2 2 1 1-1 3 2 3 2 0 3 1-1 4 3 1 2h-3s4 3 5-1c1-2 3 3 2 1-5 0-4 2-3 3-2-2 1 1-1 1zm-1-1c1 0 0 0 0 0zm1 0c0-2-3-1 0 0zm0-1c1 0 0 0 0 0zm-3 0c0-1-1-1 0 0zm0 0c1-1 0-1 0 0zm-2-2c3-2-1 0 0 0zm3 0c1-1 0-1 0 0zm-2-1c0-1-3-2 0 0zm1 0c2-3-1-4 0 0zm0 0c-1 0 0 0 0 0zm0-2c-1 0 0 0 0 0zm1 2c1 0-1 0 0 0zm-2-1s-1 0 0 0zm1 0c1 0 0 0 0 0zm3-1s-1 0 0 0zm0 0c1 0 0 0 0 0zm-4-1c1-1 0 1 0 0zm4 0c1 0 0 0 0 0zm-5 0c1-1-1 0 0 0zm1 0c1-1 0-1 0 0zm1 0c1-1 0-1 0 0zm1-1c1 0 0 0 0 0zm2 0s-1 0 0 0zm-5 0c1 0 0 0 0 0zm-3 0c1-1 0-1 0 0zm-22-1c1 0 0 0 0 0zm1 0c4-1-3-1 0 0zm1 0c-1 0 0 0 0 0zm21 0c2-3 0-2 0 0zm1-1c-1 0 0 0 0 0zm0 1c1 0-2 0 0 0zm-27 0c1 0-1 0 0 0zm3 0c0-2-1 0 0 0zm2-1c2-1-3 0 0 0zm18 0c3-1-1-3 0-1-2-2 0 2 0 1zm2 0c2-2-2-2 0 0zm0 0c0-1 1-1 0 0zm0-1c-1-1 1-1 0 0zm1 1c1-1-1 0 0 0zm2 0s-1 0 0 0zm0 0c1 0 0 0 0 0zm1 0c0-1-1-1 0 0zm-2 0c2-1-1-1 0 0zm-22-1c1 0 0 0 0 0zm4 0c1-2-1 0 0 0zm-3 0c1-1 0-1 0 0zm11 0c1-1 0-1 0 0zm10 0c1-1-2-1 0 0zm-8-1c1 0 0 0 0 0zm-15 0c1-1 0-1 0 0zm4 0c-2-4-5-5 0 0zm19 0c0-1-1-1 0 0zm-18-1c0-1-1 0 0 0zm11 0l-1-4c-3 2-2-3-4-1l-4 1c0-4-3 1-1 1 4-1 3 1 5 1 3 0 4 2 4 0-2 1 0 2 1 2zm0 0c-1 0 0-2 0 0zm-4-2c-5-2 2-5 0 0zm-1-1c1-1 0-2 0 0zm1-1c1 0 0 0 0 0zm-3 1c0-1 1-1 0 0zm-3-1s1 0 0 0zm2 0c-1 0 0 0 0 0zm3-1c-1 0 1 0 0 0zm8 6c0-1-1-1 0 0zm1 0c1-1 0-1 0 0zm-15-1c1-3-1 0 0 0zm1 0c2 0-1 0 0 0zm11 0c1 0 0 0 0 0zm-10 0c0-1-1-1 0 0zm0-1c2 0-1 0 0 0zm-4 0c1-1 0-1 0 0zm1 0c0-1-1-1 0 0zm2 0c1-2-1 0 0 0zm7 0c0-1-1-1 0 0zm8 0c0-1-1-1 0 0zm-17-1l-1-1 1 1zm1 0c2-1-2-3 0 0zm0 0c1 0 0 0 0 0zm9 0s-1 0 0 0zm-8 0c1 0 0 0 0 0zm1 0c0-1-1-1 0 0zm1 0c0-2-2 1 0 0zm13 0c0-1-1-1 0 0zm-7-1s-1 0 0 0zm7 0c1 0 0 0 0 0zm-20 0c1 0-1 0 0 0zm3 0c0-2-1 0 0 0zm12-1s-1-1 0 0zm-13 0c1-1-1-1 0 0zm1 0c1-1-1-1 0 0zm1-1c-1-1-1 0 0 0zm2 0c1 0 0-1 0 0zm1 0s-1 0 0 0zm7 0c1 0 0 0 0 0zm1 0c0-2 0 0 0 0zm-9-1c1 0 0 0 0 0zm4 0c0-1 0 0 0 0zm1 0c1 0 0 0 0 0zm26 20c-1 0 0 0 0 0zm-5 0c-2-2 4-2 0 0zm-6-1c-2-1 0-1 0 0zm6-1c-2-1 0 0 0 0zm1 0c-5 1 3-2 0 0zm-3-1c-1 1 2-1 0 0zm2 0c-1 0-1-2 0 0zm-46 0c-2 1 1-3 0 0zm47-1s1 0 0 0zm-1 0s1 0 0 0zm-2-1c0-4 0-1 0 0zm0-1c0-1-1-1 0 0zm0 1c-1-1 0-1 0 0zm1-1c-1 0 0 0 0 0zm-10 0c-2 0-1-2 0 0zm-3-2c-2-1 2-1 0 0zm0 0c1-1 0-1 0 0zm9 0s1 0 0 0zm0-1s1-2 0 0zm-11-1s1 0 0 0zm9 0c-1 0 0 0 0 0zm-24 0c0-1 1-1 0 0zm15 0c-1-1 0-1 0 0zm-20-2c-1-2 2-1 0 0zm2 0c-2-1-1-4 0-2v2zm-1-2c2-1 0 0 0 0zm10 1s1 0 0 0zm0 0c-3 0 2-1 0 0zm-11 0c-1-1 0-1 0 0zm12 0c-1-1 1-2 0 0zm-8-1c-1-1 1 0 0 0zm13 0c-1 0 0 0 0 0zm3-1c-1 0 1 0 0 0zm5 0c-1-1 0-2 0 0zm0-1s1 0 0 0zm-4 0c-3 0 2-1 0 0zm-18-1c-1 0 0 0 0 0zm18 0s1 0 0 0zm1-1c-2 0 3-1 0 0zm-4-2c-1-1 0-1 0 0zm-1 0c0-1 1-1 0 0z" fill="#e94b44"/></svg>