<svg xmlns="http://www.w3.org/2000/svg" viewBox="0 0 256 256"><path fill="#fff" d="m10 146 72 41a24 24 0 0 0 10 3 21 21 0 0 0 18-10c6-10 2-23-8-28l-71-41a24 24 0 0 0-11-3 20 20 0 0 0-17 10c-6 10-2 23 7 28ZM37 101l36 20 29-17c10-6 14-18 8-28s-18-13-28-7L31 98a30 30 0 0 1 6 3ZM246 111l-72-42a24 24 0 0 0-10-3 21 21 0 0 0-18 10c-6 10-3 23 7 28l72 42a20 20 0 0 0 11 3 20 20 0 0 0 17-11c6-9 3-22-7-27ZM219 156l-36-21-29 17c-10 6-14 18-8 28 3 6 10 10 18 10a24 24 0 0 0 10-3l50-29a31 31 0 0 1-5-2Z"/></svg>