<svg xmlns="http://www.w3.org/2000/svg" fill="none" viewBox="0 0 250 250"><defs/><path fill="#fff" fill-rule="evenodd" d="M0 199V51C0 23 23 0 51 0h148c28 0 51 23 51 51v72c0 28-23 50-51 50h-29v26c0 28-22 51-50 51H51c-28 0-51-23-51-51zM78 79H13V50c0-20 17-37 38-37h27v66zm121 82h-27V94h65v29c0 21-17 38-38 38zm-79 77H92v-62h65v24c0 20-16 38-37 38zm-28-77h65V94H92v67zm80-82h65V51c0-21-17-38-38-38h-27v66zm-15 0H92V13h65v66zM13 175v24c0 21 17 38 37 38h28v-62H13zm65-14H13V94h65v67z" clip-rule="evenodd"/></svg>