<svg xmlns="http://www.w3.org/2000/svg" width="933.3" height="933.3" version="1.0" viewBox="0 0 700 700"><path d="M585 245a2037 2037 0 01-41 87l-22 49-23 48-14 32 21 2 22-1 13-30 12-28h79l12 29 12 28h22l22-1-2-4-10-19-11-24-21-44-11-23-10-20-14-30-6-14-11-22-13-28-7 13zm24 95l14 33h-60a1937 1937 0 0131-67l15 34zM106 240c-44 7-73 30-87 70-7 20-9 43-5 63 5 30 20 54 43 72 33 24 82 29 118 11 36-17 58-56 58-102l1-7-53-1h-53v16l1 15 34 1h34v3a76 76 0 01-17 29c-8 9-14 12-28 16-10 4-15 4-26 4a73 73 0 01-74-77c-1-13-1-16 1-24a75 75 0 0158-56 111 111 0 0135 1c6 0 16 5 23 9a76 76 0 0122 23l15-9 15-9-4-6c-6-7-14-16-23-22a132 132 0 00-50-21c-7-1-31-1-38 1zM362 239l-6 1a108 108 0 00-94 130c3 15 11 34 19 46s24 27 36 33 31 12 43 14c16 1 35 0 50-5 19-6 36-18 49-36 14-20 23-49 22-74 0-2-3-2-53-2h-53v31h67l-1 4-6 13c-13 26-40 39-72 36-32-4-55-25-64-59-2-7-2-26-1-34 2-12 8-27 14-35 7-9 19-19 30-24 14-6 36-8 51-4a71 71 0 0145 32l14-9 14-10-3-4c-8-12-22-23-35-31-7-4-20-8-31-11-6-1-34-3-35-2z"/></svg>