<svg version="1" xmlns="http://www.w3.org/2000/svg" width="2730.667" height="2730.667" viewBox="0 0 2048.000000 2048.000000"><path d="M514.7 560.6c-.1.1-6.5.5-14.3.8-7.8.4-15 .8-16 1-1 .2-5.5.7-9.8 1.1-4.3.4-8.6.8-9.5 1-.9.1-4.2.6-7.5 1-6.5.8-6.7.8-22.6 3.6-6.3 1.1-16.2 3.2-22 4.5-5.8 1.4-11.4 2.7-12.4 2.9-5.9 1.3-28.3 8.1-40.2 12.4-57.9 20.4-110.4 51.2-152.8 89.5-41.9 37.9-73.9 80.4-98.7 131.3-4.9 10-8.9 18.4-8.9 18.8 0 .3-.9 2.7-2.1 5.2-7.7 16.9-21.1 58.5-23.5 73.2-.3 1.4-.7 3.3-1 4.1-.3.8-.8 2.6-1 4-.3 1.4-.9 4.7-1.4 7.5-1.6 7.9-3.2 16.9-3.5 19.5-.2 1.7-1.5 11.3-2 15-.2 1.4-.6 5.4-1 9-.3 3.6-.8 8.1-1 10-1.8 16.5-2.4 57.4-1.1 79.5 1.3 23.4 2.6 34.8 7.1 64 1.3 8.7 7.1 33.3 11.2 47.5 21.3 75.1 61.8 143.8 115.3 195.6 12.5 12.1 16.1 15.3 27.5 24.6 14 11.4 13.4 10.9 17.5 13.8 1.9 1.3 3.7 2.7 4 3 1.2 1.6 30.7 20.4 41.5 26.6 27.9 15.8 60.6 29.6 95.5 40.3 7.3 2.2 37.9 9.7 42.5 10.5 1.7.2 8.4 1.3 15 2.5 14.1 2.4 17 2.8 25 3.6 3.3.3 7.1.8 8.5 1 2.7.4 17 1.5 26.5 2.1 21.1 1.3 72.4 0 86.5-2.1 1.4-.2 5.4-.7 9-1 3.6-.4 7.4-.9 8.5-1.1 1.1-.2 4-.6 6.5-.9 2.5-.4 6.8-1 9.5-1.6 2.8-.5 6.1-1.1 7.5-1.4 1.4-.3 3.6-.7 5-1 1.4-.3 3.6-.8 5-1.1 1.4-.3 3.6-.7 4.9-1 8.2-1.7 38.5-10.6 45.6-13.3 1.1-.5 7-2.7 13-5.1 13-5 39.3-17.7 52-25 72.2-41.8 128.2-102.9 167-182.5 26.4-54.2 43.5-117.8 49-182 .3-3.9.8-9 1.1-11.5.3-2.5.7-15.8.9-29.7.4-19.4.2-25.4-.8-26-.6-.4-97.8-.8-215.9-.8H539v128.2l135.3.1c74.3 0 135.8.1 136.5.1 1.8.1 1.5 1.8-1.7 12.2-5.9 19.2-20 53.7-23.7 58-.8.8-1.4 1.9-1.4 2.4 0 2.3-22.8 38.7-27.7 44-1 1.2-3.4 4.1-5.3 6.5-15.8 20.5-43.9 44.3-70.6 59.8-23 13.3-52.3 24.4-75.9 28.7-10.3 1.8-20.7 3.5-25.5 4-3 .4-6.6.8-8 1-5.8.9-26.5 1.7-39.5 1.6-23.4-.1-35.9-1.1-56.5-4.6-12.9-2.2-13.8-2.4-24-5-90.9-22.7-164.3-85-201.9-171-2.4-5.5-4.9-11.4-5.6-13-1.6-3.8-10.2-30.2-10.9-33.5-.3-1.4-1.4-6.3-2.5-11s-2.2-9.6-2.4-11c-2.6-14-2.9-15.9-4.3-27.5-.3-2.8-.7-6.1-.9-7.4-2.3-14.1-2.3-70.1 0-84.2.2-1.3.6-4.9.9-7.9 9-82.5 50.2-158.1 113.1-207.3 3.3-2.6 6.5-5.1 7-5.5 8-6.4 34-21.9 48.5-28.9 23-11.1 58.9-22.5 81-25.8 1.9-.2 4.4-.6 5.5-.9 10.9-2.1 37.3-4 57-3.9 12.4 0 34.6 1.1 38.4 1.8 1 .2 4.4.6 7.7.9 3.2.4 6.6.8 7.4 1.1.8.2 3.8.6 6.5 1 7.9 1 22.9 4.3 36.1 8.1 51.7 14.6 100.8 46.6 135.1 87.9 4.1 4.9 8.3 10 9.3 11.1 2.4 2.9 17.7 26.1 18.2 27.6s1.5.9 25.6-15.4c10.3-7 29.1-19.7 41.7-28.2 12.7-8.5 23.5-15.9 24-16.3.6-.5 7.3-5.1 15-10.2 7.7-5.2 14.8-10.1 15.8-11 1.7-1.6 1.4-2.2-5.4-12.2-32.1-46.8-67.6-82.3-112-112.1-37.8-25.4-72.7-41.9-116.9-55.1-15.5-4.7-45.7-11.6-58-13.2-2.7-.4-16.3-2.2-21.8-3-1.9-.3-6.4-.8-10-1.1-3.7-.3-8.1-.7-9.8-.9-8-1.1-66.7-2.7-67.7-1.9zM1532.7 560.5c-.1.1-8.1.5-17.7.9-9.6.3-18.6.8-20 1-1.4.2-5.6.7-9.5 1.1-9 .9-13.2 1.4-17.5 2-1.9.3-6.4 1-10 1.5-5.5.8-16.1 2.8-30 5.6-18.9 3.9-62.5 17.1-73.5 22.3-4.6 2.2-11.4 5.1-12 5.1-1.4 0-35 16.5-45.1 22.1-39.7 22-79.1 53.3-110 87.2-5.2 5.7-6.3 7-13.4 15.7-2.5 3-4.7 5.7-5 6-1.8 1.8-14.4 19.3-20.5 28.5-26.9 40.8-49.2 90.8-60.2 135-.8 3.3-1.6 6.7-1.8 7.5-1.8 6.8-2.7 10.9-5 23-1.8 9.7-2.3 12.6-3 17.5-.3 2.3-.7 5.1-1 6.4-.2 1.3-.7 4.9-1 8-.2 3.1-.7 7.4-1 9.6-1.8 14.3-2.9 35.6-2.8 58 0 16.3.9 40.7 1.7 47 .2 1.6.7 6.4 1.1 10.5.8 9.5 2.3 21.2 3 24 .1.3.5 3.4 1 7s.9 6.7 1 7c.1.3.7 3.2 1.4 6.5 1.1 5.4 5.7 25.8 6.6 29.5.3.8 1.1 4 2 7 .9 3 1.8 6.3 2 7.2.2.9 2.8 9 5.8 18 29.2 86.9 82 159.8 154.8 213.6 33.5 24.7 73 45.7 114.7 60.8 13.3 4.8 41.9 13.3 50.7 15 4.8.9 6.2 1.2 10 2.2 2.2.6 5.4 1.3 7 1.6 1.7.3 6.8 1.2 11.5 2s10.5 1.8 13 2.1c2.5.3 5.2.8 6 1 .8.2 4.9.7 9 1 4.1.4 8.2.8 9 1 1.6.3 13.4 1.3 24.5 2.1 9.7.6 57.9.7 64 0 2.8-.3 9.1-.8 14-1.1 5-.3 9.7-.7 10.5-.9.8-.3 4.7-.7 8.5-1.1 3.9-.3 7.7-.8 8.5-1 .8-.2 3.5-.6 6-.9 4.7-.6 8.9-1.3 13-2.1 1.4-.3 3.6-.8 5-1 76.7-14 153.3-54.5 209-110.5 28.3-28.4 47.1-53.6 72.3-96.5 4.4-7.6 19-38.3 23.7-49.9 15.2-37.7 27.8-84.1 32.5-119.6.3-2.5.8-5.2 1-6 .2-.8.6-4.7 1-8.5.3-3.9.8-8.1 1-9.5 1.7-10.3 3-37.1 3-60v-18.5h-431l-.3 64.1-.2 64.1h136.5c75.1 0 136.7.2 136.9.4.7.7-7.9 26.6-13.2 40-9.5 23.9-27.4 56.4-39.9 72.4-1.3 1.6-2.7 3.4-3.1 4-9.4 12.6-23.1 27-35.7 37.7-3.8 3.3-8 6.8-9.1 7.8-1.2 1.1-7.9 5.8-15 10.5s-13.3 8.9-13.9 9.3c-.8.6-13.1 7.1-21.5 11.3-9.4 4.7-28.9 11.6-42 14.9-13.6 3.4-16 3.9-25.5 5.4-8.4 1.4-11.6 1.8-22.7 3.1-14.7 1.7-45.9 2.2-61.3 1-13.6-1.1-14.5-1.2-21-1.9-5-.6-20.7-3.3-29-5-7.8-1.6-32.2-8.5-37-10.5-1.1-.5-6.3-2.6-11.5-4.6-24.6-9.7-52.5-25.9-73.5-42.6-11.5-9.1-14.6-11.9-27.7-25.2-40-40.7-68.1-93.6-80.8-152.2-1.2-5.5-2.3-11.1-2.5-12.5-.2-1.4-1-7-1.9-12.5-2.7-18.3-3.9-35.5-4-57 0-13.5 1-36.2 1.9-44 .2-1.7.6-5.5 1-8.5 2.1-17.9 4.8-31.3 10.2-50.8 3.4-12.6 11.4-35.7 13.9-40.2.7-1.4 3-6.1 5-10.5 8-17.3 22.2-39.9 36-57.1 11-13.8 21.2-24.6 36.4-38.4 9.6-8.7 34.1-25.9 48.5-34 12.5-7.1 41.5-20.5 41.5-19.3 0 .3.6.1 1.3-.5 2.8-2.3 33.2-11.1 49.2-14.2 12.3-2.4 12.5-2.4 21.5-3.5 3.6-.4 7.4-.9 8.4-1.1 11-2.1 67.2-2.1 78.5.1.9.1 4.3.6 7.6.9 11 1.2 27.2 4.3 41 7.7 58.5 14.6 113 50 150 97.4 1.7 2.1 4 5 5.1 6.4 2.5 3 16.1 23.9 16.7 25.5.4 1 12.7-7 61.7-40.1 11.3-7.7 28.4-19.2 38-25.8 9.6-6.5 18.5-12.6 19.8-13.6 1.3-1 2.8-1.9 3.5-2.2 2.5-.8-24.3-37.8-41.1-56.6-55.7-62.7-132.5-108.3-215.4-128.1-15.9-3.8-32.1-6.9-43.8-8.5-2.5-.3-5.2-.8-6-1-.8-.2-4-.6-7-.9-18.5-1.9-18.6-1.9-37.1-3.1-9.1-.7-44.6-1.4-45.2-1z"/></svg>