<svg xmlns="http://www.w3.org/2000/svg" viewBox="0 0 2500 2500"><circle cx="1250" cy="1250" r="1250" fill="#f1f3f4"/><path d="M209.62,1514.6c180.41,0,180.41-116.83,360.83-116.83S750.86,1514.6,931.27,1514.6s180.41-116.83,360.83-116.83,180.41,116.83,360.82,116.83,180.41-116.83,360.83-116.83c171,0,179.55,104.81,332.47,116C2483.68,908.93,2104.81,307.56,1500,171S294.67,412.37,157.22,1016.32a1127.36,1127.36,0,0,0-.86,494,382.47,382.47,0,0,0,54.12,4.29Z" fill="#304ffe"/><path d="M1141.75,283.51h292.1V554.12h-292.1Z" fill="#ffd54f"/><path d="M1141.75,283.51h103.1V554.12h-103.1Z" fill="#fff176"/><ellipse cx="1242.27" cy="350.52" rx="68.73" ry="85.91" fill="#fff176"/><path d="M1134.88,252.58c0-83.34,67.87-151.21,151.2-151.21s151.21,67.87,151.21,151.21" fill="#f4511e"/><path d="M1286.94,101.37c82.48,0,149.49,67,149.49,150.35v.86H1286.94Z" fill="#e64a19"/><path d="M1124.57,247.42h321.31a19.76,19.76,0,0,1,0,39.52H1124.57a19.44,19.44,0,0,1-19.76-19.76A20,20,0,0,1,1124.57,247.42Z" fill="#f4511e"/><path d="M1099.66,1387.46l42.09-835.91h292.1l37.8,794.67Z" fill="#c5cae9"/><path d="M1438.14,616l11.17,221.65" fill="none"/><path d="M1130.58,759.45l-11.16,232,329.89-153.78L1438.14,616Z" fill="#ff7043"/><path d="M1460.48,1055l11.17,221.65" fill="none"/><path d="M1107.39,1219.93l-12,232,376.29-175.26L1460.48,1055Z" fill="#ff7043"/><path d="M1097.08,428.69h377.15V552.41H1097.08Z" fill="#e64a19"/><path d="M1097.08,428.69H1344.5V552.41H1097.08Z" fill="#f4511e"/><path d="M1282.65,428.69c0,44.68-42.1,80.76-92.79,80.76s-92.78-36.08-92.78-80.76" fill="#ffe082" opacity="0.5" style="isolation:isolate"/><path d="M1761.17,394.33c10.31,0,19.76,2.58,28.35,6a119.41,119.41,0,0,1,230.24-30.92,79.9,79.9,0,1,1,0,159.79H1761.17a67.47,67.47,0,0,1-67.87-67.87c0-37.8,30.07-67,67.87-67Z" fill="#2979ff"/><path d="M992.27,1040.38a57.72,57.72,0,0,1,24.05,5.15,101.52,101.52,0,0,1,109.11-91.92c38.66,3.43,72.16,29.21,85.91,65.29,37.8-1.72,69.59,26.63,71.31,64.43s-26.64,69.59-64.44,71.31H993.13c-31.79-.86-56.7-28.35-55-59.28,0-30.07,24.06-54.12,54.13-55Z" fill="#448aff"/><circle cx="1554.12" cy="262.03" r="12.03" fill="#fdd835"/><circle cx="1661.51" cy="945.88" r="21.48" fill="#fff9c4"/><circle cx="381.44" cy="752.58" r="21.48" fill="#fff9c4"/><circle cx="725.95" cy="1120.27" r="21.48" fill="#fff9c4"/><circle cx="1570.45" cy="608.25" r="21.48" fill="#fff9c4"/><circle cx="2015.46" cy="1152.06" r="21.48" fill="#fff9c4"/><circle cx="335.91" cy="1231.1" r="12.03" fill="#fdd835"/><circle cx="448.45" cy="985.4" r="12.03" fill="#fdd835"/><circle cx="524.05" cy="921.82" r="12.03" fill="#fdd835"/><circle cx="842.78" cy="637.46" r="12.03" fill="#fdd835"/><circle cx="1850.52" cy="671.82" r="12.03" fill="#fdd835"/><circle cx="2329.04" cy="1180.41" r="12.03" fill="#fdd835"/><circle cx="640.89" cy="600.52" r="12.03" fill="#fdd835"/><circle cx="1716.49" cy="1185.57" r="12.03" fill="#fdd835"/><circle cx="2085.05" cy="880.58" r="12.03" fill="#fdd835"/><path d="M1146.91,279.21s-571.31-79.9-573-79.9c-223.36,146.05-326.46,300.69-378,378l950.17-139.18Z" fill="#ffe082" opacity="0.5" style="isolation:isolate"/><path d="M1445,551.55H1297.25v756.87l177.84,79Z" fill="#304ffe" opacity="0.5" style="isolation:isolate"/><path d="M933.85,1517.18c180.41,0,180.41-116.84,360.82-116.84s180.42,116.84,360.83,116.84c152.92,0,176.12-84.19,290.38-110-155.5-85-387.46-139.18-646.91-139.18s-494.85,55-650.34,140.89C758.59,1435.57,782.65,1517.18,933.85,1517.18Z" fill="#00c853"/><path d="M934.71,1515.46c180.41,0,180.41-116.83,360.82-116.83H1299l-1.72-128.87c-257.73,0-489.69,53.26-644.33,137.46C760.31,1434.71,785.22,1515.46,934.71,1515.46Z" fill="#64dd17"/><text x="50%" y="1750" dominant-baseline="middle" text-anchor="middle" font-size="200" font-family="Roboto">Lighthouse Report</text><text x="50%" y="2000" dominant-baseline="middle" text-anchor="middle" font-size="200" font-family="Roboto">%PROJECT_NAME%</text></svg>