<svg xmlns="http://www.w3.org/2000/svg" viewBox="0 0 512 512"><path fill="#557892" d="M0 0h512v512H0z"/><path fill="#fff" d="M255.3 90c-.3.6-.5 2-.7 5.7a119.1 119.1 0 01-.6 6.8l-.3 3.6-.6 6.8-.3 3.4a67.8 67.8 0 01-.6 6.5 52.4 52.4 0 01-.5 6l-.3 3.1-.3 3.2-.3 2.2s-2.7-1.6-5.8-3.8c-5.6-3.7-7.1-4.5-7.1-3.4a6.2 6.2 0 001.5 2.6.4.4 0 01.2.3c0 .2 1.4 2.3 3 4.8a32 32 0 012.8 4.6 16.1 16.1 0 01-2.5.4l-3 .3-3.5.3c-1.5 0-3 .2-3.5.3l-3.1.3-3.7.2-3.2.3-3.2.3-3.7.3a54.8 54.8 0 00-6.4.6l-3.6.3-3.2.3c-3.8.3-4.6.5-4.8 1.2-.2 1.2.7 1.7 3.5 2l3.2.3 3.4.3 3.2.2 3.3.3 3.2.3 3.7.3 3.4.3 3 .3c1.3 0 2.8.2 3.3.3l3.3.3a154 154 0 019.8.8 6 6 0 011.2.2 22.3 22.3 0 01-1.9 3.1l-2 3.2a7.3 7.3 0 01-.8 1.2 33.6 33.6 0 00-2 2.8c-1 1.8-1.2 2.7-.3 2.7a72 72 0 009.1-5.9 20 20 0 013-1.9 38.5 38.5 0 01.7 5.2l.7 7.9.7 8 .6 7 .6 6.6.6 7.1c.1 1.1.6 5.8 1.1 5.8s.8-.7 1-2.2l.8-10.2c0-1.2.2-2.8.3-3.5l.3-3.5c0-1.2.2-2.8.3-3.5l.2-3.2 1-9.7.2-3.2a83.2 83.2 0 01.6-6 15 15 0 01.3-2.5s2.8 1.7 6 3.9c6 4 7.1 4.5 6.7 2.9a66.6 66.6 0 00-3.9-6.3l-3.7-5.7a30.4 30.4 0 014.3-.5l3-.3a151.5 151.5 0 017.1-.6l3-.3 3.7-.2 3.1-.3 3.4-.3a241.2 241.2 0 0113.3-1.2c5-.3 6.2-.6 6.6-1.4a.8.8 0 00-.2-1c-.6-.7-1.3-.8-8.3-1.4l-2.9-.2c-.6 0-2-.3-3.3-.3s-3-.3-3.6-.3l-10-.9c-1.3 0-2.8-.2-3.4-.3l-3.3-.3-3.3-.3-5-.4c-3.5-.3-4-.4-4-.8 0-.3 1.9-3 3.9-6a49.4 49.4 0 003.6-6 .7.7 0 00-.4-.6c-.2-.2-3 1.5-6.4 3.8-3.3 2.3-6 4-6.1 4l-.3-2.8a26.5 26.5 0 00-.3-2.9l-.2-2.7-.3-3.1-.3-3.3-.3-3-.3-3.4-.3-3.5-.3-3.6c0-1.7-.2-3.2-.3-3.4l-.3-3.2-.3-3.6-.2-3.4a49 49 0 00-.3-3.1 6.5 6.5 0 01-.2-1.1 2.4 2.4 0 00-.3-1.3c-.4-.5-.4-.5-.7 0zM198 206a23.9 23.9 0 00-1.5 4.8 221 221 0 01-10.4 30.8 180 180 0 01-8.8 17.1 11.1 11.1 0 00-1.6 3.2c.2 1.1 1 1 5-.3 5.5-1.8 8.7-2.8 11-3.3l1-.2 6-1.2 2.7-.4a57.7 57.7 0 0113.3.4c.7 0 2.2.5 2.6.5l1 .3a20.5 20.5 0 018 4.8c4 4 5.3 6.4 8.5 17l1.2 4.2 1.5 5.5c.8 2.8 1.4 5.5 1.4 6l.3 1.6.5 2.1.4 2.2c.3 1.5 1.3 7.4 1.4 9l.3 2.3.6 5.1.3 3.5c1 10.1 1 26.3 0 40.3 0 1.5-.2 3.2-.3 4l-.2 3.1a273.8 273.8 0 00-1 9l-.2 2.6-.3 2.4a50.3 50.3 0 01-.6 5.1 41.9 41.9 0 01-.6 5c-.3 3.2-.2 3.3 6.8 6.8a343.8 343.8 0 0116.2 8.4c3.7 2 11.5 6.6 18.3 10.7a61.1 61.1 0 007.3 4c1 0 1.3-1 1-3.7l-.2-4.7-.6-8.3a110.5 110.5 0 01-.6-7.4l-.3-2.6-.4-3.8-.5-3.8a79.5 79.5 0 00-.5-4.6l-.3-2-.3-2a34.5 34.5 0 00-.6-4c0-.8-.3-2.2-.4-3l-.5-3-.4-2.6-.4-2.8-.6-3.5-.3-1.6-1.4-8.7-.4-1.7c-.2-.7-.2-1.4-.2-1.6l-.6-3-.5-3.2-.3-1.6-.5-2.5-1-5.8c-.4-2.2-1-4.7-1-5.5s-.6-3-1-4.7l-.6-4-.8-4.4c-.4-1.9-.6-4-.7-4.8l-.3-2-.6-4.5-.3-3.4c-.4-5-.2-17.9.3-18.8a7.4 7.4 0 00.3-1.1 13 13 0 01.7-2.8l.8-1.9a23.7 23.7 0 017.5-9.1 24.8 24.8 0 018-3.3c2.3-.5 3.5-.6 7.6-.5a44.7 44.7 0 018.9.8l2.4.4c4.3.7 17.8 5.1 22.7 7.4a15 15 0 005 1.5c.6-.2.3-1.6-.8-3.7a102.4 102.4 0 01-6.3-15 123.6 123.6 0 01-3-12.3l-.4-1.7a108 108 0 01-1.2-13.7c-.1-6.5-.5-6.8-7.2-5.8l-5 .6-9.7 1-3.5.2a321.5 321.5 0 01-40.7-.3l-3.5-.3-2.7-.3c-1 0-2.3-.2-2.7-.3l-2.1-.3c-2.3-.2-3.3-.4-6.7-1l-4.2-.7-2.8-.6-4-.9c-.5 0-2.6-.6-4.8-1.1l-4.3-1.2c-2.4-.5-11.4-3.6-16.4-5.5s-5.5-2-6.2-1.2z"/></svg>