<svg xmlns="http://www.w3.org/2000/svg" viewBox="0 0 77.2 77.2"><path fill="#f8ce46" d="M0 0h77.2v77.2H0z"/><path fill="#d6cac0" d="M36.5 63.5h5v6h-5Z"/><path fill="#bdb2aa" d="M45.5 57.5c0 4-3 6-7 6s-7-2-7-6"/><path fill="none" stroke="#544f4b" stroke-miterlimit="10" stroke-width="2" d="M57.5 40.5a18 18 0 0 1-18 18h-2a18 18 0 0 1-18-18"/><path fill="#f0ebe7" d="M53.5 31.5v8a15 15 0 0 1-30 0v-8"/><path fill="#7ccacb" d="M23.5 31.5v-8a15 15 0 0 1 30 0v8"/><path fill="#5ca1a1" d="M27.5 31.5v-8a11 11 0 0 1 22 0v8"/><path fill="#ddd2ca" d="M40.5 52.5a13 13 0 0 1-13-13v-10h26v10a13 13 0 0 1-13 13Z"/><path fill="#fa8a8a" d="M23.5 27.5h30v4h-30Z"/><path fill="#dd7a7a" d="M23.5 29.5h30v2h-30Z"/><path fill="none" stroke="#544f4b" stroke-miterlimit="10" stroke-width="2" d="M38.5 8.5a15 15 0 0 1 15 15v16a15 15 0 0 1-15 15 15 15 0 0 1-15-15v-16a15 15 0 0 1 15-15Zm-15 23h30m-17 38v-6m4 6v-6m-17-36h30m-39 13h48m-25-29h2m0 2h2m-4 2h2m-4-2h2m4 2h2m-2-4h2m0 2h2m0 2h2m-12-4h-2m0 2h-2m4 2h-2m-2 0h-2m18-2h2m-22 0h2m0-2h2m4-2h2m2 0h2m4 2h2m-16 6h2m2 0h2m2 0h2m2 0h2m2 0h2m-20 0h-2m0-2h-2m0 4h2m2 0h2m2 0h2m2 0h2m2 0h2m2 0h2m2 0h2m-28 2h2m2 0h2m2 0h2m2 0h2m2 0h2m2 0h2m2 0h2m2 0h2m-4-6h2m-26 8h2m2 0h2m2 0h2m2 0h2m2 0h2m2 0h2m2 0h2m-28 2h2m2 0h2m2 0h2m2 0h2m2 0h2m2 0h2m2 0h2m2 0h2m-34 15v-4h3m35 4v-4h-3m6 1v6m-44-6v6m29 14c0 4-3 6-7 6s-7-2-7-6"/></svg>