<svg xmlns="http://www.w3.org/2000/svg" viewBox="0 0 2255 2255"><path fill="#FFF" d="M0 0h2255v2255H0z"/><path d="M632.5 110a27.5 27.5 0 110 55 27.5 27.5 0 010-55zM797.5 110a27.5 27.5 0 110 55 27.5 27.5 0 010-55zM907.5 110H935v55h-27.5a27.5 27.5 0 010-55zM962.5 165H935v-27.5V110h27.5a27.5 27.5 0 010 55zM1127.5 110a27.5 27.5 0 110 55 27.5 27.5 0 010-55zM1430 165h55v-55a55 55 0 00-55 55zM1485 110v55h55a55 55 0 00-55-55zM1622.5 110h27.5v55h-27.5a27.5 27.5 0 010-55zM1650 110v55h55a55 55 0 00-55-55zM577.5 165a27.5 27.5 0 110 55 27.5 27.5 0 010-55zM715 192.5V220h-55v-27.5a27.5 27.5 0 0155 0zM1017.5 165h27.5v55h-27.5a27.5 27.5 0 010-55zM1072.5 220H1045v-27.5V165h27.5a27.5 27.5 0 010 55zM1237.5 165a27.5 27.5 0 110 55 27.5 27.5 0 010-55zM1485 220v-55h-55a55 55 0 0055 55zM1540 165h-55v55a55 55 0 0055-55zM1650 165h55v55h-55zM660 220h55v55h-55zM715 220h55v55h-55zM770 220h55v55h-55zM825 220h55v55h-55zM880 220v55h55a55 55 0 00-55-55zM1127.5 220h27.5v55h-27.5a27.5 27.5 0 010-55zM1155 220v55h55a55 55 0 00-55-55zM1320 275h55v-55a55 55 0 00-55 55zM1402.5 275H1375v-27.5V220h27.5a27.5 27.5 0 010 55zM1540 275h55v-55a55 55 0 00-55 55zM1595 220h55v55h-55zM1650 220h55v55h-55zM660 302.5V275h55v27.5a27.5 27.5 0 01-55 0zM770 302.5V275h55v27.5a27.5 27.5 0 01-55 0zM935 330v-55h-55a55 55 0 0055 55zM935 275h55v55h-55zM990 275v55h55a55 55 0 00-55-55zM1210 330v-55h-55a55 55 0 0055 55zM1210 275v55h55a55 55 0 00-55-55zM1320 275h55v55h-55zM1430 330h55v-55a55 55 0 00-55 55zM1485 275h55v55h-55zM1540 275h55v55h-55zM1595 275h55v55h-55zM1705 275h-55v55a55 55 0 0055-55zM990 330h55v55h-55zM1045 330h55v55h-55zM1127.5 385H1100v-27.5V330h27.5a27.5 27.5 0 010 55zM1265 385v-55h-55a55 55 0 0055 55zM1265 330h55v55h-55zM1320 330h55v55h-55zM1375 330h55v55h-55zM1485 330h-55v55a55 55 0 0055-55zM1595 357.5V330h55v27.5a27.5 27.5 0 01-55 0zM550 440h55v-55a55 55 0 00-55 55zM605 385h55v55h-55zM660 385h55v55h-55zM742.5 440H715v-27.5V385h27.5a27.5 27.5 0 010 55zM852.5 385a27.5 27.5 0 110 55 27.5 27.5 0 010-55zM990 385h55v55h-55zM1265 412.5V385h55v27.5a27.5 27.5 0 01-55 0zM1375 412.5V385h55v27.5a27.5 27.5 0 01-55 0zM1705 412.5V440h-55v-27.5a27.5 27.5 0 0155 0zM550 440h55v55h-55zM660 467.5V440h55v27.5a27.5 27.5 0 01-55 0zM825 467.5V495h-55v-27.5a27.5 27.5 0 0155 0zM935 467.5V495h-55v-27.5a27.5 27.5 0 0155 0zM990 467.5V440h55v27.5a27.5 27.5 0 01-55 0zM1127.5 440a27.5 27.5 0 110 55 27.5 27.5 0 010-55zM1237.5 440a27.5 27.5 0 110 55 27.5 27.5 0 010-55zM1375 467.5V495h-55v-27.5a27.5 27.5 0 0155 0zM1457.5 440a27.5 27.5 0 110 55 27.5 27.5 0 010-55zM1567.5 440a27.5 27.5 0 110 55 27.5 27.5 0 010-55zM1650 467.5V440h55v27.5a27.5 27.5 0 01-55 0zM605 550v-55h-55a55 55 0 0055 55zM632.5 550H605v-27.5V495h27.5a27.5 27.5 0 010 55zM770 522.5V495h55v27.5a27.5 27.5 0 01-55 0zM880 495h55v55h-55zM935 495v55h55a55 55 0 00-55-55zM1100 522.5V550h-55v-27.5a27.5 27.5 0 0155 0zM1292.5 495h27.5v55h-27.5a27.5 27.5 0 010-55zM1320 495h55v55h-55zM1375 495v55h55a55 55 0 00-55-55zM1540 522.5V550h-55v-27.5a27.5 27.5 0 0155 0zM330 605h55v-55a55 55 0 00-55 55zM385 550h55v55h-55zM440 550h55v55h-55zM495 550v55h55a55 55 0 00-55-55zM687.5 550a27.5 27.5 0 110 55 27.5 27.5 0 010-55zM880 550h55v55h-55zM935 550h55v55h-55zM990 550h55v55h-55zM1045 550h55v55h-55zM1100 550h55v55h-55zM1182.5 605H1155v-27.5V550h27.5a27.5 27.5 0 010 55zM1375 550h55v55h-55zM1485 577.5V550h55v27.5a27.5 27.5 0 01-55 0zM1622.5 550a27.5 27.5 0 110 55 27.5 27.5 0 010-55zM1787.5 550h27.5v55h-27.5a27.5 27.5 0 010-55zM1842.5 605H1815v-27.5V550h27.5a27.5 27.5 0 010 55zM2062.5 550a27.5 27.5 0 110 55 27.5 27.5 0 010-55zM330 605h55v55h-55zM495 605h55v55h-55zM660 632.5V660h-55v-27.5a27.5 27.5 0 0155 0zM880 605h55v55h-55zM935 605h55v55h-55zM990 605h55v55h-55zM1045 605h55v55h-55zM1100 605h55v55h-55zM1265 632.5V660h-55v-27.5a27.5 27.5 0 0155 0zM1430 660v-55h-55a55 55 0 0055 55zM1430 605v55h55a55 55 0 00-55-55zM1595 632.5V660h-55v-27.5a27.5 27.5 0 0155 0zM1897.5 605h27.5v55h-27.5a27.5 27.5 0 010-55zM1925 605h55v55h-55zM1980 605v55h55a55 55 0 00-55-55zM165 687.5V715h-55v-27.5a27.5 27.5 0 0155 0zM302.5 660H330v55h-27.5a27.5 27.5 0 010-55zM330 660h55v55h-55zM385 660h55v55h-55zM440 660h55v55h-55zM495 660h55v55h-55zM605 660h55v55h-55zM715 715h55v-55a55 55 0 00-55 55zM797.5 715H770v-27.5V660h27.5a27.5 27.5 0 010 55zM880 660h55v55h-55zM1100 660h55v55h-55zM1155 660h55v55h-55zM1210 660h55v55h-55zM1292.5 715H1265v-27.5V660h27.5a27.5 27.5 0 010 55zM1485 715v-55h-55a55 55 0 0055 55zM1485 660h55v55h-55zM1540 660h55v55h-55zM1595 660h55v55h-55zM1650 660h55v55h-55zM1705 660v55h55a55 55 0 00-55-55zM1842.5 660a27.5 27.5 0 110 55 27.5 27.5 0 010-55zM1980 660h55v55h-55zM165 770v-55h-55a55 55 0 0055 55zM165 715v55h55a55 55 0 00-55-55zM330 715h55v55h-55zM385 715h55v55h-55zM495 742.5V715h55v27.5a27.5 27.5 0 01-55 0zM605 742.5V715h55v27.5a27.5 27.5 0 01-55 0zM715 742.5V715h55v27.5a27.5 27.5 0 01-55 0zM880 742.5V715h55v27.5a27.5 27.5 0 01-55 0zM1100 742.5V715h55v27.5a27.5 27.5 0 01-55 0zM1540 742.5V715h55v27.5a27.5 27.5 0 01-55 0zM1705 770v-55h-55a55 55 0 0055 55zM1705 715h55v55h-55zM1980 715h55v55h-55zM2035 715v55h55a55 55 0 00-55-55zM165 770h55v55h-55zM330 770h55v55h-55zM385 770h55v55h-55zM467.5 825H440v-27.5V770h27.5a27.5 27.5 0 010 55zM687.5 770a27.5 27.5 0 110 55 27.5 27.5 0 010-55zM797.5 770H825v55h-27.5a27.5 27.5 0 010-55zM825 770v55h55a55 55 0 00-55-55zM1045 797.5V825h-55v-27.5a27.5 27.5 0 0155 0zM1155 825h55v-55a55 55 0 00-55 55zM1210 770h55v55h-55zM1265 770h55v55h-55zM1320 770h55v55h-55zM1375 770v55h55a55 55 0 00-55-55zM1705 770h55v55h-55zM1760 770h55v55h-55zM1842.5 825H1815v-27.5V770h27.5a27.5 27.5 0 010 55zM1952.5 770h27.5v55h-27.5a27.5 27.5 0 010-55zM1980 770h55v55h-55zM2035 770h55v55h-55zM2117.5 825H2090v-27.5V770h27.5a27.5 27.5 0 010 55zM220 880v-55h-55a55 55 0 0055 55zM220 825h55v55h-55zM275 825h55v55h-55zM330 825h55v55h-55zM385 825h55v55h-55zM550 852.5V880h-55v-27.5a27.5 27.5 0 0155 0zM742.5 825a27.5 27.5 0 110 55 27.5 27.5 0 010-55zM880 880v-55h-55a55 55 0 0055 55zM880 825v55h55a55 55 0 00-55-55zM990 825h55v55h-55zM1045 825h55v55h-55zM1100 825h55v55h-55zM1155 825h55v55h-55zM1210 825h55v55h-55zM1320 825h55v55h-55zM1375 825h55v55h-55zM1430 825h55v55h-55zM1485 825h55v55h-55zM1540 825h55v55h-55zM1595 825h55v55h-55zM1650 825h55v55h-55zM1760 825h-55v55a55 55 0 0055-55zM1897.5 825a27.5 27.5 0 110 55 27.5 27.5 0 010-55zM1980 825h55v55h-55zM2090 825h-55v55a55 55 0 0055-55zM137.5 880a27.5 27.5 0 110 55 27.5 27.5 0 010-55zM220 907.5V880h55v27.5a27.5 27.5 0 01-55 0zM385 935v-55h-55a55 55 0 0055 55zM385 880h55v55h-55zM440 880h55v55h-55zM495 880h55v55h-55zM550 880v55h55a55 55 0 00-55-55zM880 880h55v55h-55zM935 880h55v55h-55zM990 880h55v55h-55zM1045 880h55v55h-55zM1100 880h55v55h-55zM1155 880h55v55h-55zM1210 880h55v55h-55zM1265 880h55v55h-55zM1320 880h55v55h-55zM1430 880h55v55h-55zM1540 880h-55v55a55 55 0 0055-55zM1595 907.5V880h55v27.5a27.5 27.5 0 01-55 0zM1815 907.5V935h-55v-27.5a27.5 27.5 0 0155 0zM1952.5 880h27.5v55h-27.5a27.5 27.5 0 010-55zM1980 880h55v55h-55zM550 990v-55h-55a55 55 0 0055 55zM550 935h55v55h-55zM632.5 990H605v-27.5V935h27.5a27.5 27.5 0 010 55zM770 962.5V990h-55v-27.5a27.5 27.5 0 0155 0zM852.5 935H880v55h-27.5a27.5 27.5 0 010-55zM880 935h55v55h-55zM935 935h55v55h-55zM1045 935h55v55h-55zM1320 935h55v55h-55zM1430 935h55v55h-55zM1760 935h55v55h-55zM1815 935v55h55a55 55 0 00-55-55zM1980 935h55v55h-55zM2117.5 935a27.5 27.5 0 110 55 27.5 27.5 0 010-55zM220 1017.5v27.5h-55v-27.5a27.5 27.5 0 0155 0zM330 1045h55v-55a55 55 0 00-55 55zM385 990h55v55h-55zM467.5 1045H440v-27.5V990h27.5a27.5 27.5 0 010 55zM550 990h55v55h-55zM770 1045v-55h-55a55 55 0 0055 55zM770 990v55h55a55 55 0 00-55-55zM880 990h55v55h-55zM990 990h-55v55a55 55 0 0055-55zM1045 1017.5V990h55v27.5a27.5 27.5 0 01-55 0zM1210 1017.5v27.5h-55v-27.5a27.5 27.5 0 0155 0zM1320 1017.5V990h55v27.5a27.5 27.5 0 01-55 0zM1430 990h55v55h-55zM1650 1017.5v27.5h-55v-27.5a27.5 27.5 0 0155 0zM1815 1045v-55h-55a55 55 0 0055 55zM1870 990h-55v55a55 55 0 0055-55zM1952.5 990h27.5v55h-27.5a27.5 27.5 0 010-55zM1980 990h55v55h-55zM2062.5 1045H2035v-27.5V990h27.5a27.5 27.5 0 010 55zM110 1100h55v-55a55 55 0 00-55 55zM165 1045h55v55h-55zM220 1045h55v55h-55zM275 1045h55v55h-55zM330 1045h55v55h-55zM385 1045h55v55h-55zM495 1100h55v-55a55 55 0 00-55 55zM605 1045h-55v55a55 55 0 0055-55zM770 1072.5V1045h55v27.5a27.5 27.5 0 01-55 0zM880 1072.5V1045h55v27.5a27.5 27.5 0 01-55 0zM1045 1072.5v27.5h-55v-27.5a27.5 27.5 0 0155 0zM1155 1045h55v55h-55zM1320 1072.5v27.5h-55v-27.5a27.5 27.5 0 0155 0zM1402.5 1045h27.5v55h-27.5a27.5 27.5 0 010-55zM1430 1045h55v55h-55zM1485 1045h55v55h-55zM1540 1045h55v55h-55zM1595 1045h55v55h-55zM1677.5 1100H1650v-27.5-27.5h27.5a27.5 27.5 0 010 55zM1897.5 1045a27.5 27.5 0 110 55 27.5 27.5 0 010-55zM165 1155v-55h-55a55 55 0 0055 55zM165 1100h55v55h-55zM220 1100h55v55h-55zM275 1100h55v55h-55zM330 1100h55v55h-55zM385 1100h55v55h-55zM440 1100h55v55h-55zM550 1100h-55v55a55 55 0 0055-55zM770 1127.5v27.5h-55v-27.5a27.5 27.5 0 0155 0zM990 1100h55v55h-55zM1072.5 1155H1045v-27.5-27.5h27.5a27.5 27.5 0 010 55zM1155 1127.5V1100h55v27.5a27.5 27.5 0 01-55 0zM1265 1100h55v55h-55zM1540 1100h55v55h-55zM1650 1100h-55v55a55 55 0 0055-55zM1842.5 1100a27.5 27.5 0 110 55 27.5 27.5 0 010-55zM1952.5 1100a27.5 27.5 0 110 55 27.5 27.5 0 010-55zM577.5 1155a27.5 27.5 0 110 55 27.5 27.5 0 010-55zM660 1210h55v-55a55 55 0 00-55 55zM715 1155h55v55h-55zM770 1155h55v55h-55zM825 1155h55v55h-55zM880 1155h55v55h-55zM935 1155h55v55h-55zM990 1155h55v55h-55zM1210 1210h55v-55a55 55 0 00-55 55zM1265 1155h55v55h-55zM1347.5 1210H1320v-27.5-27.5h27.5a27.5 27.5 0 010 55zM1485 1182.5v27.5h-55v-27.5a27.5 27.5 0 0155 0zM1540 1182.5V1155h55v27.5a27.5 27.5 0 01-55 0zM1897.5 1155a27.5 27.5 0 110 55 27.5 27.5 0 010-55zM1980 1210h55v-55a55 55 0 00-55 55zM2062.5 1210H2035v-27.5-27.5h27.5a27.5 27.5 0 010 55zM137.5 1210H165v55h-27.5a27.5 27.5 0 010-55zM165 1210h55v55h-55zM247.5 1265H220v-27.5-27.5h27.5a27.5 27.5 0 010 55zM467.5 1210H495v55h-27.5a27.5 27.5 0 010-55zM522.5 1265H495v-27.5-27.5h27.5a27.5 27.5 0 010 55zM660 1210h55v55h-55zM770 1210h55v55h-55zM990 1265v-55h-55a55 55 0 0055 55zM990 1210h55v55h-55zM1045 1210h55v55h-55zM1100 1210v55h55a55 55 0 00-55-55zM1210 1237.5V1210h55v27.5a27.5 27.5 0 01-55 0zM1430 1210h55v55h-55zM1705 1265h55v-55a55 55 0 00-55 55zM1787.5 1265H1760v-27.5-27.5h27.5a27.5 27.5 0 010 55zM1980 1210h55v55h-55zM165 1292.5V1265h55v27.5a27.5 27.5 0 01-55 0zM357.5 1265a27.5 27.5 0 110 55 27.5 27.5 0 010-55zM660 1292.5V1265h55v27.5a27.5 27.5 0 01-55 0zM770 1292.5V1265h55v27.5a27.5 27.5 0 01-55 0zM907.5 1265a27.5 27.5 0 110 55 27.5 27.5 0 010-55zM1100 1292.5V1265h55v27.5a27.5 27.5 0 01-55 0zM1320 1320h55v-55a55 55 0 00-55 55zM1375 1265h55v55h-55zM1430 1265h55v55h-55zM1485 1265h55v55h-55zM1540 1265h55v55h-55zM1595 1265v55h55a55 55 0 00-55-55zM1705 1292.5V1265h55v27.5a27.5 27.5 0 01-55 0zM1897.5 1265h27.5v55h-27.5a27.5 27.5 0 010-55zM1925 1265h55v55h-55zM2035 1265h-55v55a55 55 0 0055-55zM165 1347.5v27.5h-55v-27.5a27.5 27.5 0 0155 0zM330 1347.5v27.5h-55v-27.5a27.5 27.5 0 0155 0zM467.5 1320H495v55h-27.5a27.5 27.5 0 010-55zM495 1320h55v55h-55zM550 1320h55v55h-55zM632.5 1375H605v-27.5-27.5h27.5a27.5 27.5 0 010 55zM852.5 1320a27.5 27.5 0 110 55 27.5 27.5 0 010-55zM1045 1347.5v27.5h-55v-27.5a27.5 27.5 0 0155 0zM1375 1375v-55h-55a55 55 0 0055 55zM1375 1320h55v55h-55zM1430 1320h55v55h-55zM1650 1375v-55h-55a55 55 0 0055 55zM1650 1320v55h55a55 55 0 00-55-55zM2062.5 1320a27.5 27.5 0 110 55 27.5 27.5 0 010-55zM110 1402.5V1375h55v27.5a27.5 27.5 0 01-55 0zM220 1430h55v-55a55 55 0 00-55 55zM275 1375h55v55h-55zM412.5 1375a27.5 27.5 0 110 55 27.5 27.5 0 010-55zM550 1430v-55h-55a55 55 0 0055 55zM550 1375h55v55h-55zM660 1430h55v-55a55 55 0 00-55 55zM715 1375h55v55h-55zM770 1375v55h55a55 55 0 00-55-55zM1045 1430v-55h-55a55 55 0 0055 55zM1072.5 1430H1045v-27.5-27.5h27.5a27.5 27.5 0 010 55zM1182.5 1375a27.5 27.5 0 110 55 27.5 27.5 0 010-55zM1320 1402.5v27.5h-55v-27.5a27.5 27.5 0 0155 0zM1430 1402.5V1375h55v27.5a27.5 27.5 0 01-55 0zM1595 1402.5v27.5h-55v-27.5a27.5 27.5 0 0155 0zM1650 1375h55v55h-55zM1705 1375v55h55a55 55 0 00-55-55zM1870 1402.5v27.5h-55v-27.5a27.5 27.5 0 0155 0zM1952.5 1375h27.5v55h-27.5a27.5 27.5 0 010-55zM1980 1375v55h55a55 55 0 00-55-55zM2145 1402.5v27.5h-55v-27.5a27.5 27.5 0 0155 0zM220 1430h55v55h-55zM275 1430h55v55h-55zM467.5 1430a27.5 27.5 0 110 55 27.5 27.5 0 010-55zM550 1430h55v55h-55zM660 1430h55v55h-55zM770 1457.5V1430h55v27.5a27.5 27.5 0 01-55 0zM880 1485h55v-55a55 55 0 00-55 55zM935 1430v55h55a55 55 0 00-55-55zM1210 1485h55v-55a55 55 0 00-55 55zM1265 1430h55v55h-55zM1320 1430v55h55a55 55 0 00-55-55zM1485 1485h55v-55a55 55 0 00-55 55zM1540 1430h55v55h-55zM1595 1430h55v55h-55zM1650 1430h55v55h-55zM1705 1430h55v55h-55zM1760 1430h55v55h-55zM1870 1430h-55v55a55 55 0 0055-55zM1980 1457.5V1430h55v27.5a27.5 27.5 0 01-55 0zM2090 1457.5V1430h55v27.5a27.5 27.5 0 01-55 0zM137.5 1485H165v55h-27.5a27.5 27.5 0 010-55zM165 1485h55v55h-55zM220 1485h55v55h-55zM275 1485h55v55h-55zM522.5 1485H550v55h-27.5a27.5 27.5 0 010-55zM550 1485h55v55h-55zM715 1540v-55h-55a55 55 0 0055 55zM715 1485v55h55a55 55 0 00-55-55zM852.5 1485H880v55h-27.5a27.5 27.5 0 010-55zM880 1485h55v55h-55zM935 1485h55v55h-55zM990 1485h55v55h-55zM1072.5 1540H1045v-27.5-27.5h27.5a27.5 27.5 0 010 55zM1182.5 1485h27.5v55h-27.5a27.5 27.5 0 010-55zM1210 1485h55v55h-55zM1265 1485h55v55h-55zM1320 1485h55v55h-55zM1430 1540h55v-55a55 55 0 00-55 55zM1485 1485h55v55h-55zM1595 1485h55v55h-55zM1705 1485h-55v55a55 55 0 0055-55zM1897.5 1485a27.5 27.5 0 110 55 27.5 27.5 0 010-55zM2062.5 1485a27.5 27.5 0 110 55 27.5 27.5 0 010-55zM275 1595v-55h-55a55 55 0 0055 55zM275 1540h55v55h-55zM385 1595h55v-55a55 55 0 00-55 55zM467.5 1595H440v-27.5-27.5h27.5a27.5 27.5 0 010 55zM605 1595v-55h-55a55 55 0 0055 55zM632.5 1595H605v-27.5-27.5h27.5a27.5 27.5 0 010 55zM715 1540h55v55h-55zM935 1595v-55h-55a55 55 0 0055 55zM935 1540h55v55h-55zM1045 1540h-55v55a55 55 0 0055-55zM1375 1595v-55h-55a55 55 0 0055 55zM1375 1540h55v55h-55zM1430 1540h55v55h-55zM1485 1540h55v55h-55zM1540 1540h55v55h-55zM1595 1540h55v55h-55zM1732.5 1540a27.5 27.5 0 110 55 27.5 27.5 0 010-55zM1870 1567.5v27.5h-55v-27.5a27.5 27.5 0 0155 0zM1952.5 1540a27.5 27.5 0 110 55 27.5 27.5 0 010-55zM275 1595h55v55h-55zM385 1622.5V1595h55v27.5a27.5 27.5 0 01-55 0zM550 1622.5v27.5h-55v-27.5a27.5 27.5 0 0155 0zM770 1650v-55h-55a55 55 0 0055 55zM770 1595h55v55h-55zM852.5 1650H825v-27.5-27.5h27.5a27.5 27.5 0 010 55zM935 1595h55v55h-55zM1072.5 1595a27.5 27.5 0 110 55 27.5 27.5 0 010-55zM1182.5 1595h27.5v55h-27.5a27.5 27.5 0 010-55zM1210 1595h55v55h-55zM1292.5 1650H1265v-27.5-27.5h27.5a27.5 27.5 0 010 55zM1375 1622.5V1595h55v27.5a27.5 27.5 0 01-55 0zM1595 1650v-55h-55a55 55 0 0055 55zM1650 1595h-55v55a55 55 0 0055-55zM1760 1650h55v-55a55 55 0 00-55 55zM1815 1595h55v55h-55zM2035 1622.5v27.5h-55v-27.5a27.5 27.5 0 0155 0zM2145 1622.5v27.5h-55v-27.5a27.5 27.5 0 0155 0zM137.5 1650H165v55h-27.5a27.5 27.5 0 010-55zM192.5 1705H165v-27.5-27.5h27.5a27.5 27.5 0 010 55zM275 1677.5V1650h55v27.5a27.5 27.5 0 01-55 0zM467.5 1650H495v55h-27.5a27.5 27.5 0 010-55zM495 1650h55v55h-55zM550 1650v55h55a55 55 0 00-55-55zM770 1650h55v55h-55zM935 1677.5V1650h55v27.5a27.5 27.5 0 01-55 0zM1155 1677.5v27.5h-55v-27.5a27.5 27.5 0 0155 0zM1210 1677.5V1650h55v27.5a27.5 27.5 0 01-55 0zM1457.5 1650a27.5 27.5 0 110 55 27.5 27.5 0 010-55zM1650 1705h55v-55a55 55 0 00-55 55zM1705 1650h55v55h-55zM1760 1650h55v55h-55zM1815 1650h55v55h-55zM1870 1650v55h55a55 55 0 00-55-55zM1980 1677.5V1650h55v27.5a27.5 27.5 0 01-55 0zM2090 1677.5V1650h55v27.5a27.5 27.5 0 01-55 0zM550 1705h55v55h-55zM715 1760h55v-55a55 55 0 00-55 55zM825 1705h-55v55a55 55 0 0055-55zM907.5 1705a27.5 27.5 0 110 55 27.5 27.5 0 010-55zM1045 1732.5v27.5h-55v-27.5a27.5 27.5 0 0155 0zM1100 1705h55v55h-55zM1430 1732.5v27.5h-55v-27.5a27.5 27.5 0 0155 0zM1512.5 1705h27.5v55h-27.5a27.5 27.5 0 010-55zM1567.5 1760H1540v-27.5-27.5h27.5a27.5 27.5 0 010 55zM1650 1705h55v55h-55zM1870 1705h55v55h-55zM1925 1705v55h55a55 55 0 00-55-55zM550 1760h55v55h-55zM687.5 1760H715v55h-27.5a27.5 27.5 0 010-55zM715 1760h55v55h-55zM880 1787.5v27.5h-55v-27.5a27.5 27.5 0 0155 0zM962.5 1760H990v55h-27.5a27.5 27.5 0 010-55zM990 1760h55v55h-55zM1045 1760h55v55h-55zM1155 1760h-55v55a55 55 0 0055-55zM1320 1787.5v27.5h-55v-27.5a27.5 27.5 0 0155 0zM1430 1815v-55h-55a55 55 0 0055 55zM1457.5 1815H1430v-27.5-27.5h27.5a27.5 27.5 0 010 55zM1650 1760h55v55h-55zM1787.5 1760a27.5 27.5 0 110 55 27.5 27.5 0 010-55zM1870 1760h55v55h-55zM1925 1760h55v55h-55zM1980 1760v55h55a55 55 0 00-55-55zM550 1815h55v55h-55zM632.5 1870H605v-27.5-27.5h27.5a27.5 27.5 0 010 55zM715 1842.5V1815h55v27.5a27.5 27.5 0 01-55 0zM825 1842.5V1815h55v27.5a27.5 27.5 0 01-55 0zM990 1815h55v55h-55zM1045 1815h55v55h-55zM1182.5 1815a27.5 27.5 0 110 55 27.5 27.5 0 010-55zM1320 1870v-55h-55a55 55 0 0055 55zM1347.5 1870H1320v-27.5-27.5h27.5a27.5 27.5 0 010 55zM1567.5 1815h27.5v55h-27.5a27.5 27.5 0 010-55zM1595 1815h55v55h-55zM1650 1815h55v55h-55zM1870 1815h55v55h-55zM1980 1815h55v55h-55zM550 1897.5V1870h55v27.5a27.5 27.5 0 01-55 0zM687.5 1870a27.5 27.5 0 110 55 27.5 27.5 0 010-55zM1045 1925v-55h-55a55 55 0 0055 55zM1045 1870h55v55h-55zM1100 1870v55h55a55 55 0 00-55-55zM1457.5 1870a27.5 27.5 0 110 55 27.5 27.5 0 010-55zM1650 1870h55v55h-55zM1705 1870h55v55h-55zM1760 1870h55v55h-55zM1815 1870h55v55h-55zM1870 1870h55v55h-55zM1925 1870h55v55h-55zM2035 1870h-55v55a55 55 0 0055-55zM632.5 1925a27.5 27.5 0 110 55 27.5 27.5 0 010-55zM742.5 1925a27.5 27.5 0 110 55 27.5 27.5 0 010-55zM825 1980h55v-55a55 55 0 00-55 55zM880 1925h55v55h-55zM935 1925v55h55a55 55 0 00-55-55zM1100 1980v-55h-55a55 55 0 0055 55zM1100 1925h55v55h-55zM1155 1925v55h55a55 55 0 00-55-55zM1512.5 1925a27.5 27.5 0 110 55 27.5 27.5 0 010-55zM1650 1925h55v55h-55zM1760 1925h55v55h-55zM1815 1925h55v55h-55zM1925 1952.5V1925h55v27.5a27.5 27.5 0 01-55 0zM770 2035h55v-55a55 55 0 00-55 55zM825 1980h55v55h-55zM880 1980h55v55h-55zM935 1980h55v55h-55zM990 1980v55h55a55 55 0 00-55-55zM1155 2007.5V1980h55v27.5a27.5 27.5 0 01-55 0zM1567.5 1980a27.5 27.5 0 110 55 27.5 27.5 0 010-55zM1650 2007.5V1980h55v27.5a27.5 27.5 0 01-55 0zM1760 1980h55v55h-55zM1870 1980h-55v55a55 55 0 0055-55zM2090 2007.5v27.5h-55v-27.5a27.5 27.5 0 0155 0zM632.5 2035a27.5 27.5 0 110 55 27.5 27.5 0 010-55zM715 2090h55v-55a55 55 0 00-55 55zM770 2035h55v55h-55zM880 2062.5V2035h55v27.5a27.5 27.5 0 01-55 0zM990 2062.5V2035h55v27.5a27.5 27.5 0 01-55 0zM1292.5 2035h27.5v55h-27.5a27.5 27.5 0 010-55zM1347.5 2090H1320v-27.5-27.5h27.5a27.5 27.5 0 010 55zM1485 2062.5v27.5h-55v-27.5a27.5 27.5 0 0155 0zM1650 2062.5v27.5h-55v-27.5a27.5 27.5 0 0155 0zM1760 2062.5V2035h55v27.5a27.5 27.5 0 01-55 0zM1897.5 2035a27.5 27.5 0 110 55 27.5 27.5 0 010-55zM1980 2090h55v-55a55 55 0 00-55 55zM2035 2035h55v55h-55zM687.5 2090H715v55h-27.5a27.5 27.5 0 010-55zM715 2090h55v55h-55zM825 2090h-55v55a55 55 0 0055-55zM962.5 2090a27.5 27.5 0 110 55 27.5 27.5 0 010-55zM1072.5 2090h27.5v55h-27.5a27.5 27.5 0 010-55zM1127.5 2145H1100v-27.5-27.5h27.5a27.5 27.5 0 010 55zM1402.5 2090h27.5v55h-27.5a27.5 27.5 0 010-55zM1485 2090h-55v55a55 55 0 0055-55zM1595 2117.5V2090h55v27.5a27.5 27.5 0 01-55 0zM2035 2145v-55h-55a55 55 0 0055 55zM2035 2090h55v55h-55zM2117.5 2145H2090v-27.5-27.5h27.5a27.5 27.5 0 010 55z"/><path fill="none" d="M243 167.8H440v269.5H170.6V241.5a73 73 0 0172.3-73.7z"/><path d="M497.9 110v385h-385V241.4C113 169 171.2 110 243 110h255zM440 167.8H243a73 73 0 00-72.2 73.7v195.8H440V167.8z"/><path fill="none" d="M2015 167.8h-197.2v269.5h269.4V241.5a73 73 0 00-72.3-73.7z"/><path d="M1760 110v385h385V241.4c0-72.4-58.4-131.4-130-131.4h-255zm57.8 57.8h197.1a73 73 0 0172.3 73.7v195.8h-269.4V167.8z"/><path fill="none" d="M240 2087.3h197.3v-269.5H167.8v195.7a73 73 0 0072.3 73.8z"/><path d="M495 2145V1891.4 1760H110v253.6c0 72.4 58.4 131.4 130 131.4h255zm-57.7-57.7H240a73 73 0 01-72.3-73.8v-195.7h269.5v269.5zM382.2 220v165h-165V265.6a45.3 45.3 0 0144.9-45.6H382.2z"/><g><path d="M1869.9 220v165h165V265.6A45.3 45.3 0 001990 220h-120.2z"/></g><g><path d="M385.1 2035v-165h-165v119.4A45.3 45.3 0 00265 2035h120.2z"/></g><g><circle cx="1127.5" cy="1127.5" r="302.5" fill="#fff"/><path fill="#335984" d="M1362 1075.8a15.1 15.1 0 00-16.4 15.1v16.4H1304a176.5 176.5 0 00-37.9-88.2l31.6-31.5 12.6 10a15.1 15.1 0 1022.6-21.4l-54.1-50.4A15.1 15.1 0 001256 946l11.3 12.6-30.2 30.3a176.5 176.5 0 00-88.3-37.9v-41.6h15.2a15.1 15.1 0 000-31.5h-74.4a15.1 15.1 0 000 31.5h16.4V951a176.5 176.5 0 00-88.3 37.9l-31.5-31.6 10.1-12.6a15.1 15.1 0 00-20.1-21.4l-50.5 53a15.1 15.1 0 0021.5 22.6l11.3-11.3 30.3 30.2a176.5 176.5 0 00-37.9 88.3h-41.6v-15.2a15.1 15.1 0 00-31.5 0v74.4a15.1 15.1 0 0031.5 0V1149H951a176.5 176.5 0 0037.9 88.3l-31.6 31.5-12.6-10.1a15.1 15.1 0 00-21.4 20.1l53 50.5a15.1 15.1 0 1022.6-20.2l-11.3-12.6 30.2-30.3a176.5 176.5 0 0088.3 37.9v41.6h-15.2a15.1 15.1 0 000 31.5h74.4a15.1 15.1 0 000-31.5H1149V1304a176.5 176.5 0 0088.3-37.9l31.5 31.6-10.1 12.6a15.1 15.1 0 0021.4 22.6l50.4-52.9a15.1 15.1 0 10-20.1-22.7l-12.6 11.4-30.3-30.3a176.5 176.5 0 0037.8-88.2h41.6v15.1a15.1 15.1 0 0031.5 0v-75.6a15.1 15.1 0 00-15.1-15.1l-1.3 1.2zm-291.2 10.1a36.6 36.6 0 1136.5-36.5 36.6 36.6 0 01-37.8 36.5h1.3zm118.5 134.9a20.2 20.2 0 1121.4-20.2 20.2 20.2 0 01-21.4 20.2z"/></g></svg>