<svg xmlns="http://www.w3.org/2000/svg" xmlns:xlink="http://www.w3.org/1999/xlink" viewBox="0 0 512 512"><defs/><defs><linearGradient id="b" x1="-1650.8" x2="-1649.2" y1="495.1" y2="495.1" gradientTransform="scale(-145.23 145.23) rotate(89.6 -577.4 1078.8)" gradientUnits="userSpaceOnUse"><stop offset="0" stop-color="#525252"/><stop offset=".3" stop-color="#444"/><stop offset=".8" stop-color="#1e1e1e"/><stop offset="1" stop-color="#090a0b"/></linearGradient><linearGradient id="c" x1="-1648.7" x2="-1647.1" y1="528" y2="528" gradientTransform="matrix(-.29 38.96 38.96 .29 -20795.8 64413)" gradientUnits="userSpaceOnUse"><stop offset="0" stop-color="#2e2f2f"/><stop offset=".5" stop-color="#3f3f3f"/><stop offset="1" stop-color="#4e4e4e"/></linearGradient><linearGradient id="d" x1="-1648.7" x2="-1647.1" y1="528" y2="528" gradientTransform="matrix(-.29 38.96 38.96 .29 -20795.8 64413)" gradientUnits="userSpaceOnUse"><stop offset="0" stop-color="#2b2b2b"/><stop offset=".5" stop-color="#383737"/><stop offset="1" stop-color="#444"/></linearGradient><linearGradient id="e" x1="-180.8" x2="-179.2" y1="281" y2="281" gradientTransform="rotate(90.4 7079.7 33070.5) scale(142.84)" gradientUnits="userSpaceOnUse"><stop offset="0" stop-color="#868686"/><stop offset=".3" stop-color="#7c7c7d"/><stop offset=".7" stop-color="#626262"/><stop offset="1" stop-color="#515151"/></linearGradient><linearGradient id="f" x1="-1648.7" x2="-1647.1" y1="528" y2="528" gradientTransform="matrix(-.29 38.96 38.96 .29 -20795.8 64413)" gradientUnits="userSpaceOnUse"><stop offset="0" stop-color="#6e6e6e"/><stop offset=".5" stop-color="#797879"/><stop offset="1" stop-color="#848484"/></linearGradient><linearGradient id="a" x1="-1650.8" x2="-1649.2" y1="495.3" y2="495.3" gradientTransform="scale(-145.23 145.23) rotate(89.6 -577.4 1078.8)" gradientUnits="userSpaceOnUse"><stop offset="0" stop-color="#393939"/><stop offset=".3" stop-color="#303030"/><stop offset=".8" stop-color="#141414"/><stop offset="1" stop-color="#070708"/></linearGradient><linearGradient id="g" x1="-1650.8" x2="-1649.2" y1="495.4" y2="495.4" xlink:href="#a"/><linearGradient id="h" x1="-1650.8" x2="-1649.2" y1="495.9" y2="495.9" xlink:href="#a"/><linearGradient id="i" x1="-1648.7" x2="-1647.1" y1="528" y2="528" gradientTransform="matrix(-.29 38.96 38.96 .29 -20795.8 64413)" gradientUnits="userSpaceOnUse"><stop offset="0" stop-color="#272726"/><stop offset=".5" stop-color="#323231"/><stop offset="1" stop-color="#3a3a39"/></linearGradient><linearGradient id="j" x1="-1650.9" x2="-1649.3" y1="495.3" y2="495.3" gradientTransform="scale(-142.83 142.83) rotate(89.6 -577.3 1078.9)" gradientUnits="userSpaceOnUse"><stop offset="0" stop-color="#797879"/><stop offset=".3" stop-color="#707070"/><stop offset=".7" stop-color="#585858"/><stop offset="1" stop-color="#494949"/></linearGradient><linearGradient id="k" x1="-1650.9" x2="-1649.3" y1="495.9" y2="495.9" gradientTransform="scale(-142.83 142.83) rotate(89.6 -577.3 1078.9)" gradientUnits="userSpaceOnUse"><stop offset="0" stop-color="#b4b4b4"/><stop offset=".3" stop-color="#acacac"/><stop offset=".7" stop-color="#9c9b9b"/><stop offset="1" stop-color="#919191"/></linearGradient><linearGradient id="l" x1="-1650.9" x2="-1649.3" y1="495.3" y2="495.3" gradientTransform="scale(-142.83 142.83) rotate(89.6 -577.3 1078.9)" gradientUnits="userSpaceOnUse"><stop offset="0" stop-color="#a9a9aa"/><stop offset=".3" stop-color="#a5a4a3"/><stop offset=".7" stop-color="#969596"/><stop offset="1" stop-color="#8b8b8b"/></linearGradient></defs><path fill="#fff" d="M0 0h512v512H0z"/><path fill="url(#b)" d="M300.2 390a2.1 2.1 0 110-4.2h138.2a2.1 2.1 0 110 4.2H300.2m-17.2 1a3 3 0 113-3 3.2 3.2 0 01-3 3m9 0a3 3 0 113.1-3 3.2 3.2 0 01-3 3m160.3-10.4a1.3 1.3 0 01-1.5 1.2H61a1.3 1.3 0 01-1.3-1.2 1.3 1.3 0 00-.3.8v.2a12.3 12.3 0 0012.3 12.3h368.8a12.3 12.3 0 0012.3-12.3v-.2a1.3 1.3 0 00-.3-.8"/><path fill="url(#c)" d="M221 379.3a.9.9 0 01-.9-1l4.4-14.2c.1-.3.3-.3.5-.3h62.2c.2 0 .3.1.5.3l4.4 14.1a.9.9 0 01-.9 1.1H221M96.6 362a1.4 1.4 0 01-1.3-2.3l19.8-28.3a3 3 0 012-.8h278a3 3 0 012.2.8l19.4 28.3a1.4 1.4 0 01-1.1 2.3h-319M407 326.2h-1.8a7.5 7.5 0 01-2.8.5H109.1a7.4 7.4 0 01-2.8-.5H105a6.9 6.9 0 00-5.7 2.7l-39.4 50.8a.8.8 0 00-.2 1 1.4 1.4 0 001.3 1.1h390a1.4 1.4 0 001.5-1.1 1.2 1.2 0 00-.3-1l-39.4-50.8a7.1 7.1 0 00-5.7-2.7"/><path fill="url(#d)" d="M395.1 330.6h-278a3 3 0 00-2 .8l-19.8 28.3a1.4 1.4 0 001.3 2.3h319a1.4 1.4 0 001.1-2.3l-19.4-28.3a3 3 0 00-2.1-.8"/><path fill="#bdccd4" d="M112.5 129.3h286.9v185.9H112.5V129.3"/><path fill="url(#e)" d="M254.3 118H109.1a8.1 8.1 0 00-8.1 8.2v192.4a8.3 8.3 0 005.3 7.6h241.2l-4.9-11H112.5v-186h146.7l-1.3-2.9a2.8 2.8 0 01-2 .7 3.2 3.2 0 01-3-3.1 3.1 3.1 0 012.5-3l-1.1-2.8"/><path fill="#d1dbe1" d="M259.2 129.3H112.5v185.9h230.1l-83.4-185.9"/><path fill="url(#f)" d="M405.2 326.2H106.3a7.4 7.4 0 002.8.5h293.3a7.5 7.5 0 002.8-.5"/><path fill="url(#a)" d="M283 384.9a3 3 0 103 3 3.2 3.2 0 00-3-3"/><path fill="url(#g)" d="M292 384.9a3 3 0 103.1 3 3.2 3.2 0 00-3-3"/><path fill="url(#h)" d="M438.4 385.8H300.2a2.1 2.1 0 100 4.2h138.2a2.1 2.1 0 100-4.2"/><path fill="url(#i)" d="M287.2 363.8H225c-.2 0-.3 0-.5.3l-4.4 14.1a.9.9 0 00.8 1.1h70.4a.9.9 0 00.8-1l-4.4-14.2c-.1-.2-.3-.3-.5-.3"/><path fill="url(#j)" d="M255.4 120.8a3 3 0 00-2.6 3.1 3.2 3.2 0 003.1 3 3.4 3.4 0 002-.6l-2.5-5.5"/><path fill="url(#k)" d="M402.4 118H254.3l1.3 2.8h.5a3.2 3.2 0 013 3.1 3.4 3.4 0 01-1 2.4l1.2 3h140v185.9h-56.7l4.9 11h57.7a8.1 8.1 0 005.3-7.7V126a8 8 0 00-8-8"/><path fill="url(#l)" d="M256 120.8h-.6l2.5 5.4a3 3 0 00-2-5.4"/><circle cx="233.1" cy="200.8" r="37.8" fill="#4285f4"/><path fill="#34a853" d="M319.1 204.4a7.7 7.7 0 11-7.6-7.6 7.7 7.7 0 017.6 7.6z"/><path fill="#ea4335" d="M305.3 223.2a15.4 15.4 0 11-15.3-15.4 15.4 15.4 0 0115.3 15.4z"/><path fill="#fbbc05" d="M308.4 262.9a18.4 18.4 0 11-18.4-18.5 18.4 18.4 0 0118.4 18.5z"/><path fill="#fff" d="M399.4 129.3H259.2l83.4 185.9h56.8V129.3" opacity=".5"/></svg>