<svg xmlns="http://www.w3.org/2000/svg" viewBox="0 0 512 512"><path fill="#87a1ff" d="M0 0h512v512H0z"/><path fill="#ffc02c" d="M421 304l-318 56a34 34 0 01-39-28 34 34 0 0127-39l318-56a34 34 0 0139 28 34 34 0 01-27 39z"/><path fill="#900" d="M146 61a85 85 0 11-85 85 85 85 0 0185-85z"/><path fill="#bd5200" d="M150 78a55 55 0 11-55 55 55 55 0 0155-55z"/><path fill="#fff" d="M152 95a6 6 0 01-6 6 45 45 0 00-30 78 6 6 0 01-9 9 57 57 0 0139-100 6 6 0 016 7z"/><path fill="#28749e" d="M409 298a153 153 0 11-153-152 153 153 0 01153 152z"/><path fill="#2c4d67" d="M406 328a153 153 0 11-241-153 153 153 0 00150 183 152 152 0 0091-30zm-150-89h25a17 17 0 0017-17 17 17 0 00-17-17h-25a17 17 0 00-17 17 17 17 0 0017 17z"/><path fill="#ff5200" d="M64 332l384-67a34 34 0 01-27 39l-318 56a34 34 0 01-39-28z"/><path fill="#ffc02c" d="M311 356l-83 14a7 7 0 01-1 1 6 6 0 01-1-13l83-15a6 6 0 112 13zm-110 6a6 6 0 001 13 6 6 0 001 0h1a6 6 0 10-3-13z"/><path fill="#697900" d="M417 61a34 34 0 11-34 34 34 34 0 0134-34z"/><path fill="#525b00" d="M451 99a34 34 0 11-50-34 35 35 0 00-1 4 34 34 0 0051 30z"/><path fill="#ff5200" d="M86 400a25 25 0 11-25 26 25 25 0 0125-26z"/><path fill="#ffc02c" d="M90 409a13 13 0 11-12 13 13 13 0 0112-13z"/><path fill="#ffe52c" d="M417 386a6 6 0 01-6 6h-1a6 6 0 010-13h1a6 6 0 016 7zm-31-219h-1a6 6 0 100 13h1a6 6 0 100-13zm-17-21h-1a6 6 0 100 12h1a6 6 0 000-12z"/><path fill="#ff5200" d="M311 122a6 6 0 01-9 9l-8-8-8 8a6 6 0 01-9-9l8-8-8-9a6 6 0 019-9l8 9 8-9a6 6 0 019 9l-8 9z"/></svg>