<svg xmlns="http://www.w3.org/2000/svg" viewBox="0 0 16 16"><path fill="#303030" d="M0 0h16v16H0z"/><path fill="#fff" d="M4.34 8.14h1.74a2.27 2.27 0 0 1-.08.75 1.61 1.61 0 0 1-.34.63 1.71 1.71 0 0 1-.56.43 1.89 1.89 0 0 1-.77.16 2 2 0 0 1-.78-.11 1.72 1.72 0 0 1-1-1 1.87 1.87 0 0 1-.14-.76 1.86 1.86 0 0 1 .14-.75A1.62 1.62 0 0 1 3 6.88a1.73 1.73 0 0 1 .6-.39 2 2 0 0 1 .75-.13 2.17 2.17 0 0 1 .65.09 2 2 0 0 1 .52.28 1.79 1.79 0 0 1 .39.43l-.5.33A1.15 1.15 0 0 0 5 7.08a1.21 1.21 0 0 0-.65-.16 1.28 1.28 0 0 0-.52.08 1.13 1.13 0 0 0-.4.27 1.2 1.2 0 0 0-.28.41 1.51 1.51 0 0 0-.09.53 1.53 1.53 0 0 0 .09.54 1.51 1.51 0 0 0 .27.42 1.23 1.23 0 0 0 .4.27 1.33 1.33 0 0 0 .49.09 1.2 1.2 0 0 0 .44-.07 1.09 1.09 0 0 0 .33-.19A1.23 1.23 0 0 0 5.31 9a1.43 1.43 0 0 0 .14-.34H4.34Zm4.08 0h1.73a2 2 0 0 1-.1.75 1.75 1.75 0 0 1-.34.63 1.71 1.71 0 0 1-.56.43 1.89 1.89 0 0 1-.77.16 2 2 0 0 1-.75-.11A1.73 1.73 0 0 1 7 9.58a1.91 1.91 0 0 1-.4-.6 2.06 2.06 0 0 1-.13-.76 1.86 1.86 0 0 1 .14-.75A1.6 1.6 0 0 1 7 6.88a1.77 1.77 0 0 1 .61-.39 2 2 0 0 1 .75-.13 2.22 2.22 0 0 1 .64.09 1.8 1.8 0 0 1 .51.28 1.45 1.45 0 0 1 .39.43l-.49.33A1.1 1.1 0 0 0 9 7.08a1.17 1.17 0 0 0-.64-.16 1.24 1.24 0 0 0-.89.36 1.33 1.33 0 0 0-.27.41 1.4 1.4 0 0 0 .3 1.49 1.13 1.13 0 0 0 .4.27 1.33 1.33 0 0 0 .49.09 1.23 1.23 0 0 0 .44-.07.94.94 0 0 0 .32-.19A1.05 1.05 0 0 0 9.39 9a1.43 1.43 0 0 0 .14-.34H8.42Zm3.01.63v.13l-.51 1.1h-.68L12 6.22 13.76 10h-.68l-.49-1.1v-.15L12 7.44Zm-.26-.18h1.68l.15.51h-1.9Z"/></svg>