<svg xmlns="http://www.w3.org/2000/svg" viewBox="0 0 512 512"><defs><filter id="a" width="200%" height="200%" x="-50%" y="-50%"><feOffset dy="6" in="SourceAlpha" result="offOut"/><feColorMatrix values="0 0 0 0 0 0 0 0 0 0 0 0 0 0 0 0 0 0 0.75 0"/><feGaussianBlur in="offOut" result="blurOut" stdDeviation="18.3"/><feBlend in="SourceGraphic" in2="blurOut"/></filter></defs><g style="isolation:isolate"><path fill="#1977d2" d="M0 0h512v512H0z"/><path fill="#fff" d="M362 173h-56l-10 23q-4 8-4 12a7 7 0 003 6q4 3 14 4v4h-46v-4q9-2 12-5 6-5 12-21l51-120h4l51 122q6 14 11 19t14 5v4h-57v-4q8-1 11-3a8 8 0 003-6q0-5-4-15zm-3-8l-24-59-26 59z" filter="url(#a)"/><path fill="none" stroke="#fff" stroke-miterlimit="10" stroke-width="12.2" d="M179 257c15-60 66-104 126-104" filter="url(#a)"/><path fill="#fff" d="M175 293c9-16 22-36 36-47l-31 6-27-14c10 15 18 37 22 55z" filter="url(#a)"/><path fill="none" stroke="#fff" stroke-miterlimit="10" stroke-width="12.2" d="M387 238c-16 82-82 143-162 143" filter="url(#a)"/><path fill="#fff" d="M390 202c-8 16-21 36-34 49l30-8 28 14c-10-15-19-37-24-55zM267 417h-26l-22-57h-87l-21 57H84l79-205h25zm-56-79l-32-88a84 84 0 01-3-13h-1a75 75 0 01-3 13l-32 88z" filter="url(#a)"/></g></svg>