<svg xmlns="http://www.w3.org/2000/svg" viewBox="0 0 512 512"><path fill="#0c0c0c" d="M0 0h512v512H0z"/><path fill="#f2f2f2" d="M33.5 44.4a10.4 10.4 0 01-4 .8 6.6 6.6 0 01-5.2-2q-1.8-2-1.8-6a11 11 0 01.5-3.5 7.5 7.5 0 011.5-2.6 6.2 6.2 0 012.2-1.7 7.2 7.2 0 013-.5 11.1 11.1 0 012 .1 9 9 0 011.9.6v2.2a8.3 8.3 0 00-1.9-.8 8.1 8.1 0 00-2-.3 4.6 4.6 0 00-2 .5 4.2 4.2 0 00-1.5 1.2 5.6 5.6 0 00-1 2 9.2 9.2 0 00-.4 2.6 7.4 7.4 0 001.3 4.7 4.4 4.4 0 003.7 1.5 7.8 7.8 0 002-.2 9.6 9.6 0 001.8-.7zM42 32.5a1.8 1.8 0 01.7.2 2 2 0 011 1 1.8 1.8 0 010 1.4 2 2 0 01-.4.6 2 2 0 01-.6.4 1.8 1.8 0 01-.7.2 1.7 1.7 0 01-.7-.2 2 2 0 01-.6-.4 2 2 0 01-.4-.6 1.8 1.8 0 010-1.4 2 2 0 01.4-.6 2 2 0 01.6-.4 1.7 1.7 0 01.7-.2zm0 9a1.8 1.8 0 01.7.2 2 2 0 011 1 1.8 1.8 0 01.2.7 1.7 1.7 0 01-.2.7 2 2 0 01-.4.6 2 2 0 01-.6.4 1.8 1.8 0 01-.7.2 1.7 1.7 0 01-.7-.2 1.8 1.8 0 01-1-1 1.7 1.7 0 01-.2-.7 1.8 1.8 0 01.2-.7 2 2 0 01.4-.6 2 2 0 01.6-.4 1.7 1.7 0 01.7-.2zM61.2 47.6h-2l-8.4-19.8h2zM65.2 32.9l1.3-1.4 8.2 6.9-8.2 6.8-1.3-1.3 6.6-5.5zM89.3 45h-2.8l-3.3-4.7L80 45h-2.8l4.8-6.1-4.5-6.1h2.7l3.2 4.7 3.2-4.7h2.6l-4.6 6.1zM103 45h-2.8l-5.8-6.6V45h-2V27.8h2v10.6l5.5-5.6h2.9L97 38.4zM110 34.5h-3.6v-1.7h5.7v10.5h3.7V45H106v-1.8h4zm.8-6.9a1.6 1.6 0 01.6.2 1.5 1.5 0 01.5.3 1.7 1.7 0 01.4 1.8 1.7 1.7 0 01-.4.6 1.8 1.8 0 01-.5.3 1.9 1.9 0 01-.7.2 1.8 1.8 0 01-.6-.2 1.7 1.7 0 01-.5-.3 2 2 0 01-.4-.6 1.7 1.7 0 010-1.3 1.8 1.8 0 01.4-.5 1.4 1.4 0 01.5-.3 1.6 1.6 0 01.6-.2zM123.7 29.5h-3.6v-1.7h5.8v15.4h3.6V45h-9.8v-1.8h4zM137.5 29.5h-3.7v-1.7h5.8v15.4h3.7V45h-9.9v-1.8h4zM33.5 70.7a4 4 0 01-1.7 3.4 6 6 0 01-2 .9 10.8 10.8 0 01-2.6.2h-2.5a10.9 10.9 0 01-1-.3c-.4 0-.7 0-1-.2v-2a11.9 11.9 0 002 .5 15.4 15.4 0 002.7.2 8.3 8.3 0 001.8-.2 3.6 3.6 0 001.2-.5 2 2 0 00.7-.8 2.5 2.5 0 00.2-1 1.8 1.8 0 00-.4-1.1 3.6 3.6 0 00-1-.9 8.8 8.8 0 00-1.3-.6l-1.5-.6-1.5-.7a6.3 6.3 0 01-1.4-.9 4 4 0 01-1-1.2 3.5 3.5 0 01-.3-1.6 4 4 0 01.4-1.6 4 4 0 011-1.4 5.4 5.4 0 011.9-1 8.6 8.6 0 012.7-.4h1.8l1 .2 1 .2v2a15.8 15.8 0 00-2-.4 12.8 12.8 0 00-1.8-.1 4.9 4.9 0 00-2.7.6 2 2 0 00-1 1.6 1.8 1.8 0 00.4 1.1 3.7 3.7 0 00.9.8 8.8 8.8 0 001.3.7l1.6.6 1.5.7a6.8 6.8 0 011.3 1 4.2 4.2 0 011 1.1 3.5 3.5 0 01.3 1.7zM47.4 68.2v1.4h-8.6a3.8 3.8 0 001 2.9 4.2 4.2 0 003 1h1l1-.2 1-.1.9-.2v1.7a15 15 0 01-2 .4 16.7 16.7 0 01-2.2.2 7.8 7.8 0 01-2.7-.5 4.7 4.7 0 01-1.8-1.2 5.2 5.2 0 01-1-2 9.1 9.1 0 01-.4-2.7 7.9 7.9 0 01.3-2.5 6.2 6.2 0 011.1-2 5.1 5.1 0 014.1-1.9 5.9 5.9 0 012.3.4 4.6 4.6 0 011.7 1.2 5 5 0 011 1.8 7.6 7.6 0 01.3 2.3zm-2.2-.3a4.5 4.5 0 00-.1-1.5 3.3 3.3 0 00-.6-1.1 2.8 2.8 0 00-1-.8 3.5 3.5 0 00-1.5-.3 3 3 0 00-1.3.3 2.7 2.7 0 00-1 .8 4 4 0 00-.6 1.1 5.5 5.5 0 00-.4 1.5zM55 59.5h-3.6v-1.7H57v15.5h3.7V75H51v-1.8h4zM75 68.2v1.4h-8.7a3.8 3.8 0 001 2.9 4.2 4.2 0 003 1h1l1-.2 1-.1.9-.2v1.7a15 15 0 01-2 .4 16.7 16.7 0 01-2.3.2 7.8 7.8 0 01-2.7-.5 4.7 4.7 0 01-1.9-1.2 5.2 5.2 0 01-1-2A9.1 9.1 0 0164 69a7.9 7.9 0 01.4-2.4 6.2 6.2 0 011-2 5.2 5.2 0 011.8-1.4 5.3 5.3 0 012.4-.5 5.9 5.9 0 012.2.4 4.6 4.6 0 011.7 1.1 5 5 0 011 1.8 7.6 7.6 0 01.4 2.3zm-2.3-.3a4.5 4.5 0 00-.1-1.5 3.3 3.3 0 00-.7-1.1 2.8 2.8 0 00-1-.8 3.4 3.4 0 00-1.4-.3 3 3 0 00-1.2.3 2.7 2.7 0 00-1 .8 4 4 0 00-.7 1.1 5.5 5.5 0 00-.3 1.5zM87.8 74.6a8.4 8.4 0 01-1.7.4 9.8 9.8 0 01-1.8.2 6 6 0 01-4.4-1.6 6.3 6.3 0 01-1.6-4.6 7.4 7.4 0 01.4-2.6 6 6 0 011.3-2 5.6 5.6 0 012-1.3 6.5 6.5 0 012.5-.5 11.1 11.1 0 011.8.1 7.6 7.6 0 011.6.5v2a6.8 6.8 0 00-1.7-.6 8 8 0 00-1.7-.2 3.9 3.9 0 00-1.5.3 3.7 3.7 0 00-1.3.9 4.2 4.2 0 00-.9 1.4 5.4 5.4 0 00-.3 2 4.6 4.6 0 001 3.2 4 4 0 003 1.1 7.2 7.2 0 001.8-.2 7 7 0 001.5-.5zM102 74.8a10.3 10.3 0 01-1.6.3H99a5 5 0 01-3.5-1 4.2 4.2 0 01-1.1-3.1v-6.4h-3.4v-1.8h3.4v-3.4l2.1-.6v4h5.5v1.7h-5.5v6.3a2.6 2.6 0 00.7 2 3 3 0 002 .6 10.3 10.3 0 001.4 0 12.4 12.4 0 001.4-.4zM129.4 74.8a10.3 10.3 0 01-1.5.3h-1.5a5 5 0 01-3.5-1 4.2 4.2 0 01-1.1-3.1v-6.4h-3.4v-1.8h3.4v-3.4l2.1-.6v4h5.5v1.7H124v6.3a2.6 2.6 0 00.7 2 3 3 0 002 .6 10.3 10.3 0 001.4-.1 12.4 12.4 0 001.4-.3zM143.1 75H141v-7.8a3.5 3.5 0 00-.5-2.1 1.8 1.8 0 00-1.6-.7 2.5 2.5 0 00-.8 0 2.6 2.6 0 00-.7.5 6.4 6.4 0 00-1 .8l-1 1.2V75h-2.1V57.8h2v6.9a8 8 0 011-1 5.2 5.2 0 011-.7 3.6 3.6 0 011-.3 5 5 0 011-.1 3.6 3.6 0 012.9 1 4.9 4.9 0 011 3.4zM157.4 68.2v1.4h-8.6a3.8 3.8 0 001 2.9 4.2 4.2 0 003 1h1l1-.2 1-.1 1-.2v1.7a15.4 15.4 0 01-2 .4 16.7 16.7 0 01-2.3.2 7.8 7.8 0 01-2.7-.5 4.7 4.7 0 01-1.9-1.2 5.2 5.2 0 01-1-2 9.1 9.1 0 01-.4-2.7 7.9 7.9 0 01.3-2.4 6.2 6.2 0 011.1-2 5.2 5.2 0 011.8-1.4 5.3 5.3 0 012.3-.5 6 6 0 012.3.4 4.6 4.6 0 011.7 1 5 5 0 011 1.9 7.6 7.6 0 01.4 2.3zm-2.2-.3a4.8 4.8 0 00-.2-1.5 3.1 3.1 0 00-.6-1.1 2.8 2.8 0 00-1-.8 3.4 3.4 0 00-1.4-.3 3 3 0 00-1.3.3 2.8 2.8 0 00-1 .8 4 4 0 00-.6 1.1 5.5 5.5 0 00-.4 1.5zM185.9 62.8L184 75h-2.6l-1.7-5.1-.4-1.3-.4 1.4-1.7 5h-2.5L173 62.8h2l1 8.3.3 1.8.5-1.6 1.8-5.5h1.5l2 5.4.5 1.7.2-1.8 1-8.3zM192.4 64.5h-3.6v-1.7h5.8v10.5h3.6V75h-9.8v-1.8h4zm.8-6.9a1.6 1.6 0 01.7.1 1.5 1.5 0 01.5.4 1.7 1.7 0 01.3 1.8 1.7 1.7 0 01-.3.6 1.8 1.8 0 01-.6.3 1.9 1.9 0 01-.6.2 1.6 1.6 0 01-1.2-.5 2 2 0 01-.4-.6 1.8 1.8 0 010-1.3 1.8 1.8 0 01.4-.5 1.5 1.5 0 01.5-.4 1.6 1.6 0 01.7 0zM202 62.8h1.9v2a8 8 0 011-1.1 5.6 5.6 0 011-.7 3.8 3.8 0 011-.3 5.1 5.1 0 011-.1 3.6 3.6 0 013 1 5 5 0 011 3.4v8h-2.2v-7.8a3.4 3.4 0 00-.5-2.1 1.9 1.9 0 00-1.6-.7 2.5 2.5 0 00-1.5.5 6.4 6.4 0 00-1 .8l-1 1.2V75H202zM215.1 69.1a8.4 8.4 0 01.5-2.7 5.7 5.7 0 011.2-2 5 5 0 011.9-1.3 6.7 6.7 0 012.4-.5 8.7 8.7 0 011.2 0 7.2 7.2 0 011.1.3v-5.1h2.1V75h-1.9v-2.3a6.5 6.5 0 01-2 1.9 4.3 4.3 0 01-2.2.6 3.8 3.8 0 01-1.9-.4 3.9 3.9 0 01-1.3-1.3 6.2 6.2 0 01-.8-1.9 11.1 11.1 0 01-.3-2.5zm2.2 0a6.6 6.6 0 00.7 3.2 2 2 0 001.8 1.1 2.8 2.8 0 001.7-.7 10.4 10.4 0 001.9-2.1v-5.7a5 5 0 00-1.2-.4 6 6 0 00-1.2-.1 3.4 3.4 0 00-2.7 1 5.3 5.3 0 00-1 3.6zM240.2 68.8a8 8 0 01-.4 2.6 6 6 0 01-1.2 2 5.3 5.3 0 01-1.8 1.3 6.3 6.3 0 01-2.5.5 6.5 6.5 0 01-2.4-.4 4.7 4.7 0 01-1.7-1.2 5.2 5.2 0 01-1.1-2 8.5 8.5 0 01-.4-2.7 8 8 0 01.4-2.6 5.8 5.8 0 011.1-2 5 5 0 011.9-1.3 6.2 6.2 0 012.5-.5 6.5 6.5 0 012.3.4 4.7 4.7 0 011.8 1.2 5.3 5.3 0 011 2 8.9 8.9 0 01.5 2.7zm-2.2 0a7 7 0 00-.3-2 4.2 4.2 0 00-.7-1.3 3 3 0 00-1-.9 3.8 3.8 0 00-1.6-.3 3.4 3.4 0 00-1.6.4 3.3 3.3 0 00-1.1 1 4.2 4.2 0 00-.7 1.5 7.8 7.8 0 000 3.7 3.9 3.9 0 00.8 1.4 3 3 0 001 .9 3.6 3.6 0 001.6.2 3.3 3.3 0 001.6-.3 3.1 3.1 0 001.1-1 4.3 4.3 0 00.7-1.5 7.5 7.5 0 00.2-1.7zM254.6 62.8L252.8 75h-2.6l-1.7-5.1-.4-1.3-.4 1.3L246 75h-2.5l-1.8-12.3h2.1l1 8.4.2 1.8.5-1.6 1.8-5.5h1.5l2 5.4.5 1.6.2-1.7 1-8.4zM282 62.8L280.4 75h-2.6l-1.7-5.1-.3-1.3-.5 1.4-1.7 5H271l-1.8-12.3h2.1l1 8.4.2 1.8.5-1.6 1.8-5.5h1.6l1.9 5.4.5 1.6.2-1.7 1-8.4zM294.3 75h-2v-7.8a3.5 3.5 0 00-.6-2.1 1.8 1.8 0 00-1.5-.7 2.6 2.6 0 00-.8 0 2.5 2.5 0 00-.8.5 5.9 5.9 0 00-.9.8l-1 1.2V75h-2.2V57.8h2.1v6.9a8 8 0 011-1 5.5 5.5 0 011-.7 3.8 3.8 0 011-.3 5.1 5.1 0 011-.1 3.6 3.6 0 012.8 1 4.9 4.9 0 011 3.4zM308.9 68.8a8.4 8.4 0 01-.4 2.6 6 6 0 01-1.2 2 5.4 5.4 0 01-1.8 1.3 6.2 6.2 0 01-2.5.5 6.5 6.5 0 01-2.3-.4 4.8 4.8 0 01-1.8-1.2 5.3 5.3 0 01-1.1-2 8.8 8.8 0 01-.4-2.7 8 8 0 01.4-2.6 6 6 0 011.2-2 5.1 5.1 0 011.8-1.3 6.2 6.2 0 012.5-.5 6.5 6.5 0 012.3.4 4.6 4.6 0 011.8 1.2 5 5 0 011.1 2 8.6 8.6 0 01.4 2.7zm-2.2 0a7.4 7.4 0 00-.2-2 4 4 0 00-.7-1.3 2.9 2.9 0 00-1.2-.9 3.7 3.7 0 00-1.5-.3 3.2 3.2 0 00-2.7 1.4 4.5 4.5 0 00-.6 1.4 7.5 7.5 0 00-.2 1.8 7.4 7.4 0 00.2 2 4 4 0 00.7 1.4 3 3 0 001.2.9 3.6 3.6 0 001.4.2 3.3 3.3 0 001.7-.3 3.2 3.2 0 001-1 4.1 4.1 0 00.7-1.5 7 7 0 00.2-1.7zM321.7 71.7a2.9 2.9 0 01-.2 1.1 3.1 3.1 0 01-.6 1 3.8 3.8 0 01-1 .6 6 6 0 01-1 .5 7.3 7.3 0 01-1.2.2 7.9 7.9 0 01-1.1.1 22.8 22.8 0 01-2.3 0 17.2 17.2 0 01-2-.4v-2a16.7 16.7 0 002 .4 13.7 13.7 0 002.2.2 4.8 4.8 0 002.2-.4 1.3 1.3 0 00.8-1.2 1.6 1.6 0 00-.1-.6 1.4 1.4 0 00-.5-.5 4.5 4.5 0 00-.9-.5l-1.8-.6a11.5 11.5 0 01-1.5-.5 5.1 5.1 0 01-1.2-.8 3.1 3.1 0 01-.8-1 2.9 2.9 0 01-.3-1.3 3.1 3.1 0 011-2.3 4.5 4.5 0 011.6-.9 7.4 7.4 0 012.4-.3h1.6a15.6 15.6 0 011.9.3v2a14.5 14.5 0 00-2-.4 12 12 0 00-1.5-.1 6.3 6.3 0 00-1.3 0 2.9 2.9 0 00-.9.4 1.3 1.3 0 00-.5.5 1.3 1.3 0 00-.1.6 1.5 1.5 0 00.1.6 1.5 1.5 0 00.5.6 4.1 4.1 0 001 .5l1.6.5a12.5 12.5 0 011.8.7 4.5 4.5 0 011.2.7 2.5 2.5 0 01.7 1 3.6 3.6 0 01.2 1.3zM336 68.2v1.4h-8.5a3.8 3.8 0 001 2.9 4.2 4.2 0 003 1h1.1l1-.2 1-.1.8-.2v1.7a15 15 0 01-2 .4 16.6 16.6 0 01-2.3.2 7.8 7.8 0 01-2.7-.5 4.7 4.7 0 01-1.8-1.2 5 5 0 01-1.1-2 9.5 9.5 0 01-.4-2.7 7.9 7.9 0 01.4-2.4 6.3 6.3 0 011.1-2 5.2 5.2 0 014.1-2 6 6 0 012.3.5 4.6 4.6 0 011.6 1.1 4.9 4.9 0 011 1.8 7.3 7.3 0 01.5 2.3zM334 68a4.5 4.5 0 00-.2-1.5 3.3 3.3 0 00-.6-1.1 2.8 2.8 0 00-1-.8 3.5 3.5 0 00-1.4-.3 3 3 0 00-1.3.3 2.8 2.8 0 00-1 .8 4.2 4.2 0 00-.7 1.1 5.5 5.5 0 00-.3 1.5zM362.7 74.6a8.4 8.4 0 01-1.7.4 9.6 9.6 0 01-1.8.2 6 6 0 01-4.5-1.6 6.3 6.3 0 01-1.5-4.6 7.4 7.4 0 01.4-2.7 5.7 5.7 0 011.3-2 5.5 5.5 0 012-1.3 6.5 6.5 0 012.4-.4 11 11 0 011.8.1 7.5 7.5 0 011.6.5v2a6.8 6.8 0 00-1.6-.7 8 8 0 00-1.7-.1 3.8 3.8 0 00-1.6.3 3.6 3.6 0 00-1.2.9 4.5 4.5 0 00-1 1.4 5.4 5.4 0 00-.2 1.9 4.6 4.6 0 001 3.3 4 4 0 003 1.1 7.2 7.2 0 001.7-.2 6.9 6.9 0 001.6-.5zM371.1 59.5h-3.6v-1.7h5.8v15.5h3.6V75h-9.8v-1.8h4zM384.9 64.5h-3.6v-1.7h5.7v10.5h3.6V75h-9.8v-1.8h4zm.7-6.9a1.6 1.6 0 01.7.1 1.5 1.5 0 01.5.4 1.7 1.7 0 01.4 1.8 1.7 1.7 0 01-.4.6 1.7 1.7 0 01-2.4 0 1.7 1.7 0 01-.3-.6 1.7 1.7 0 01.3-1.8 1.5 1.5 0 01.6-.4 1.6 1.6 0 01.6 0zM404.8 68.2v1.4h-8.6a3.8 3.8 0 001 2.9 4.2 4.2 0 003 1h1.1l1-.2 1-.1.9-.2v1.7a15 15 0 01-2 .4 16.6 16.6 0 01-2.3.2 7.8 7.8 0 01-2.7-.5 4.8 4.8 0 01-1.9-1.2 5.2 5.2 0 01-1-2 9.5 9.5 0 01-.4-2.7 7.9 7.9 0 01.4-2.4 6.2 6.2 0 011-2 5.1 5.1 0 014.2-2 6 6 0 012.2.5 4.6 4.6 0 011.7 1.1 4.8 4.8 0 011 1.8 7.5 7.5 0 01.4 2.3zm-2.2-.3a4.8 4.8 0 00-.2-1.5 3.1 3.1 0 00-.6-1.1 2.8 2.8 0 00-1-.8 3.4 3.4 0 00-1.4-.3 3 3 0 00-1.3.3 2.9 2.9 0 00-1 .8 4 4 0 00-.6 1.1 5.5 5.5 0 00-.4 1.5zM408.2 62.8h1.9v2a8 8 0 011-1.1 5.6 5.6 0 011-.7 3.8 3.8 0 011-.3 5 5 0 011-.1 3.6 3.6 0 013 1 5 5 0 01.9 3.4v8h-2.1v-7.8a3.4 3.4 0 00-.6-2.1 1.9 1.9 0 00-1.6-.7 2.5 2.5 0 00-.7 0 2.6 2.6 0 00-.8.5 5.8 5.8 0 00-.9.8l-1 1.2V75H408zM431.8 74.8a10.3 10.3 0 01-1.5.3h-1.5a4.9 4.9 0 01-3.5-1 4.1 4.1 0 01-1.1-3.1v-6.4h-3.4v-1.8h3.4v-3.4l2.1-.6v4h5.5v1.7h-5.5v6.3a2.6 2.6 0 00.7 2 3 3 0 002 .6 10.1 10.1 0 001.4 0 12 12 0 001.4-.4zM460.3 62.8l-4.2 11a22 22 0 01-1.3 2.8 8.7 8.7 0 01-1.5 2 5.6 5.6 0 01-1.8 1.2 6.3 6.3 0 01-2.2.3h-1.1v-2h1.2a3.2 3.2 0 001.1 0 3 3 0 001-.6 5.2 5.2 0 001-1 10.3 10.3 0 00.7-1.5l-4.9-12.3h2.4l3.1 8.1.7 2 .7-2 2.8-8zM473.8 68.8a8 8 0 01-.4 2.6 6 6 0 01-1.1 2 5.4 5.4 0 01-1.9 1.3 6.2 6.2 0 01-2.4.5 6.5 6.5 0 01-2.4-.4 4.7 4.7 0 01-1.8-1.2 5 5 0 01-1-2 8.5 8.5 0 01-.5-2.7 8.3 8.3 0 01.4-2.6 6 6 0 011.2-2 5.1 5.1 0 011.9-1.3 6.2 6.2 0 012.4-.5 6.5 6.5 0 012.4.4 4.6 4.6 0 011.7 1.2 5.2 5.2 0 011.2 2 8.9 8.9 0 01.3 2.7zm-2.1 0a7.4 7.4 0 00-.3-2 4 4 0 00-.7-1.3 2.9 2.9 0 00-1.1-.9 3.7 3.7 0 00-1.5-.3 3.2 3.2 0 00-2.8 1.4 4.5 4.5 0 00-.6 1.4 7.5 7.5 0 00-.2 1.8 7.4 7.4 0 00.3 2 4 4 0 00.7 1.4 3 3 0 001.1.9 3.6 3.6 0 001.5.2 3.3 3.3 0 001.6-.3 3.2 3.2 0 001.1-1 4.3 4.3 0 00.7-1.5 7.5 7.5 0 00.2-1.7zM486.8 75h-2v-2a10.4 10.4 0 01-1 1 4.9 4.9 0 01-1 .7 3.8 3.8 0 01-1 .3 5 5 0 01-1 .2 3.6 3.6 0 01-2.9-1.2 5 5 0 01-1-3.3v-8h2.1v7.9c0 1.9.7 2.8 2.1 2.8a2.5 2.5 0 00.8-.1 3 3 0 00.8-.4 6.4 6.4 0 00.8-.8 15.4 15.4 0 001.1-1.2v-8.1h2.1zM34.7 92.8L32.9 105h-2.6l-1.8-5.1-.3-1.3-.4 1.4-1.7 5h-2.5l-1.8-12.2H24l1 8.3.2 1.8.5-1.6 1.8-5.5H29l2 5.4.5 1.7.2-1.8.9-8.3zM41.3 94.5h-3.7v-1.7h5.8v10.5H47v1.7h-9.8v-1.8h4zm.7-6.9a1.6 1.6 0 01.7.1 1.5 1.5 0 01.5.4 1.8 1.8 0 01.3.5 1.8 1.8 0 010 1.3 2 2 0 01-.3.6 1.6 1.6 0 01-1.2.5 1.9 1.9 0 01-.7-.1 1.8 1.8 0 01-.5-.4 1.7 1.7 0 01-.3-.5 1.7 1.7 0 01.3-1.9 1.5 1.5 0 01.5-.3 1.6 1.6 0 01.7-.2zM60.5 101.7a2.9 2.9 0 01-.2 1.1 2.8 2.8 0 01-.6 1 4 4 0 01-.9.6 6.4 6.4 0 01-1 .5 7.7 7.7 0 01-1.2.2 7.9 7.9 0 01-1.2.1h-2.3a16.7 16.7 0 01-2-.4v-2a16.2 16.2 0 002.2.4 13.7 13.7 0 002 .2 4.8 4.8 0 002.3-.4 1.3 1.3 0 00.8-1.2 1.2 1.2 0 00-.6-1.1 4.5 4.5 0 00-1-.5l-1.7-.6a11.9 11.9 0 01-1.5-.5 5.2 5.2 0 01-1.2-.8 3.1 3.1 0 01-.8-1 2.9 2.9 0 01-.3-1.3 3.1 3.1 0 011-2.3 4.6 4.6 0 011.5-.9 7.5 7.5 0 012.5-.3h1.6a16.2 16.2 0 011.8.3v2a14.6 14.6 0 00-1.9-.4 12 12 0 00-1.5-.1 6.4 6.4 0 00-1.4 0 2.7 2.7 0 00-.9.4 1.3 1.3 0 00-.5.5 1.4 1.4 0 000 .6 1.3 1.3 0 000 .6 1.4 1.4 0 00.5.6 4.3 4.3 0 001 .5l1.6.6a13.4 13.4 0 011.9.6 4.7 4.7 0 011.2.8 2.5 2.5 0 01.6 1 3.4 3.4 0 01.2 1.2zM74.4 105h-2.1v-7.8a3.5 3.5 0 00-.5-2.1 1.8 1.8 0 00-1.6-.7 2.6 2.6 0 00-.8 0 2.6 2.6 0 00-.7.5 6.4 6.4 0 00-1 .8l-1 1.2v8.1h-2.1V87.8h2v6.9a8 8 0 011-1 5.5 5.5 0 011-.7 3.8 3.8 0 011-.3 5.1 5.1 0 011-.1 3.6 3.6 0 012.8 1 4.9 4.9 0 011 3.4zM102 104.8a10.3 10.3 0 01-1.6.3H99a5 5 0 01-3.5-1 4.2 4.2 0 01-1.1-3.1v-6.4h-3.4v-1.8h3.4v-3.4l2.1-.6v4h5.5v1.7h-5.5v6.3a2.6 2.6 0 00.7 2 3 3 0 002 .6 10.3 10.3 0 001.4 0 12.4 12.4 0 001.4-.4zM116.5 98.8a8 8 0 01-.4 2.6 5.7 5.7 0 01-1.2 2 5.3 5.3 0 01-1.8 1.3 6.2 6.2 0 01-2.5.5 6.5 6.5 0 01-2.4-.4 4.9 4.9 0 01-1.7-1.2 5.3 5.3 0 01-1.1-2 8.8 8.8 0 01-.4-2.6 8 8 0 01.4-2.6 6 6 0 011.2-2 5.1 5.1 0 011.8-1.4 6.3 6.3 0 012.4-.5 6.5 6.5 0 012.4.4 4.6 4.6 0 011.8 1.2 5 5 0 011 2 8.6 8.6 0 01.5 2.7zm-2.2 0a7 7 0 00-.3-2 3.9 3.9 0 00-.7-1.3 3 3 0 00-1.1-.9 3.7 3.7 0 00-1.5-.3 3.2 3.2 0 00-2.7 1.4 4.5 4.5 0 00-.6 1.5 7.5 7.5 0 00-.2 1.7 7 7 0 00.2 2 4.2 4.2 0 00.7 1.4 3 3 0 001.1.9 3.5 3.5 0 001.5.2 3.3 3.3 0 001.7-.3 3.2 3.2 0 001-1 4.1 4.1 0 00.7-1.5 7 7 0 00.2-1.7zM144.3 105h-3l-5.6-6.6v6.6h-2.1V87.8h2v10.6l5.6-5.6h2.8l-5.8 5.6zM151.2 94.5h-3.6v-1.7h5.8v10.5h3.6v1.7h-9.8v-1.8h4zm.8-6.9a1.6 1.6 0 01.6.1 1.5 1.5 0 01.5.4 1.8 1.8 0 01.4.5 1.8 1.8 0 010 1.3 2 2 0 01-.4.6 1.6 1.6 0 01-1.1.5 1.9 1.9 0 01-.7-.1 1.8 1.8 0 01-.5-.4 1.7 1.7 0 01-.3-.5 1.7 1.7 0 01.3-1.9 1.5 1.5 0 01.5-.3 1.6 1.6 0 01.7-.2zM165 89.5h-3.6v-1.7h5.7v15.4h3.7v1.8H161v-1.8h4zM178.7 89.5h-3.6v-1.7h5.7v15.4h3.7v1.8h-9.8v-1.8h4zM213.4 92.8l-1.8 12.2H209l-1.8-5.1-.3-1.3-.4 1.3-1.7 5.1h-2.5l-1.8-12.3h2l1 8.4.3 1.8.5-1.6 1.8-5.5h1.5l2 5.4.5 1.6.2-1.7 1-8.4zM220 94.5h-3.7v-1.7h5.8v10.5h3.6v1.7H216v-1.8h4zm.7-6.9a1.6 1.6 0 01.6.1 1.5 1.5 0 01.6.4 1.7 1.7 0 01.3 1.8 1.7 1.7 0 01-.3.6 1.8 1.8 0 01-.6.3 1.9 1.9 0 01-.6.2 1.6 1.6 0 01-1.2-.5 2 2 0 01-.4-.6 1.8 1.8 0 010-1.3 1.8 1.8 0 01.4-.5 1.5 1.5 0 01.5-.4 1.6 1.6 0 01.7 0zM239.4 104.8a10.3 10.3 0 01-1.5.3h-1.6a4.9 4.9 0 01-3.4-1 4.1 4.1 0 01-1.2-3.1v-6.4h-3.4v-1.8h3.4v-3.4l2.2-.6v4h5.5v1.7h-5.5v6.3a2.6 2.6 0 00.7 2 3 3 0 002 .6 10.1 10.1 0 001.3 0 12.4 12.4 0 001.5-.4zM253.1 105H251v-7.8a3.5 3.5 0 00-.5-2.1 1.8 1.8 0 00-1.6-.7 2.5 2.5 0 00-.8 0 2.6 2.6 0 00-.7.5 6.4 6.4 0 00-1 .8l-1 1.2v8.1h-2.1V87.8h2v6.9a8 8 0 011-1 5.6 5.6 0 011-.7 3.8 3.8 0 011-.3 5 5 0 011-.1 3.6 3.6 0 012.8 1 4.9 4.9 0 011 3.4zM281.2 98.7a8.3 8.3 0 01-.4 2.7 5.7 5.7 0 01-1.2 2 5.2 5.2 0 01-1.9 1.3 6.8 6.8 0 01-2.5.4 12 12 0 01-2.2-.1 10.9 10.9 0 01-2.3-.7V87.8h2.2v4.7l-.1 2.3a5.4 5.4 0 012-1.8 5 5 0 012.2-.5 3.8 3.8 0 011.9.5 3.8 3.8 0 011.3 1.2 5.6 5.6 0 01.8 2 10.8 10.8 0 01.2 2.5zm-2.2 0a10.6 10.6 0 00-.1-1.7 4.3 4.3 0 00-.5-1.4 2.3 2.3 0 00-.7-.9 1.9 1.9 0 00-1.2-.3 3 3 0 00-.8.1 3.5 3.5 0 00-.8.5 7 7 0 00-1 .7 13.2 13.2 0 00-1 1.3v6a8.4 8.4 0 001.2.4 6.1 6.1 0 001.3.1 4.3 4.3 0 001.4-.2 2.9 2.9 0 001.1-.8 4 4 0 00.8-1.4 7 7 0 00.3-2.3zM294.3 105h-1.9v-2a10.4 10.4 0 01-1 1 4.8 4.8 0 01-1 .7 3.8 3.8 0 01-1 .3 5 5 0 01-1.1.2 3.5 3.5 0 01-2.9-1.2 5 5 0 01-1-3.3v-8h2.1v7.8c0 1.9.7 2.8 2.2 2.8a2.5 2.5 0 00.7 0 3.2 3.2 0 00.8-.5 6.4 6.4 0 00.9-.8 15.4 15.4 0 001-1.2v-8h2.1zM308.1 104.8a10.2 10.2 0 01-1.5.3H305a5 5 0 01-3.4-1 4.1 4.1 0 01-1.1-3.1v-6.4H297v-1.8h3.4v-3.4l2.1-.6v4h5.5v1.7h-5.5v6.3a2.6 2.6 0 00.7 2 3 3 0 002 .6 10 10 0 001.3 0 11.6 11.6 0 001.5-.4zM321.9 104.8a10.3 10.3 0 01-1.5.3h-1.6a4.9 4.9 0 01-3.4-1 4.1 4.1 0 01-1.2-3.1v-6.4h-3.4v-1.8h3.4v-3.4l2.1-.6v4h5.6v1.7h-5.6v6.3a2.6 2.6 0 00.8 2 3 3 0 002 .6 10.1 10.1 0 001.3 0 12 12 0 001.4-.4zM336.4 98.8a8.4 8.4 0 01-.4 2.6 6 6 0 01-1.2 2 5.4 5.4 0 01-1.8 1.3 6.2 6.2 0 01-2.5.5 6.5 6.5 0 01-2.3-.4 4.8 4.8 0 01-1.8-1.2 5.3 5.3 0 01-1.1-2 8.8 8.8 0 01-.4-2.7 8 8 0 01.4-2.6 6 6 0 011.1-2 5.1 5.1 0 011.9-1.3 6.2 6.2 0 012.5-.5 6.5 6.5 0 012.3.4 4.6 4.6 0 011.8 1.2 5 5 0 011.1 2 8.6 8.6 0 01.4 2.7zm-2.2 0a7.4 7.4 0 00-.2-2 4 4 0 00-.8-1.3 2.9 2.9 0 00-1-.9 3.7 3.7 0 00-1.6-.3 3.2 3.2 0 00-2.7 1.4 4.5 4.5 0 00-.6 1.4 7.5 7.5 0 00-.2 1.8 7.4 7.4 0 00.2 2 4 4 0 00.7 1.4 3 3 0 001.1.9 3.6 3.6 0 001.5.2 3.3 3.3 0 001.7-.3 3.2 3.2 0 001-1 4.1 4.1 0 00.7-1.5 7 7 0 00.2-1.7zM339.5 92.8h1.9v2a8.8 8.8 0 011-1.1 5.6 5.6 0 011-.7 3.7 3.7 0 011-.3 5 5 0 011-.1 3.6 3.6 0 013 1 5 5 0 011 3.4v8h-2.2v-7.8a3.4 3.4 0 00-.6-2.1 1.9 1.9 0 00-1.6-.7 2.5 2.5 0 00-.7 0 2.6 2.6 0 00-.8.5 6.4 6.4 0 00-.9.8l-1 1.2v8.1h-2.2zM377.2 105h-10v-2h4V91.4l-3.7 2-.8-1.7 5-2.7h2v14h3.5zM385.5 101.2a2 2 0 01.8.1 2 2 0 01.7.5 2.2 2.2 0 01.4.6 2 2 0 01.2.8 1.9 1.9 0 01-.2.8 2 2 0 01-1 1 2.1 2.1 0 01-.9.2 2 2 0 01-.8-.1 2.1 2.1 0 01-1-1.1 2 2 0 01-.2-.8 2.1 2.1 0 01.1-.8 2 2 0 01.5-.6 2 2 0 01.6-.5 1.9 1.9 0 01.8-.1zM399.3 101.2a1.9 1.9 0 01.7.1 2 2 0 01.7.5 2 2 0 01.4.6 2 2 0 01.2.8 1.9 1.9 0 01-.2.8 1.9 1.9 0 01-.4.6 2 2 0 01-.7.5 2 2 0 01-.7.1 2.1 2.1 0 01-.8-.1 2.1 2.1 0 01-.7-.5 1.9 1.9 0 01-.4-.6 1.9 1.9 0 01-.2-.8 2 2 0 01.2-.8 2 2 0 01.4-.6 2.1 2.1 0 01.7-.5 2 2 0 01.8-.1zM413 101.2a2 2 0 01.8.1 2 2 0 01.6.5 2.2 2.2 0 01.5.6 2 2 0 01.1.8 1.9 1.9 0 01-.1.8 2 2 0 01-1.1 1 2.1 2.1 0 01-.8.2 2 2 0 01-.8-.1 2.1 2.1 0 01-1-1.1 2 2 0 01-.2-.8 2.1 2.1 0 01.1-.8 2 2 0 01.5-.6 2 2 0 01.6-.5 1.9 1.9 0 01.8-.1zM426.8 101.2a1.9 1.9 0 01.7.1 2 2 0 01.7.5 1.9 1.9 0 01.4.6 2 2 0 01.2.8 1.9 1.9 0 01-.2.8 1.8 1.8 0 01-.4.6 2 2 0 01-.7.5 2 2 0 01-.7.1 2.1 2.1 0 01-.8-.1 2.1 2.1 0 01-.7-.5 2 2 0 01-.4-.6 1.9 1.9 0 01-.2-.8 2 2 0 01.2-.8 2.2 2.2 0 01.4-.6 2.1 2.1 0 01.7-.5 2 2 0 01.8-.1z"/><path fill="#fff" d="M446 446h4v2h2v2h2v2h2v2h2v2h4v-2h2v-2h2v-2h2v-2h2v-2h4v4h-2v2h-2v2h-2v2h-2v2h-2v4h2v2h2v2h2v2h2v2h2v4h-4v-2h-2v-2h-2v-2h-2v-2h-2v-2h-4v2h-2v2h-2v2h-2v2h-2v2h-4v-4h2v-2h2v-2h2v-2h2v-2h2v-4h-2v-2h-2v-2h-2v-2h-2v-2h-2z"/></svg>